<svg xmlns="http://www.w3.org/2000/svg" xmlns:xlink="http://www.w3.org/1999/xlink"><symbol id="entertainment" viewBox="0 0 576 576"><path d="M437.5 118.2a4.9 4.9 0 0 1 4.8 4.9v38.2c0 68.2-.2 136.4.1 204.6.1 31.3-17 48.3-41.9 57.5-6.5 2.4-16.5 3.8-26.2 3.8-7.7 0-15.1-.9-20.4-2.7-16.3-5.6-24.4-20.9-19.4-37.4 5.7-18.5 19.6-29.2 36.7-36.2a56.2 56.2 0 0 1 33.6-3.3h1a5 5 0 0 0 4.9-5V213.9a4.9 4.9 0 0 0-4.9-4.9h-.8l-25.3 4.3c-47.7 8.2-84.4 16.4-132.1 24.4-3.7.6-4.9 1.8-4.9 5.6.2 50.8-.5 101.5.3 152.3.5 35.7-22.2 52.8-46.6 59.9-5.1 1.5-13.1 2.3-21 2.3s-15.1-.7-19.9-2.3c-17.9-5.8-26.3-22.4-19.6-40 7.9-20.6 24.5-31.2 44.9-36.8a50.2 50.2 0 0 1 13.3-1.8 53.4 53.4 0 0 1 11.7 1.4h1.1a4.8 4.8 0 0 0 4.8-4.9V162.3c-.1-4.2.9-5.8 5.4-6.6 69.5-12.3 150-24.9 219.5-37.4h.9m0-19.6a20.9 20.9 0 0 0-4.3.4h-.1c-36.6 6.6-76.9 13.3-115.9 19.8-34.7 5.8-70.6 11.8-103.5 17.6-7.2 1.3-12.7 4.4-16.6 9.4a25.7 25.7 0 0 0-5 16.6v195a67.1 67.1 0 0 0-16.5 2.4c-29.1 7.9-48.7 24.3-58 48.6-5.1 13.5-4.8 27.5 1 39.6s16.8 21.6 30.8 26.1c8.4 2.7 18.7 3.3 26 3.3 4.8 0 16.9-.3 26.4-3.1 17.4-5 31.5-13.4 41.8-24.9a72.3 72.3 0 0 0 14.2-23.7 85.8 85.8 0 0 0 4.8-30.4c-.5-32.8-.4-66.2-.3-98.5 0-13.7.1-27.8 0-41.8 20.3-3.5 38.9-7.1 57-10.6 20.1-3.9 40.8-7.9 63.7-11.8l8.1-1.3v95.5a80.7 80.7 0 0 0-27.4 5.9c-11.5 4.8-20.9 10.5-28.5 17.6a69.9 69.9 0 0 0-19.4 31.1c-3.9 12.9-2.9 26.2 3 37.5a50.3 50.3 0 0 0 28.7 24c9 3.1 19.5 3.8 26.8 3.8 12.4 0 24.5-1.8 33-5 45.4-16.8 54.8-50.6 54.7-75.9-.2-48.4-.2-97.7-.1-145.3v-97.5a24.5 24.5 0 0 0-24.4-24.5z"/></symbol><symbol id="facebook" viewBox="0 0 576 576"><path d="M375.4 113.1l-10.1-.9c-23.3-2.2-47.5-4.5-72.2 4.4-29.2 10.5-47.9 33.3-52.7 64.1-2.2 14.2-2.5 28.4-2.8 42.3 0 3.4-.1 7-.2 10.6h-4.1c-9.4 0-19.1-.1-28.6-.3a19.1 19.1 0 0 0-14.1 5.5 19.4 19.4 0 0 0-5.9 14c.1 16-.1 32.9-.5 50.1 0 2.2-.2 9.1 5.1 14.4 3.4 3.5 8.1 5.2 13.9 5.2h21.1l12.1.2c-.5 39.5-1.1 99.1-1.3 117.4a25.9 25.9 0 0 0 7.4 18.2 25.6 25.6 0 0 0 18.1 7.5h40.3a25.6 25.6 0 0 0 25.5-25.1c.3-23.6 1-79.9 1.2-117.1l16 .2c5.8 0 11.7 0 17.5.2s10.6-1.6 14.1-5.1 4.7-8.7 5.5-14.9c2.3-16.8 4.2-32.9 6.8-47.8 1.3-7.5-.5-12.4-2.8-15.2-5-6.2-12.3-6.1-14.7-6.1h-.4l-33-.4h-7.9c0-1.8 0-3.5.1-5.2.1-9.2.3-17.9 1.2-26.4.4-3.7 1.2-6.3 8-6.4 9.6-.3 20.1-.2 32.2.1 2.4.1 10 .3 15.7-5.3 3.8-3.7 5.6-8.8 5.6-15.2-.2-9.8 0-19.9.1-29.7.1-4.4.1-8.9.2-13.3v-.6c.3-17.1-13.6-19.2-16.4-19.4zm-11 33c-.1 6.1-.2 12.4-.2 18.7a4.4 4.4 0 0 1-4.4 4.4c-8.1-.2-15.5-.1-22.5 0-19.2.5-32.4 12.3-34.4 30.7-1 9.8-1.2 19.5-1.4 28.9 0 2.5-.1 4.9-.1 7.4-.2 7.3-.4 14.2 5 19.8s11.9 5.6 19.5 5.7h26.6a5.4 5.4 0 0 1 5.3 6c-.9 8.1-2.1 16.1-3.4 24.1a5.5 5.5 0 0 1-5.4 4.6h-5.2c-7.4 0-15-.1-22.3-.3-2.7-.1-9.9-.4-15.5 5s-5.6 12.6-5.6 15c-.2 31.4-.7 81.7-1.1 111.2a11.3 11.3 0 0 1-11.3 11.3h-14.2a11.2 11.2 0 0 1-11.3-11.4c.3-27.7.8-80 1.2-112.5q.2-8.8-5.1-14.1c-5.2-5.2-12.1-5.2-14.3-5.2h-27.9a4.8 4.8 0 0 1-4.7-4.8c.1-8.5.2-16.9.3-25.1a4.7 4.7 0 0 1 4.7-4.7l16.4.2h9.9c14.6.2 20.8-5.7 21.4-20v-.6c.2-5.6.4-11.2.5-16.7.2-13.5.5-26.3 2.4-38.6 3.3-21.1 15.1-35.5 35.1-42.7 18.4-6.6 38-5 58.7-3.1a3.7 3.7 0 0 1 3.3 3.7z"/></symbol><symbol id="debt" viewBox="0 0 576 576"><path d="M194.2 252a46 46 0 0 1 17.6-3.4h200.4l-31.1-103.9a37.3 37.3 0 0 0-35.6-26.5 36.5 36.5 0 0 0-10.7 1.6L73.5 198.1a37.1 37.1 0 0 0-24.9 46.2l35.6 118.9a37.2 37.2 0 0 0 35.5 26.4 38.9 38.9 0 0 0 10.7-1.5l42.1-12.6v-87.2a46.6 46.6 0 0 1 2.6-15.7c3.6-10 9.1-16.5 19.1-20.6zm-36.9 14.3a64.3 64.3 0 0 0-3.7 22v73.1L125 370a18.8 18.8 0 0 1-5.3.7 18.3 18.3 0 0 1-17.4-13L66.7 238.9a18.2 18.2 0 0 1 1.4-13.9 17.9 17.9 0 0 1 10.8-8.8l261.3-78.3a19.5 19.5 0 0 1 5.3-.8 18.5 18.5 0 0 1 17.5 13l23.8 79.6h-175a65 65 0 0 0-24.9 4.8c-14.4 6-24.1 16.4-29.6 31.8z"/><path d="M491.9 259.5H219a37.1 37.1 0 0 0-37.1 37.1v124.1a37.1 37.1 0 0 0 37.1 37.1h272.9a37.1 37.1 0 0 0 37.1-37.1V296.6a37.1 37.1 0 0 0-37.1-37.1zM219 278.4h272.9a18.2 18.2 0 0 1 18.2 18.2v8.7H200.8v-8.7a18.2 18.2 0 0 1 18.2-18.2zm272.9 160.5H219a18.3 18.3 0 0 1-18.2-18.2v-77.6h309.3v77.6a18.3 18.3 0 0 1-18.2 18.2z"/></symbol><symbol id="contact" viewBox="0 0 576 576"><path d="M388.1 323.2a121.3 121.3 0 0 0-50.3-38.9 86.9 86.9 0 1 0-101.5-1.3 112.7 112.7 0 0 0-51.7 40.6c-19.9 28-30.4 67-30.4 112.8v13.4h267.6v-13.4c0-45.3-11.6-84.4-33.7-113.2zM226 213.1a62 62 0 1 1 112.3 36.2c-11.8 16.4-31.2 25.5-51.4 25.3h-3.4a44.1 44.1 0 0 1-9.6-1 62.1 62.1 0 0 1-47.9-60.5zm-44.6 209.8c2.5-44.9 19.1-121.6 103.5-121.6 50.7 0 104.8 32.3 109.7 121.6z"/></symbol><symbol id="green-scale" viewBox="0 0 912.2 141"><defs><linearGradient id="a" x1="617.98" x2="912.2" y1="70.52" y2="70.52" gradientUnits="userSpaceOnUse"><stop offset="0" stop-color="#c3ea6d"/><stop offset=".99" stop-color="#75ed9a"/></linearGradient><linearGradient id="b" x1=".5" x2="588.93" y1="70.52" y2="70.52" xlink:href="#a"/><radialGradient id="c" cx="624.68" cy="70.52" r="70.52" xlink:href="#a"/></defs><path fill="#fff" d="M618 37.1h260.8a33.5 33.5 0 0 1 33.4 33.4 33.4 33.4 0 0 1-33.4 33.4H618z"/><path fill="url(#a)" d="M878.8 43.1a27.4 27.4 0 1 1 0 54.8H624V43.1h254.8m0-6H618v66.8h260.8a33.4 33.4 0 0 0 33.4-33.4 33.5 33.5 0 0 0-33.4-33.4z"/><path fill="url(#b)" d="M33.9 37.1h555v66.8h-555A33.4 33.4 0 0 1 .5 70.5a33.4 33.4 0 0 1 33.4-33.4z"/><circle cx="624.7" cy="70.5" r="70.5" fill="url(#c)"/></symbol><symbol id="home" viewBox="0 0 576 576"><path d="M443.1 267.4L311.8 137.3a35.6 35.6 0 0 0-50 .2l-129.1 130a34.7 34.7 0 0 0-10.3 24.9v121.1a35.5 35.5 0 0 0 35.4 35.4h65.9a36.1 36.1 0 0 0 36-36.1v-77.6a10.6 10.6 0 0 1 10.6-10.5h35.4a10.6 10.6 0 0 1 10.6 10.5v77.6a36.1 36.1 0 0 0 36 36.1h65.9a35.5 35.5 0 0 0 35.4-35.4v-121a35.3 35.3 0 0 0-10.5-25.1zm-137.4 32.4h-35.4a35.5 35.5 0 0 0-35.4 35.4v77.6a11.2 11.2 0 0 1-11.2 11.2h-65.9a10.6 10.6 0 0 1-10.6-10.5V292.4a10.4 10.4 0 0 1 3.1-7.4l129.2-129.9a10.4 10.4 0 0 1 14.8-.1l131.3 130a10.7 10.7 0 0 1 3.2 7.5v121a10.6 10.6 0 0 1-10.6 10.5h-65.9a11.2 11.2 0 0 1-11.2-11.2v-77.6a35.5 35.5 0 0 0-35.4-35.4z"/></symbol><symbol id="education" viewBox="0 0 576 576"><path d="M510.1 221.6a26.3 26.3 0 0 0-8.4-4.1l-198.6-61.6a51.5 51.5 0 0 0-30.6 0L75.4 217.1l-1.1.3c-4.4 1.3-14.6 4.3-14.3 16.2a14.5 14.5 0 0 0 6 11.8 27.1 27.1 0 0 0 8 3.5l1.3.4 91.4 28.4 104.8 32.5a54.4 54.4 0 0 0 16.4 2.5 55.5 55.5 0 0 0 16.5-2.5l89.3-27.7 44.4-13.8v145.8a8 8 0 0 0 16 0V263.7l47-14.6a27.7 27.7 0 0 0 8.7-4 14.4 14.4 0 0 0 .3-23.5zm-13.8 12.3L389 267.2l-89.4 27.7a37.4 37.4 0 0 1-23.4 0l-104.7-32.5C128.1 249 87.1 236.3 80.1 234l-1.5-.4-1.3-.4 1.5-.5 1.3-.4c64.4-20 130.7-40.6 197.2-61.1a34.6 34.6 0 0 1 21.1 0c68 21 134.8 41.8 198.5 61.6l1.4.4z"/><path d="M410.3 306.5a18.3 18.3 0 0 0-.3-3.5c0-.4-.1-.8-.1-1.2l-1-9.4-9.1 2.6-1.6.4-3.1.9-4.2 1.3-87.8 27.2a49.6 49.6 0 0 1-30 .1l-44-13.7-24.3-7.5-19.4-6-9.5-2.9-10.3-3.2v10.8c0 6.7-.1 13.4-.1 19.8-.1 15.6-.3 30.3.3 45.3.7 18.4 13.7 33.1 32.4 36.6a485.3 485.3 0 0 0 89.7 8.3 494.4 494.4 0 0 0 89.8-8.3c19.4-3.7 32.5-19.8 32.6-40.2.1-14.9.1-29.9 0-44.5zm-16 57.3c0 12.9-7.6 22.3-19.6 24.6a471.3 471.3 0 0 1-173.6 0c-11.3-2.1-18.9-10.6-19.3-21.5-.6-14.7-.5-29.2-.3-44.5v-9.2l18.6 5.8 24.2 7.5 44.1 13.7a65.7 65.7 0 0 0 39.5-.2l86.5-26.8v6.2c0 14.6 0 29.6-.1 44.4z"/></symbol><symbol id="email" viewBox="0 0 576 576"><path d="M146.7 401.3a11.9 11.9 0 0 1-8.8-10.9V187c0-7.8 4.9-12.8 12.7-12.7l274.7 1.4c7.9.1 12.7 4.8 12.7 12.7 0 67.9-.1 132 .1 199.9 0 7.7-5 13.5-13.3 13.4-46.3-.1-276.5-.1-278.1-.4zm252.6-28.1l-69.9-82c-2.9-3.3-8.9-2.8-12.4-.2-7.4 5.6-14 11-21 16-5.4 4.5-12.2 4.6-17.6.2s-20.2-14.5-20.6-14.8c-3.3-2.7-9-1.1-11.8 2.1-23.3 26.3-46.4 52.5-69.6 79-3.5 4-2 6.5 2.6 6.5h218.7c3.2 0 5.6-2.2 1.6-6.8zm-107.6-92.6c31.9-26.5 80.9-66.2 96.9-79.5a2.3 2.3 0 0 0-1.5-4l-198.7-1a2.3 2.3 0 0 0-1.5 4c15.7 13.4 63.5 53.6 94.5 80.4a7.9 7.9 0 0 0 10.3.1zm-62.9-14.5l-65.4-56.7c-1.5-1.3-3.8 3.6-3.8 5.5v135.7a2.3 2.3 0 0 0 4 1.5l65.8-74.7a8 8 0 0 0-.6-11.3zm118.7 11.1l64.7 75.8c2.6 3.1 4.1-1.2 4.1-3.3V215.8c0-2-4.1-4.9-5.6-3.7L346.5 266c-3.4 2.8-1.9 7.8 1 11.2z"/></symbol><symbol id="location" viewBox="0 0 576 576"><path d="M288 453.9a18 18 0 0 1-14.6-7.5c-9.2-12.6-40.4-55.7-55.4-80.8-20-33.4-32.8-60.4-41.5-87.6s-8.2-56.3 2.6-82.8a116.8 116.8 0 0 1 95.1-72.2l5.3-.6 3-.3h11.9l2.1.2 5.3.6c31.1 3.9 56.9 17.9 76.6 41.6 21.8 26.2 30.6 57 26.2 91.6-1.2 9.5-4 18.3-6.9 27.2-5.8 17.5-13.9 35.7-24.7 55.8-18.3 33.9-58.5 90.6-70.4 107.2a18.6 18.6 0 0 1-14.6 7.5zm-4.3-306.1l-1.7.2-4.9.5c-32.7 3.7-61.9 25.9-74.2 56.3-8.6 21.2-9.2 42.5-1.9 65.4 8 25.2 20.1 50.6 39.1 82.2 10.5 17.7 29.7 45.1 42.8 63.4a6 6 0 0 0 9.9-.1c16.2-23 43.9-63.3 57.6-88.7 10.1-18.7 17.6-35.6 22.9-51.7 2.6-7.9 4.9-15.1 5.8-22.4 3.5-27.6-3.2-51.1-20.5-71.9-15.6-18.8-35.2-29.4-60-32.5l-4.6-.5-1.5-.2zm4.3 156.4a64.3 64.3 0 0 1-45.4-109.8 63.8 63.8 0 0 1 45.4-18.8h.1a64.3 64.3 0 0 1-.1 128.6zm0-102.9a38.6 38.6 0 1 0 .1 0z"/></symbol><symbol id="gifts" viewBox="0 0 576 576"><path d="M258.1 325.3v152.8H150.5a19.4 19.4 0 0 1-19.3-19.3V325.3h126.9m19.9-19.9H111.3v153.4a39.1 39.1 0 0 0 39.2 39.2H278V305.4zm147.5-111.6a19.3 19.3 0 0 1 19.3 19.2v52.5H317.9v-71.7h107.6m0-20H298v111.6h166.7V213a39.2 39.2 0 0 0-39.2-39.2zm-167.4 20v71.7H131.2V213a19.3 19.3 0 0 1 19.3-19.2h107.6m19.9-20H150.5a39.2 39.2 0 0 0-39.2 39.2v72.4H278V173.8zm166.8 151.5v133.5a19.4 19.4 0 0 1-19.3 19.3H317.9V325.3h126.9m19.9-19.9H298V498h127.5a39.1 39.1 0 0 0 39.2-39.2V305.4zM278.1 155.9h-67.7a55.5 55.5 0 0 1-39.9-16.7c-10.3-10.7-10.8-20.4-9.5-26.6 2.4-11.6 13-21.1 32.2-29s35.3-7.5 49.4.7c12.1 7.1 21.5 19.5 28 36.9a111.6 111.6 0 0 1 6 23.5zm-59.3-58c-5.4 0-11.4 1.4-18 4.1-17.5 7.2-20 13.1-20.3 14.7s2.5 6.7 4.4 8.7a35.3 35.3 0 0 0 25.5 10.6h44c-3.3-11.9-10.1-27.7-21.8-34.5a27.3 27.3 0 0 0-13.8-3.6zm146.8 58h-67.7l1.5-11.2a111.6 111.6 0 0 1 6-23.5c6.5-17.4 15.9-29.8 28-36.9 14.1-8.2 30.7-8.4 49.4-.7s29.8 17.4 32.2 29c1.3 6.2.8 15.9-9.5 26.6a55.5 55.5 0 0 1-39.9 16.7zm-44-19.9h44a35.3 35.3 0 0 0 25.5-10.6c1.9-2 5-5.8 4.4-8.7s-2.8-7.5-20.3-14.7c-12.8-5.3-23.2-5.4-31.8-.5-11.7 6.8-18.5 22.6-21.8 34.5z"/></symbol><symbol id="green-scaled" viewBox="0 0 912.2 141"><defs><linearGradient id="a" x1="614.48" x2="915.7" y1="70.52" y2="70.52" gradientTransform="rotate(-180 765.1 70.5)" gradientUnits="userSpaceOnUse"><stop offset="0" stop-color="#c3ea6d"/><stop offset=".99" stop-color="#75ed9a"/></linearGradient><linearGradient id="b" x1=".5" x2="588.93" y1="70.52" y2="70.52" xlink:href="#a"/><radialGradient id="c" cx="624.68" cy="70.52" r="70.52" xlink:href="#a"/></defs><path fill="#fff" stroke="url(#a)" stroke-miterlimit="10" stroke-width="7" d="M651.4 37.1h260.8v66.8H651.4A33.4 33.4 0 0 1 618 70.5a33.4 33.4 0 0 1 33.4-33.4z" transform="rotate(180 765.1 70.5)"/><path fill="url(#b)" stroke="#fff" stroke-miterlimit="10" d="M33.9 37.1h555v66.8h-555A33.4 33.4 0 0 1 .5 70.5a33.4 33.4 0 0 1 33.4-33.4z"/><circle cx="624.7" cy="70.5" r="70.5" fill="url(#c)"/></symbol><symbol id="info" viewBox="0 0 576 576"><path d="M288 143a145 145 0 1 0 145 145 145 145 0 0 0-145-145zm17.5 233.1c0 7.6-5.4 11.5-17.1 11.5s-17.9-3.9-17.9-11.5V261c0-7.6 5.4-11.5 17.1-11.5s17.9 3.9 17.9 11.5zM288 227.8c-11.6 0-19.9-8.3-19.9-19.9s8.3-19.5 19.9-19.5 19.9 8.3 19.9 19.5-8.3 19.9-19.9 19.9z"/></symbol><symbol id="logo" viewBox="0 0 466.1 669.3"><path fill="#41b695" d="M449.2 318.2c-11.3-28-26.6-51.4-45.9-70.5a195.5 195.5 0 0 0-66.9-43.2 220.5 220.5 0 0 0-80.6-14.7c-20.8 0-39.1 2.6-54.8 7.6s-29.2 11-40.1 17.8-19.5 13.2-25.4 19.2-9.6 9.8-10.7 11.6V10.7c-3-1.2-10.3-3.3-21.9-6.2A150.7 150.7 0 0 0 65.1 0C45.5 0 29.7 3.9 17.8 11.6S0 33.3 0 53.5v603.3l20.9 3.1c10.4 1.5 23.4 2.8 38.8 4s33 2.4 52.6 3.6 40.1 1.8 61.5 1.8q145.2 0 218.8-67.3t73.5-186.7c0-36.8-5.7-69.2-16.9-97.1zm-158.7-20.8a98.9 98.9 0 0 1 39.1 33.4 36 36 0 0 1 3.9 2 29.6 29.6 0 0 1 10.5 10.3 38 38 0 0 0 8.9 10.3c33.2 26.9 10.4 62.2 1.7 73.5a3.1 3.1 0 0 1-5.1-.4 74.8 74.8 0 0 0-5.2-7.8 2.2 2.2 0 0 0-3.8.5c-.9 2.3-1.8 4.5-2.8 6.6s.1 1.9.1 2.9a187.3 187.3 0 0 1-8.5 57.4 126.5 126.5 0 0 1-25.9 45.9c-11.5 13.1-26.4 23.2-44.5 30.3S219 576.5 194.3 573c-19-2.6-28-8.4-38.6-2.6-29.9 16.2-59.6 17.9-63.2 16.1a177.5 177.5 0 0 0 32.3-102.1v-75.3q0-50.9 25.8-84.7c14.1-18.5 34.1-30.1 59.8-34.8a128.1 128.1 0 0 1 21.4-2l11.3-.2a103.4 103.4 0 0 1 47.4 10z"/></symbol><symbol id="more" viewBox="0 0 576 576"><path d="M414 263H313V162a25 25 0 0 0-50 0v101H162a25 25 0 0 0 0 50h101v101a25 25 0 0 0 50 0V313h101a25 25 0 0 0 0-50z"/></symbol><symbol id="phone" viewBox="0 0 576 576"><path d="M345.6 454.8h-.1a132.2 132.2 0 0 1-44.3-8.1c-16-5.8-31.5-14.4-47.6-26.2a266.7 266.7 0 0 1-26.3-22c-9.1-8.5-18.1-17.8-27.5-28.4s-16.2-19.3-23.2-28.9a304.6 304.6 0 0 1-19.6-29.9 208.9 208.9 0 0 1-18.5-42.1 159 159 0 0 1-5.6-25.2 127.6 127.6 0 0 1-.9-24.5 114.4 114.4 0 0 1 8.7-37.2 108.2 108.2 0 0 1 17.2-27.6 112.1 112.1 0 0 1 16.1-15.1c1.9-1.5 3.8-3.2 5.8-5l3.7-3.3c4-3.4 10.3-8.2 19.1-9.6a31.2 31.2 0 0 1 20.7 3.8c7.2 4.1 12.3 9.7 16 14.2s8.7 12 12.5 18l2.9 4.6a143.7 143.7 0 0 1 9.7 16.9 62.6 62.6 0 0 1 6.3 19.6c1.9 13.2-1.7 25-10.3 34.2-2.5 2.6-5 4.9-7.5 7.1l-4 3.5a67.4 67.4 0 0 1-8.9 7.1c-1.3.9-2.6 1.8-3.8 2.8-3.1 2.3-3.9 4.3-4.3 5.7a14.6 14.6 0 0 0 0 6.6c.9 4.8 2.8 9.7 6.4 16.1s9.8 15.5 17.7 25.1a263.9 263.9 0 0 0 22 23.8c5.7 5.4 12.6 11.6 20.7 15.9 4.3 2.2 7.6 3.2 10.7 3.3a8.9 8.9 0 0 0 6-2.2l3.2-3a33.1 33.1 0 0 1 2.6-2.7l.4-.3c2.3-2.3 4.7-4.6 7.3-6.9l.5-.4c3.2-2.8 6.5-5.6 10.1-8.4a39.8 39.8 0 0 1 20.5-7.9 43.8 43.8 0 0 1 20.5 3.3 74.7 74.7 0 0 1 20.5 12.1c5.9 4.7 11.9 9.8 18.5 15.6 3.7 3.3 7.4 6.9 11.1 10.7a52.5 52.5 0 0 1 11.5 17.9 30.8 30.8 0 0 1-5.5 31.5 87.9 87.9 0 0 1-7.4 7.5l-1.9 1.6-5.1 4.7-4.2 3.8a104.5 104.5 0 0 1-19.6 14.2 106.6 106.6 0 0 1-30.5 11.4 121.8 121.8 0 0 1-22.2 2.3zm-138-308.5h-.9c-2 .3-4.1 1.5-6.9 3.9l-3.3 2.9c-2.2 2-4.6 4.2-7.2 6.2a89 89 0 0 0-12.5 11.7 82 82 0 0 0-13.1 21.1A87.4 87.4 0 0 0 157 221a100.5 100.5 0 0 0 .7 19.6 129.6 129.6 0 0 0 4.7 21.1 185 185 0 0 0 16.4 37.1 290.3 290.3 0 0 0 17.9 27.5c6.6 9 13.8 17.9 21.9 27.1a369.6 369.6 0 0 0 25.7 26.7 259 259 0 0 0 24.1 20.1c14.1 10.4 27.7 17.8 41.3 22.8a103.3 103.3 0 0 0 35.8 6.6 79.8 79.8 0 0 0 17.3-1.8 77.8 77.8 0 0 0 23.3-8.7 82 82 0 0 0 14.9-10.6l4.5-4.1 4.8-4.3 2-1.9a48.7 48.7 0 0 0 5.1-5c1.9-2.3 2.2-4 1.2-6.8a25.8 25.8 0 0 0-6.1-9.2c-3.2-3.3-6.4-6.4-9.5-9.2-6.3-5.5-12.1-10.4-17.7-14.9a51.1 51.1 0 0 0-14-8.3 18 18 0 0 0-9.1-1.6 13.7 13.7 0 0 0-7.6 2.9c-2.9 2.2-5.7 4.6-8.7 7.2l-.5.5c-2.2 1.9-4.3 3.9-6.5 6.1l-.4.3-2 2.1c-1.5 1.4-3.1 3.1-5 4.7a33.8 33.8 0 0 1-22.3 8c-7.2-.1-14.3-2-22.2-6.2-10.8-5.8-19.7-13.6-26.3-19.8a299.6 299.6 0 0 1-24-26c-8.9-10.9-15.2-19.8-20.3-28.9s-7.8-16.2-9.1-23.8a39.1 39.1 0 0 1 .4-17.4 35.4 35.4 0 0 1 13.2-19.2l4.7-3.5a53.9 53.9 0 0 0 6.1-4.7l4.6-4.2c2.1-1.9 4.2-3.7 5.9-5.5 3.4-3.6 4.5-7.8 3.7-13.5a42 42 0 0 0-4.1-12.3 114.7 114.7 0 0 0-8.1-14.1l-3.1-4.9a153.9 153.9 0 0 0-10.6-15.4c-3.4-4.2-6.1-6.6-8.9-8.2a7.1 7.1 0 0 0-3.5-1.1z"/></symbol><symbol id="instagram" viewBox="0 0 576 576"><path d="M446.2 218.7c-1-20.9-6.4-40.4-19.8-57.1-3.3-4.1-7.4-7.5-11.2-11a65 65 0 0 0-22.1-13.3c-15.6-5.7-31.8-7.9-48.4-8.3-27-.6-54-.4-80.9-.4-19.8 0-39.5-.1-59.1 2.7-41.4 5.9-70.4 36.5-74.2 78.2-2.7 28.8-1.9 57.7-1.8 86.5-.1 23.1-.5 46.1 1.6 69 4.1 45 35.7 76.5 80.6 80.4 17.1 1.5 34.2 1.8 51.4 1.8 34.4-.2 68.9 1.5 103.2-1.8 23.6-2.3 44.1-11.4 59.7-29.9 6-6.4 10-14 13.4-22 6.5-15.6 7.9-32.1 8.2-48.6.7-42.1 1.3-84.2-.6-126.2zm-80.4 197.5c-13.4 2.1-27 2-40.6 2.1-30 .1-60.1 0-90.1-.2-9.3-.1-18.8 0-27.8-2-10.6-2.3-20.9-5.9-29.5-13.7-11.3-10.4-16.3-23.3-18.3-37.8a256.4 256.4 0 0 1-1.8-31.6l-.3-44.9c.1-17.8 0-35.5.5-53.2.4-12.4.7-24.9 4.6-36.9 6.3-19.7 19.9-31.5 39.6-36.7 12.3-3.2 24.9-3.4 37.5-3.5q50.6-.3 101.1.1c10.8.1 21.7.6 32.3 3.2 23.8 6 37.8 21.3 42.5 45.1 2.9 14.6 2.7 29.4 2.8 44.2 0 30.2.1 60.4-.4 90.6-.3 15.6-.9 31.3-7.9 45.8-9.5 17.6-24.9 26.6-44.2 29.4z"/><path d="M357.1 244.1c-19.5-30.8-55.8-44.6-91-35.2-32.9 8.8-58.9 40.5-59.8 73-1.5 20.2 3.4 38.8 15.7 54.8 19.9 25.7 46.5 36.9 78.8 32.1 25.9-3.9 45.5-18 58.5-41 4.6-6.7 6.9-14.4 8.6-22.2 4.7-21.9 1.2-42.6-10.8-61.5zm-105 82.7c-13.3-11.9-18.3-27.3-17-44.9 2.9-18.5 12.2-32.8 29.1-41.1 19.9-9.9 39.2-7.6 56.7 5.9s25.9 40.1 14.9 64c-17.1 32.7-56.6 40.4-83.7 16.1zm120.8-104.7a19.4 19.4 0 0 0 19.4-19.2 19.6 19.6 0 0 0-19.3-19.3 19.2 19.2 0 0 0-19.2 19.3 18.9 18.9 0 0 0 19.1 19.2z"/></symbol><symbol id="mortgage" viewBox="0 0 576 576"><path d="M495.9 247.9L312.7 114a41.7 41.7 0 0 0-49.4 0L80.1 247.9a10.7 10.7 0 1 0 12.6 17.3l170.6-124.7a42 42 0 0 1 49.4 0l107.1 78.3v212.8a17 17 0 0 1-17 17H173.2a17 17 0 0 1-17-17V303.5a10.7 10.7 0 0 0-11.3-10.7 10.9 10.9 0 0 0-10.2 11v135.8a30.6 30.6 0 0 0 30.5 30.5h245.6a30.6 30.6 0 0 0 30.5-30.5V234.5l42 30.7a10.6 10.6 0 0 0 6.3 2.1 11 11 0 0 0 8.7-4.4 10.8 10.8 0 0 0-2.4-15z"/></symbol><symbol id="purple-scale" viewBox="0 0 912.2 141"><defs><linearGradient id="a" x1="617.98" x2="912.2" y1="70.52" y2="70.52" gradientUnits="userSpaceOnUse"><stop offset="0" stop-color="#ac65f2"/><stop offset="1" stop-color="#df52fe"/></linearGradient><linearGradient id="b" x1=".5" x2="588.93" y1="70.52" y2="70.52" xlink:href="#a"/><radialGradient id="c" cx="624.68" cy="70.52" r="70.52" gradientUnits="userSpaceOnUse"><stop offset="0" stop-color="#df52fe"/><stop offset="1" stop-color="#ac65f2"/></radialGradient></defs><path fill="#fff" d="M618 37.1h260.8a33.5 33.5 0 0 1 33.4 33.4 33.4 33.4 0 0 1-33.4 33.4H618z"/><path fill="url(#a)" d="M878.8 43.1a27.4 27.4 0 1 1 0 54.8H624V43.1h254.8m0-6H618v66.8h260.8a33.4 33.4 0 0 0 33.4-33.4 33.5 33.5 0 0 0-33.4-33.4z"/><path fill="url(#b)" d="M33.9 37.1h555v66.8h-555A33.4 33.4 0 0 1 .5 70.5a33.4 33.4 0 0 1 33.4-33.4z"/><circle cx="624.7" cy="70.5" r="70.5" fill="url(#c)"/></symbol><symbol id="red-scale" viewBox="0 0 912.2 141"><defs><linearGradient id="a" x1="912.2" x2="617.98" y1="70.52" y2="70.52" gradientUnits="userSpaceOnUse"><stop offset="0" stop-color="#f29065"/><stop offset="1" stop-color="#fe5451"/></linearGradient><linearGradient id="b" x1=".5" x2="588.93" y1="70.52" y2="70.52" xlink:href="#a"/><radialGradient id="c" cx="624.68" cy="70.52" r="70.52" xlink:href="#a"/></defs><path fill="#fff" d="M618 37.1h260.8a33.5 33.5 0 0 1 33.4 33.4 33.4 33.4 0 0 1-33.4 33.4H618z"/><path fill="url(#a)" d="M878.8 43.1a27.4 27.4 0 1 1 0 54.8H624V43.1h254.8m0-6H618v66.8h260.8a33.4 33.4 0 0 0 33.4-33.4 33.5 33.5 0 0 0-33.4-33.4z"/><path fill="url(#b)" d="M33.9 37.1h555v66.8h-555A33.4 33.4 0 0 1 .5 70.5a33.4 33.4 0 0 1 33.4-33.4z"/><circle cx="624.7" cy="70.5" r="70.5" fill="url(#c)"/></symbol><symbol id="purchase" viewBox="0 0 576 576"><path d="M263.2 374c-16.5 0-29.5-7.7-37.8-22.4-5.9-10.4-35-137.3-42.7-162.2-1.4-4.5-2.2-14.2-14.1-14.5-7.9-.2-33.6 0-33.6 0a12.9 12.9 0 0 1-12.2-17.2 12.7 12.7 0 0 1 12.2-8.6h39.9c11.2 0 20.3 5.4 25.1 14.9a116.2 116.2 0 0 1 4.8 11.3 11.3 11.3 0 0 0 10.5 7.2h216.5c3.1 0 12.5 0 18.3 7.3s3.5 16.5 2.7 19.5l-25.2 101.2c-3.2 12.8-9.6 17.7-22.9 17.7H248.4c-1.7 0-2.8 5.9-2.2 7.5s1.1 2.3 1.6 3.2c3.8 6.6 8.2 9.3 15.4 9.3H394a12.9 12.9 0 0 1 0 25.8zm-22.3-71.6h158.8a4.3 4.3 0 0 0 4.2-3.2l21.3-85.7a4.2 4.2 0 0 0-4.1-5.2H219.5a4.2 4.2 0 0 0-4.1 5.2c5.2 20.7 18 72.3 21.4 85.7a4.1 4.1 0 0 0 4.1 3.2zm34.7 124.5a20 20 0 1 0-19.8-19.9 19.6 19.6 0 0 0 19.8 19.9zm88.8 0a20 20 0 0 0 20-19.9 20 20 0 1 0-39.9 0 19.6 19.6 0 0 0 19.9 19.9z"/></symbol><symbol id="rainy-day" viewBox="0 0 576 576"><path d="M156.1 364.7c-20.5 0-42.8-7.8-61.4-21.5-21.1-15.5-35.9-37.4-41.6-61.6-8-33.8-.3-68.4 21.1-95.1s53.3-41.6 87.8-41.2c5.5.1 7-.7 10-5.3 30.2-44.9 73.8-66.6 126.1-62.9 27.6 2 51.8 10.3 71.9 24.7s35.8 34.3 47.3 59.9l.9 2.1a7.4 7.4 0 0 0 5.8 4.3c5.3.6 32.4 3.8 46.8 10.7 19.5 9.3 34.1 22.4 43.4 39.1s13.1 35.7 11.4 57.4c-2.9 38.6-24.2 67.5-61.5 83.3-8.1 3.5-18 5.2-29.5 5.3-31.7.1-63.8 0-94.9-.1-59.7-.2-121.4-.3-182.1.8zm4.6-199.9a90.6 90.6 0 0 0-71.3 33.9c-17.6 21.9-23.9 50.5-17.4 78.4 10.2 42.9 52.1 68.7 85.2 68.1 60.9-1.2 122.7-1.1 182.5-.9 31.1.1 63.2.2 94.8.1 8.8-.1 16.4-1.3 22-3.7 30.6-13 47.3-35.5 49.7-66.9 1.3-17.8-1.7-33.4-9-46.4s-19-23.5-34.8-31c-8.4-4-26.4-7.4-40.4-8.9a26.8 26.8 0 0 1-21.7-16 14.2 14.2 0 0 0-.8-1.8c-20.3-45.1-54.9-69.7-102.8-73.1-45.6-3.3-82.1 15-108.5 54.3-6.7 10-14.4 14-26.4 13.9z"/><circle cx="180.2" cy="407.4" r="16.3"/><circle cx="290.2" cy="407.4" r="16.3"/><circle cx="254.4" cy="483" r="16.3"/><circle cx="144.4" cy="483" r="16.3"/><circle cx="400.2" cy="407.4" r="16.3"/><circle cx="364.5" cy="483" r="16.3"/></symbol><symbol id="purple-scaled" viewBox="0 0 912.2 141"><defs><linearGradient id="a" x1="518.41" x2="912.2" y1="70.52" y2="70.52" gradientUnits="userSpaceOnUse"><stop offset="0" stop-color="#ac65f2"/><stop offset="1" stop-color="#df52fe"/></linearGradient><linearGradient id="b" x1=".5" x2="518.41" y1="70.52" y2="70.52" xlink:href="#a"/><radialGradient id="c" cx="518.41" cy="70.52" r="70.52" gradientUnits="userSpaceOnUse"><stop offset="0" stop-color="#df52fe"/><stop offset="1" stop-color="#ac65f2"/></radialGradient></defs><path fill="#fff" d="M518.4 37.1h360.4a33.5 33.5 0 0 1 33.4 33.4 33.4 33.4 0 0 1-33.4 33.4H518.4z"/><path fill="url(#a)" d="M878.8 44.1a26.4 26.4 0 1 1 0 52.8H525.4V44.1h353.4m0-7H518.4v66.8h360.4a33.4 33.4 0 0 0 33.4-33.4 33.5 33.5 0 0 0-33.4-33.4z"/><path fill="url(#b)" stroke="#fff" stroke-miterlimit="10" d="M31.8 37.1h486.6v66.8H31.8A31.3 31.3 0 0 1 .5 72.6v-4.1a31.3 31.3 0 0 1 31.3-31.4z"/><circle cx="518.4" cy="70.5" r="70.5" fill="url(#c)"/></symbol><symbol id="red-scaled" viewBox="0 0 912.2 141"><defs><linearGradient id="a" x1="912.2" x2="617.98" y1="70.52" y2="70.52" gradientUnits="userSpaceOnUse"><stop offset="0" stop-color="#f29065"/><stop offset="1" stop-color="#fe5451"/></linearGradient><linearGradient id="b" x1=".5" x2="721.2" y1="70.52" y2="70.52" xlink:href="#a"/><radialGradient id="c" cx="721.2" cy="70.52" r="70.52" xlink:href="#a"/></defs><path fill="#fff" d="M618 37.1h260.8a33.5 33.5 0 0 1 33.4 33.4 33.4 33.4 0 0 1-33.4 33.4H618z"/><path fill="url(#a)" d="M878.8 43.1a27.4 27.4 0 1 1 0 54.8H624V43.1h254.8m0-6H618v66.8h260.8a33.4 33.4 0 0 0 33.4-33.4 33.5 33.5 0 0 0-33.4-33.4z"/><path fill="url(#b)" stroke="#fff" stroke-miterlimit="10" d="M33.9 37.1h687.3v66.8H33.9A33.4 33.4 0 0 1 .5 70.5a33.4 33.4 0 0 1 33.4-33.4z"/><circle cx="721.2" cy="70.5" r="70.5" fill="url(#c)"/></symbol><symbol id="reverse-facebook" viewBox="0 0 576 576"><path d="M288 536.1c137 0 248.1-111.1 248.1-248.1S425 39.9 288 39.9 39.9 151 39.9 288 151 536.1 288 536.1zm-97.3-235.4c.3-14.8.4-29.3.4-43.1a16.7 16.7 0 0 1 17.2-16.8l24.6.3h3.5c.1-3.1.2-6.2.2-9.2.2-11.8.5-24.1 2.4-36.3 4.1-26.5 20.2-46.1 45.4-55.2 21.2-7.6 42-5.7 62.1-3.8l8.7.8c2.4.2 14.3 1.9 14.1 16.7v.5c0 3.8 0 7.7-.1 11.5-.1 8.4-.2 17.1-.1 25.5 0 5.5-1.6 9.9-4.8 13.1-4.9 4.8-11.4 4.6-13.5 4.6-10.4-.3-19.5-.4-27.8-.1-5.8.1-6.5 2.3-6.8 5.4-.8 7.4-.9 14.9-1.1 22.8v4.4h6.7l28.5.3h.3c2.1 0 8.4-.1 12.6 5.2 2 2.5 3.6 6.7 2.5 13.2-2.2 12.7-3.9 26.6-5.9 41-.7 5.4-1.5 9.8-4.7 12.9s-7.1 4.5-12.1 4.4-10.1-.2-15.1-.2l-13.8-.2c-.2 32-.7 80.5-1 100.7A22.1 22.1 0 0 1 291 441h-34.6a21.9 21.9 0 0 1-21.9-22.1c.1-15.8.6-67.1 1-101.1H207q-7.5 0-12-4.5c-4.5-4.8-4.4-10.6-4.3-12.6z"/><path d="M218.3 294.2h24c2 0 7.9-.1 12.4 4.5 3 3 4.4 7 4.4 12.1-.4 27.9-.8 72.9-1.1 96.8a9.7 9.7 0 0 0 9.7 9.8H280a9.8 9.8 0 0 0 9.7-9.6c.3-25.4.8-68.7.9-95.7 0-2.1.1-8.3 4.9-13s10.9-4.4 13.3-4.3c6.3.2 12.8.3 19.1.3h4.6a4.8 4.8 0 0 0 4.6-3.9c1.1-7 2.2-13.8 2.9-20.8a4.6 4.6 0 0 0-4.5-5.1l-14-.2h-8.9c-6.6 0-12.2-.1-16.8-4.8s-4.5-10.8-4.3-17.1c0-2.1.1-4.2.1-6.3.1-8.1.3-16.5 1.2-24.9 1.7-15.9 13-26 29.6-26.4 6-.1 12.4-.2 19.3-.1a3.7 3.7 0 0 0 3.8-3.7c0-5.5.1-10.9.2-16.1V163a3.1 3.1 0 0 0-2.8-3.1c-17.8-1.7-34.7-3.1-50.6 2.7s-27.3 18.5-30.1 36.7c-1.7 10.6-1.9 21.6-2.1 33.2-.1 4.7-.2 9.6-.4 14.4v.4c-.5 12.4-5.8 17.5-18.4 17.3h-8.5l-14.1-.2a4.1 4.1 0 0 0-4.1 4c0 7.1-.1 14.3-.2 21.7a4.1 4.1 0 0 0 3.9 4.1z"/></symbol><symbol id="reverse-email" viewBox="0 0 576 576"><path d="M288 39.9C151 39.9 39.9 151 39.9 288S151 536.1 288 536.1 536.1 425 536.1 288 425 39.9 288 39.9zm117.7 346c-39.8-.2-237.9-.1-239.3-.5a9.8 9.8 0 0 1-7.5-9.3c-.1-1.4 0-117 0-175 0-6.7 4.2-11 10.9-11l236.3 1.3c6.8 0 11 4.1 11 10.9 0 58.4-.1 113.6 0 172 .1 6.6-4.3 11.6-11.4 11.6z"/><path d="M393.6 222.7l-55.3 46.4c-2.9 2.4-5 6.7-2.6 9.6 18.6 21.7 40.4 46.7 59.1 68.7 2.3 2.6 3.6-1.1 3.6-2.9V225.8c0-1.6-3.6-4.2-4.8-3.1zm-70 68.1c-2.5-2.9-8.3-2.3-11.2.1l-20.2 16.9c-4.6 3.9-7.8 2.3-12.5-1.6L262 291.8c-2.8-2.3-7.7-1-10.2 1.8-19.9 22.7-39.9 45.1-59.8 68-3.1 3.4-1.8 5.5 2.2 5.5h188.2c2.7 0 4.8-1.8 1.4-5.8zm-41.2-5.8a6.8 6.8 0 0 0 8.8.1c27.4-22.9 73-60.4 86.8-71.8a2 2 0 0 0-1.3-3.5l-177.8-.9a1.9 1.9 0 0 0-1.3 3.4c13.5 11.6 58 49.6 84.8 72.7zm-45.3-15.8l-56.3-48.8c-1.3-1.1-3.2 3.1-3.2 4.7v120.2a2 2 0 0 0 3.4 1.3c19-21.6 41.1-46.2 60-67.7 2.5-2.9-1.1-7.2-3.9-9.7z"/></symbol><symbol id="retirement" viewBox="0 0 576 576"><path d="M168.5 221.9c13 44.4 20.6 89.8 25.8 135.7 1.3 11.6 4.6 14.4 16.5 13.4l6.3-.9-13.8 39.3a7.8 7.8 0 0 0 5.4 10.1l5.9 1.3a7.7 7.7 0 0 0 9-4.9l17-48.2c20.3-1.8 50.4-3.6 88.8-3.5a10.5 10.5 0 0 0 .4 1.7l17 48.3a7.8 7.8 0 0 0 9.2 4.9l5.9-1.5a7.7 7.7 0 0 0 5.2-10l-15.2-43.1c12.4.2 25.5.7 39.3 1.4 4.2.3 10-2.6 12.3-5.9 4-6.1-1.2-12.4-10.1-13.1l-52.5-3.4a5.4 5.4 0 0 1-5-5.4v-77.9a4.4 4.4 0 0 1 4.2-4.5c17.4-1.3 24.5 4.4 36 26.9 3.1 5.9 7.4 9.4 13.8 6.2s7.4-8 5-14.6c-9.7-26.4-27.1-39.8-55.4-39.2-24.4.5-48.7 3-73 5.2s-45.8 4.7-69.3 7.2c-3-10.9-5.7-21.3-8.8-31.6-10.3-34.6-22.8-68.1-44.3-97.6-4.2-5.8-9.3-9.8-16.3-5.2s-5.3 11-1.1 16.8c20.3 27.9 32.1 59.5 41.8 92.1zM309 255.5a4.6 4.6 0 0 1 5.1 4.5v76.9a5.4 5.4 0 0 1-5.2 5.4c-21.5.8-86.3 5.2-94.2 6-4.3-26.9-8.5-53.4-13-81 8.8-1 83.4-9.3 107.3-11.8z"/><path d="M457.2 399.6a10.6 10.6 0 0 0-14.7-3.2 304.2 304.2 0 0 1-72.7 34.1c-6.8 2.2-13.7 4-20.6 5.7s-13.7 2.9-20.7 4a306.6 306.6 0 0 1-98.8-1.1l-8.4-1.5c-7.3-1.5-14.2-3.1-20.8-4.9-40.8-10.8-66.8-25.9-67.3-26.2a10.7 10.7 0 0 0-10.9 18.4c1.4.8 28.3 16.5 71.1 28 6.5 1.8 13.5 3.4 20.8 5l11.1 2.1a342.2 342.2 0 0 0 57.6 5 311.7 311.7 0 0 0 48.4-3.7c8.4-1.3 16.7-3 25-4.9s13.8-3.6 20.6-5.8a320.3 320.3 0 0 0 77.1-36.3 10.6 10.6 0 0 0 3.2-14.7z"/></symbol><symbol id="reverse-instagram" viewBox="0 0 576 576"><path d="M177.5 353.9c1.7 12.5 6 23.6 15.7 32.5 7.4 6.7 16.3 9.8 25.4 11.9s15.9 1.5 23.9 1.6c25.8.2 51.7.3 77.5.2 11.7 0 23.4 0 34.9-1.8 16.6-2.4 29.9-10.1 38.1-25.3 6-12.5 6.6-26 6.8-39.4.4-26 .3-51.9.3-77.9-.1-12.7.1-25.5-2.4-38.1-4.1-20.5-16.1-33.6-36.6-38.8-9.1-2.3-18.4-2.6-27.7-2.7q-43.5-.4-87-.1c-10.9.1-21.8.2-32.3 3-16.9 4.5-28.6 14.6-34.1 31.5-3.4 10.4-3.6 21.1-3.9 31.8-.5 15.2-.4 30.5-.5 45.8l.3 38.6a205.8 205.8 0 0 0 1.6 27.2zm183.6-155.7a16.6 16.6 0 1 1 0 33.1 16.3 16.3 0 0 1-16.5-16.5 16.5 16.5 0 0 1 16.5-16.6zm-143.4 84.5c.8-27.9 23.1-55.2 51.4-62.8 30.4-8.1 61.5 3.9 78.4 30.3 10.3 16.3 13.3 34.1 9.2 52.9-1.4 6.7-3.4 13.4-7.4 19.2-11.1 19.7-28 31.8-50.3 35.2-27.8 4.2-50.7-5.5-67.8-27.6-10.6-13.7-14.8-29.8-13.5-47.2z"/><path d="M257.1 321.4c23.3 20.9 57.3 14.2 72-13.8 9.5-20.7 2.9-43.1-12.8-55.1s-31.6-13.6-48.8-5.1c-14.5 7.1-22.5 19.4-25 35.3s3.2 28.5 14.6 38.7z"/><path d="M288 536.1c137 0 248.1-111.1 248.1-248.1S425 39.9 288 39.9 39.9 151 39.9 288 151 536.1 288 536.1zM152.4 220.5c3.4-35.9 28.3-62.2 63.9-67.3 16.9-2.4 33.9-2.4 50.8-2.4 23.3 0 46.5-.1 69.7.4 14.2.3 28.2 2.2 41.6 7.2a53.6 53.6 0 0 1 19 11.4c3.3 3 6.8 5.9 9.7 9.4 11.5 14.4 16.1 31.2 17 49.2 1.7 36.1 1.2 72.3.5 108.5-.2 14.3-1.5 28.5-7.1 41.9-2.8 6.9-6.3 13.4-11.5 18.9-13.4 15.9-31 23.8-51.3 25.7-29.5 2.9-59.2 1.4-88.8 1.5-14.8.1-29.5-.2-44.2-1.5-38.7-3.3-65.8-30.4-69.4-69.1-1.8-19.8-1.4-39.6-1.4-59.4 0-24.8-.8-49.7 1.5-74.4z"/></symbol><symbol id="reverse-contact" viewBox="0 0 576 576"><path d="M275.9 259.5a38.3 38.3 0 0 0 8.3.8h2.9c17.3.1 34-7.7 44.2-21.7a53.4 53.4 0 1 0-55.4 20.8z"/><path d="M288 39.9C151 39.9 39.9 151 39.9 288S151 536.1 288 536.1 536.1 425 536.1 288 425 39.9 288 39.9zm115.2 371.3H172.8v-11.6c0-39.4 9.1-73 26.2-97.1a97.1 97.1 0 0 1 44.6-34.9 74.8 74.8 0 1 1 87.2 1.2 103.6 103.6 0 0 1 43.3 33.4c19 24.7 29.1 58.4 29.1 97.4z"/><path d="M285.4 283.4c-72.7 0-87 66-89.1 104.6h183.4c-4.2-76.9-50.7-104.6-94.3-104.6z"/></symbol><symbol id="reverse-location" viewBox="0 0 576 576"><path d="M297.1 167.9l-4-.4h-10.2l-4.3.5a79.4 79.4 0 0 0-63.8 48.4c-7.4 18.2-7.9 36.6-1.7 56.3 7 21.7 17.3 43.5 33.6 70.7 9.1 15.2 25.7 38.8 36.9 54.5a5.2 5.2 0 0 0 8.6 0c13.9-19.8 37.7-54.5 49.5-76.3a279.7 279.7 0 0 0 19.7-44.5c2.3-6.9 4.2-13 5-19.3 3-23.7-2.8-44-17.6-61.9-13.5-16.1-30.3-25.3-51.7-28zm-9.1 134a55.3 55.3 0 0 1 0-110.6h.1a55.3 55.3 0 0 1-.1 110.6z"/><path d="M288 213.4a33.3 33.3 0 1 0 33.2 33.2 33.3 33.3 0 0 0-33.2-33.2z"/><path d="M288 39.9C151 39.9 39.9 151 39.9 288S151 536.1 288 536.1 536.1 425 536.1 288 425 39.9 288 39.9zm100.3 220.7c-1 8.2-3.4 15.8-5.9 23.5-5 15-12 30.7-21.3 48-15.7 29.1-50.3 77.9-60.6 92.2a15.4 15.4 0 0 1-12.5 6.4 15.6 15.6 0 0 1-12.6-6.4c-7.9-10.8-34.7-47.9-47.6-69.5-17.2-28.8-28.2-52-35.7-75.4s-7.1-48.4 2.2-71.3a100.6 100.6 0 0 1 81.8-62.1l4.6-.5 2.5-.2h12.1l4.6.5c26.8 3.4 48.9 15.4 65.9 35.8 18.7 22.7 26.3 49.3 22.5 79z"/></symbol><symbol id="reverse-purchase" viewBox="0 0 576 576"><path d="M386.4 227.4H213a3.7 3.7 0 0 0-3.5 4.6c4.4 17.7 15.5 62.2 18.3 73.7a3.8 3.8 0 0 0 3.6 2.7h136.7a3.7 3.7 0 0 0 3.5-2.8c6.1-24.6 12.3-49.1 18.4-73.7a3.8 3.8 0 0 0-3.6-4.5z"/><path d="M288 39.9C151 39.9 39.9 151 39.9 288S151 536.1 288 536.1 536.1 425 536.1 288 425 39.9 288 39.9zm-26.7 375.6a17.1 17.1 0 0 1 0-34.2 17.1 17.1 0 1 1 0 34.2zm76.3 0a16.8 16.8 0 0 1-17-17.1 17 17 0 0 1 17.1-17.1 17.1 17.1 0 1 1-.1 34.2zm76.1-187.1l-21.6 87c-2.8 11-8.3 15.3-19.7 15.3H237.8c-1.4 0-2.4 5.1-1.8 6.4a19.5 19.5 0 0 0 1.4 2.9c3.2 5.6 7 8 13.2 8h112.5a11.1 11.1 0 0 1 0 22.2H250.6c-14.2 0-25.4-6.7-32.6-19.3-5-9-30.1-118.2-36.7-139.6-1.2-3.8-1.8-12.2-12.1-12.5h-28.9a11.1 11.1 0 1 1 0-22.2h34.3c9.6 0 17.5 4.7 21.6 12.8 1.5 3.1 2.8 6.3 4.2 9.8a9.5 9.5 0 0 0 8.9 6.1h186.4c2.6 0 10.7 0 15.7 6.4s3 14.1 2.3 16.7z"/></symbol><symbol id="reverse-phone" viewBox="0 0 576 576"><path d="M288 39.9C151 39.9 39.9 151 39.9 288S151 536.1 288 536.1 536.1 425 536.1 288 425 39.9 288 39.9zm135.9 344.4a64.3 64.3 0 0 1-6.4 6.4l-1.6 1.5-4.4 4-3.6 3.3a91.1 91.1 0 0 1-16.9 12.2 94.9 94.9 0 0 1-26.2 9.8 98.2 98.2 0 0 1-19.1 1.9h-.2a110.4 110.4 0 0 1-38.1-6.9c-13.7-5-27.1-12.4-40.9-22.5a267.1 267.1 0 0 1-22.7-18.9c-7.8-7.3-15.6-15.4-23.6-24.5s-14-16.6-20-24.8a283.3 283.3 0 0 1-16.9-25.8 187.7 187.7 0 0 1-15.9-36.2 124.6 124.6 0 0 1-4.8-21.7 107.9 107.9 0 0 1-.7-21.1 96.6 96.6 0 0 1 7.4-32 92.5 92.5 0 0 1 14.8-23.7 96.2 96.2 0 0 1 13.8-13c1.7-1.3 3.3-2.8 5-4.3l3.2-2.9c3.4-2.9 8.9-7 16.4-8.3a26.6 26.6 0 0 1 17.9 3.4c6.2 3.4 10.6 8.3 13.8 12.1a159.7 159.7 0 0 1 10.7 15.5c.8 1.4 1.7 2.7 2.5 4a125.4 125.4 0 0 1 8.4 14.5 60.9 60.9 0 0 1 5.4 16.9c1.6 11.4-1.5 21.5-8.9 29.4a73.6 73.6 0 0 1-6.5 6.1l-3.4 3.1a55.8 55.8 0 0 1-7.7 6l-3.2 2.4c-2.7 2.1-3.4 3.8-3.7 5a13.6 13.6 0 0 0 0 5.7c.7 4.1 2.4 8.3 5.5 13.8s8.4 13.3 15.2 21.6a230.2 230.2 0 0 0 18.9 20.5c4.9 4.7 10.9 9.9 17.9 13.6 3.6 2 6.5 2.9 9.2 2.9a7.5 7.5 0 0 0 5.1-1.9 31.8 31.8 0 0 0 2.7-2.6l2.3-2.3.3-.3c2-1.9 4.1-3.9 6.3-5.8l.5-.4c2.7-2.4 5.5-4.9 8.6-7.2A32.8 32.8 0 0 1 358 306a38.9 38.9 0 0 1 17.6 2.7 68.8 68.8 0 0 1 17.7 10.5c5 4.1 10.2 8.5 15.9 13.4 3.1 2.8 6.4 5.9 9.5 9.2a43.5 43.5 0 0 1 9.9 15.4 26.3 26.3 0 0 1-4.7 27.1z"/><path d="M403.2 356.7c-2.8-2.8-5.5-5.5-8.3-7.9-5.4-4.7-10.4-9-15.2-12.9a46.2 46.2 0 0 0-11.9-7.1 18.1 18.1 0 0 0-7.9-1.4 14 14 0 0 0-6.6 2.5c-2.5 1.9-4.9 4-7.4 6.3l-.5.4c-1.9 1.6-3.7 3.4-5.6 5.2l-.3.3a15.3 15.3 0 0 0-1.8 1.8 55 55 0 0 1-4.2 4 28.9 28.9 0 0 1-19.2 6.9c-6.3 0-12.3-1.7-19.1-5.3-9.4-5-17-11.7-22.6-17a246.4 246.4 0 0 1-20.7-22.5c-7.7-9.3-13.1-17-17.4-24.8s-6.7-13.9-7.9-20.5a33.9 33.9 0 0 1 .3-14.9 30.3 30.3 0 0 1 11.4-16.6l4-2.9a51.8 51.8 0 0 0 5.3-4.1c1.3-1.3 2.6-2.4 4-3.6s3.5-3.2 5-4.8c2.9-3.1 3.9-6.7 3.3-11.6a39 39 0 0 0-3.6-10.6 103 103 0 0 0-7-12.1l-2.6-4.2a124.3 124.3 0 0 0-9.2-13.3c-2.9-3.6-5.2-5.7-7.6-7a6 6 0 0 0-3.1-1h-.7c-1.7.3-3.6 1.3-5.9 3.4l-2.8 2.5c-2 1.7-4 3.6-6.3 5.3a69.6 69.6 0 0 0-10.7 10.1 68 68 0 0 0-11.3 18.1 75 75 0 0 0-5.8 24.9 88.9 88.9 0 0 0 .7 16.9 101.7 101.7 0 0 0 4 18.1 159.1 159.1 0 0 0 14.1 31.9 236.9 236.9 0 0 0 15.4 23.8c5.7 7.7 11.9 15.4 18.9 23.3a289.2 289.2 0 0 0 22.1 23 208.5 208.5 0 0 0 20.7 17.3 143.4 143.4 0 0 0 35.5 19.6 91 91 0 0 0 30.8 5.7 77.5 77.5 0 0 0 14.9-1.5 69.4 69.4 0 0 0 20.1-7.5 71.3 71.3 0 0 0 12.7-9.2l4-3.6 4-3.7 1.8-1.6a45.3 45.3 0 0 0 4.4-4.3c1.6-2 1.9-3.5 1-5.9a25 25 0 0 0-5.2-7.9z"/></symbol><symbol id="reverse-home" viewBox="0 0 576 576"><path d="M293.4 157.5a9.1 9.1 0 0 0-12.8 0L169.5 269.3a9 9 0 0 0-2.6 6.4v104.2a9 9 0 0 0 9 9.1h56.7a9.7 9.7 0 0 0 9.7-9.7v-66.8a30.5 30.5 0 0 1 30.4-30.4h30.6a30.5 30.5 0 0 1 30.4 30.4v66.8a9.7 9.7 0 0 0 9.7 9.7h56.7a9 9 0 0 0 9-9.1V275.8a8.9 8.9 0 0 0-2.7-6.4z"/><path d="M288 39.9C151 39.9 39.9 151 39.9 288S151 536.1 288 536.1 536.1 425 536.1 288 425 39.9 288 39.9zm142.5 340a30.5 30.5 0 0 1-30.4 30.4h-56.7a31 31 0 0 1-31.1-31v-66.8a9 9 0 0 0-9-9h-30.6a9 9 0 0 0-9 9v66.8a31 31 0 0 1-31.1 31h-56.7a30.5 30.5 0 0 1-30.4-30.4V275.7a30.1 30.1 0 0 1 8.9-21.4l111.1-111.8a30.4 30.4 0 0 1 43-.2l113 111.9a30.5 30.5 0 0 1 9 21.6z"/></symbol><symbol id="twitter" viewBox="0 0 576 576"><path d="M468.2 180.8c-2.8-2.9-7.5-4.2-13.2-3.5l-2.4.4a58.3 58.3 0 0 1-8.1.8c.9-1.3 2-2.6 3-4a49.7 49.7 0 0 0 6.8-10.1c2.4-5.7 1.2-11.3-3.2-15.1s-9-3-14.4-1.2l-9 3.4a110.8 110.8 0 0 1-14.3 4.6c-1.3.3-1.4.2-2.2-.5-24.2-21.5-61-26.7-89.6-12.7-32 15.8-48.3 41.8-48.3 77.3v.6l-2.4-.4c-5.3-.9-10.4-1.8-15.4-2.9a185 185 0 0 1-87-46.5c-4.4-4.1-8.5-8.7-12.6-13.1l-4.6-5.2a13.6 13.6 0 0 0-11.5-4.5 12.3 12.3 0 0 0-9.3 6.5c-12.3 22-14.4 45.1-6.5 68.7 1.4 3.9 3.1 7.6 4.8 11.2a12.1 12.1 0 0 0-10 13.3c.4 19.2 6.3 36.2 17.7 50.5a105.7 105.7 0 0 0 9.5 10.4l.9.9c-3.5 3.6-4.1 8.2-1.9 14.2 8.3 22.4 23.3 38.7 44.9 48.5-3.5 1.6-7 3.1-10.5 4.4a130.1 130.1 0 0 1-59.2 7.3c-7.2-.8-11.2 1.4-14.7 8.1l-.5 1v7.6l1.2 1.2 1.2 1.4a16.4 16.4 0 0 0 4.2 4.1 209.8 209.8 0 0 0 100.1 32.9c4.9.3 9.9.5 14.9.5a225.2 225.2 0 0 0 44.7-4.5c46.8-9.6 85.9-32.6 116.2-68.2 34.7-40.7 52.4-89 52.7-143.4a2 2 0 0 1 .9-2l4.2-3.3c9.2-7.2 15.2-11.9 23-23.5a13.9 13.9 0 0 0 2.6-6.1c.6-4.6-1.1-7.5-2.7-9.1zm-36.1 21.7l-3 1.8c-5.9 3.6-12.7 9.2-12.6 19.6.2 54.1-20.1 101.6-60.3 141-26.1 25.6-58.7 41.8-96.8 48.1a192.2 192.2 0 0 1-53.8 1.7 187.8 187.8 0 0 1-38.2-8.3 154.5 154.5 0 0 0 61.3-28.4c6.8-5.1 6.8-10.7 5.6-14.5s-4.5-8.5-12.9-9c-18.6-1-33.1-8.6-44.3-23.2 4.1-.6 8.3-1.3 12.4-2.1 7.2-1.4 11.3-6.1 11.1-12.7 0-4.4-2-10-10.9-12.3-21.7-5.5-35.7-18.3-42.7-39l1.5.3c4.4.7 9 1.5 13.6 2a12.4 12.4 0 0 0 13.3-8.8c1.6-5.3-.5-10.6-5.6-14.3-18-12.9-26.2-30.2-25.2-52.8a74.4 74.4 0 0 1 1.2-7.6l.4.4c4.2 4 8.2 7.7 12.4 11.4a213.7 213.7 0 0 0 128.7 51.3 11.9 11.9 0 0 0 9.1-3.5 12.7 12.7 0 0 0 3.5-9.8 47.6 47.6 0 0 0-.7-5.6 40.3 40.3 0 0 1-.6-4.7c-1.9-22.9 7.1-41 26.5-53.9 22.9-15.3 51.1-13.5 70.2 4.4l.3.2a23.9 23.9 0 0 0 19.1 4.6 49.1 49.1 0 0 0 9.2-4.2c3.5-2 7.7-4.3 10.3-4.3h.2c-1.5 2.8-6.1 7.7-13.6 14.5-4.3 3.9-5.8 5.2-5.1 8l.5 1.9 1.6.9c1.8 1.2 3.2.8 8-.4 13-3.2 18.6-3.2 21-2.5-1.9 1.8-6 4.9-14.7 9.8z"/></symbol><symbol id="reverse-twitter" viewBox="0 0 576 576"><path d="M288 39.9C151 39.9 39.9 151 39.9 288S151 536.1 288 536.1 536.1 425 536.1 288 425 39.9 288 39.9zm165.4 171.8a13.3 13.3 0 0 1-2.2 5.2c-6.7 9.9-11.9 14-19.8 20.2l-3.6 2.8c-.7.5-.8.7-.8 1.7-.3 46.9-15.5 88.4-45.3 123.4-26.1 30.7-59.8 50.4-100 58.7a193.4 193.4 0 0 1-38.5 3.9c-4.3 0-8.6-.1-12.8-.4a181.8 181.8 0 0 1-86.1-28.3 17.9 17.9 0 0 1-3.7-3.5 6.3 6.3 0 0 0-1-1.2l-1-1.1v-6.6l.4-.8c3-5.7 6.5-7.6 12.7-7a109.6 109.6 0 0 0 50.9-6.3c3-1.1 6.1-2.4 9-3.7-18.5-8.4-31.5-22.5-38.6-41.7-1.9-5.2-1.4-9.2 1.6-12.3a4.6 4.6 0 0 0-.7-.7 116.7 116.7 0 0 1-8.2-9c-9.8-12.3-14.9-26.9-15.3-43.4 0-4 1.4-7.4 4.1-9.5a10.8 10.8 0 0 1 4.5-2 93.7 93.7 0 0 1-4-9.7c-6.9-20.2-5-40.1 5.5-59.1a10.8 10.8 0 0 1 8-5.5 11.5 11.5 0 0 1 9.9 3.9l4 4.4c3.5 3.8 7 7.7 10.8 11.3a160.4 160.4 0 0 0 74.9 40l13.2 2.5 2.1.3v-.5c0-30.5 14-52.9 41.6-66.5 24.5-12.1 56.2-7.6 77 10.9.7.7.8.7 1.9.4a82.6 82.6 0 0 0 12.4-4l7.7-2.8c4.6-1.6 8.3-2.5 12.4 1s4.8 8.1 2.7 13a38.8 38.8 0 0 1-5.8 8.7l-2.6 3.4a44.7 44.7 0 0 0 7-.7l2.1-.3c4.8-.6 8.8.5 11.3 3a8.8 8.8 0 0 1 2.3 7.9z"/><path d="M414.6 216.2c-4.1 1-5.3 1.3-6.9.4l-1.4-.9-.4-1.6c-.6-2.4.7-3.5 4.4-6.9 6.5-5.8 10.4-10 11.7-12.4h-.1c-2.3 0-5.9 2-9 3.6a32.9 32.9 0 0 1-7.9 3.7c-3.4.9-10.6.6-16.4-3.9l-.2-.3c-16.4-15.3-40.7-16.9-60.5-3.8-16.7 11.1-24.3 26.8-22.8 46.5.1 1.3.4 2.6.6 4s.5 3.1.6 4.8a11.2 11.2 0 0 1-3 8.4 10.5 10.5 0 0 1-7.8 3.1 183.8 183.8 0 0 1-39.8-6.5 182.3 182.3 0 0 1-71-37.7c-3.6-3.2-7-6.4-10.6-9.8l-.4-.3a38 38 0 0 0-1 6.5c-.9 19.5 6.1 34.3 21.6 45.4 4.4 3.2 6.2 7.8 4.9 12.3a10.8 10.8 0 0 1-11.5 7.6c-4-.4-7.9-1.1-11.7-1.7l-1.3-.3c6.1 17.9 18.1 28.9 36.8 33.6 7.6 1.9 9.3 6.8 9.4 10.5.1 5.8-3.4 9.8-9.6 11l-10.7 1.8c9.6 12.5 22.1 19.1 38.1 19.9 7.3.5 10 4.5 11.1 7.8s1.1 8.1-4.8 12.5a132.1 132.1 0 0 1-52.7 24.4 164.2 164.2 0 0 0 32.9 7.2 168.1 168.1 0 0 0 46.2-1.5c32.8-5.4 60.8-19.3 83.3-41.4 34.6-33.9 52-74.7 51.9-121.3-.1-9 5.8-13.7 10.9-16.9l2.6-1.5c7.4-4.2 11-6.9 12.6-8.5-2.1-.6-6.9-.5-18.1 2.2z"/></symbol><symbol id="travel" viewBox="0 0 576 576"><path d="M283.9 455a8.8 8.8 0 0 1-2.2-.3 9.3 9.3 0 0 1-7.1-10.1c2.8-27.2 5.7-54.9 8.6-81.6l2.7-25.8c1.4-12.7 2.7-25.3 4-38-24.1 11.8-47 20.6-69.9 26.7-19 5.1-39.5 9.9-60.7 11.3a112.4 112.4 0 0 1-11.9.2 36.7 36.7 0 0 1-24.3-9.9c-17.7-16.3-35.9-34.8-55.5-56.6-3.4-3.7-6.6-7.4-10.1-11.3-1.5-1.7-3.1-3.4-4.6-5.2l-6.8-7.6 8.2-6 .3-.2a8.9 8.9 0 0 1 2.8-1.8l3.6-1.6c4.4-2 8.9-4.1 13.5-5.9a15.8 15.8 0 0 1 10.9-.6c27.2 8.7 53.9 17.3 79.4 25.7h.3a.1.1 0 0 0 .1-.1L322.6 181l41.6-19.9 23.7-11.3 41.5-19.9c14.4-6.9 30.4-9.7 50.3-8.7 8.5.4 19.5 1.5 29.9 6.7a45.3 45.3 0 0 1 13.9 10.5c7.5 9 8.5 20.4 2.6 32-6.7 13.5-17.7 24-32.7 31.2-25.9 12.6-52.3 25.2-77.9 37.3l-9.8 4.7c-17.1 47.7-34.5 96-51.3 142.8l-8.6 23.9c-.8 2.1-1.5 4.2-2.2 6.2-1.8 5-3.6 10.2-5.6 15.2s-4.8 8-27.9 16.2c-16.7 6-23.2 7.1-26.2 7.1zm25.9-185.9v14.6c0 .4.1.7.1.9a17.7 17.7 0 0 1-.1 2.2c-1.8 17.5-3.7 34.9-5.5 52.4l-2.8 25.7c-2.4 22.6-4.8 45.8-7.2 68.9 9.7-3.1 22.9-8 27.3-10.7 1.6-4.1 3-8.3 4.6-12.7l2.2-6.3 8.6-23.9c16.9-47 34.4-95.6 51.5-143.5a16.3 16.3 0 0 1 8.7-9.5l10.4-4.9c25.5-12.2 51.9-24.7 77.8-37.3 11.3-5.5 19.3-13 24.2-22.8 3.2-6.4 1.7-9.6-.3-11.9a26.7 26.7 0 0 0-7.9-5.9c-7.3-3.6-15.9-4.5-22.6-4.8-16.7-.8-29.9 1.4-41.5 7l-41.4 19.8-23.8 11.4-41.5 19.9-157.4 75.4a18.4 18.4 0 0 1-14.2.9c-25.1-8.3-51.4-16.8-78.1-25.4l-6.1 2.6c2.1 2.5 4.3 4.9 6.5 7.3 19.2 21.4 37 39.5 54.3 55.4a17.7 17.7 0 0 0 12.3 5c4 .1 7.3.1 10.2-.1 19.6-1.3 39-5.9 57.1-10.8 23.7-6.3 47.6-15.7 73.1-28.6 1.8-1 3.7-1.8 5.6-2.7l2.8-1.3zm12.6 153.4zm-157.2-166zm-83.7-8.2z"/><path d="M219.6 212.7a15.2 15.2 0 0 1-8.7-2.8l-50.4-32.5-15-9.7-.4-.3-2.2-1.4c-4.2-3.1-6.5-7.6-6.1-12.4s3.3-9 8.1-11.5c2.8-1.5 5.8-2.9 8.6-4.3 5-2.4 9.7-4.6 14.2-7.2a39 39 0 0 1 22.7-4.9 28.2 28.2 0 0 1 6.1 1.2l93.4 31.8 3 1 2 .8 1.3.5 19.5 7.8-19 9.1-3.7 1.8-7.2 3.5-17.2 8-42.1 19.8a15.9 15.9 0 0 1-6.9 1.7zm-59.5-57.5c3.5 2.2 7 4.4 10.4 6.7l49.4 31.8 40.9-19.2 7.7-3.6-78-26.5a3.9 3.9 0 0 0-1.6-.3 20.4 20.4 0 0 0-12.1 2.5c-5 2.9-10.2 5.4-15.2 7.9z"/></symbol><symbol id="vehicle" viewBox="0 0 576 576"><path d="M486.9 246.8c-22.4-3.9-44.7-7.6-67.1-11.1-7.8-1.2-13.4-4.4-18.1-11.1-11.7-16.5-24.2-32.4-36.4-48.5-9.8-13.1-22.8-19.7-39.3-19.6H194.9c-18.7 0-32.6 8.2-42.3 23.9-6.1 9.6-13.3 18.7-17.8 29-8.6 19.9-23.2 27.4-44.2 29-24.4 1.8-41.2 21.2-42.1 45.7-.7 21.3-.6 42.6 0 63.9.4 16.8 12.7 28.2 29.6 28.7 5 .1 10 0 14.7 0v-19.3c-25.3 1.3-25.3.5-25.3-26.4 0-14.9-.1-29.8 0-44.7s8.5-26.7 23.9-29.2 33.1-5.3 49.6-5.4c83.5-.5 167-1.6 250.5.5 32.6.8 65.2 8.9 97.6 14.7 11.8 2.1 19.4 13.8 19.6 26.2.3 16.7.2 33.4.1 50.1-.1 12.2-2.1 14.2-14.2 14.3h-14.4v19.1c15.9 1.1 31.7 1.2 41.4-11a29.6 29.6 0 0 0 6.4-18.7v-50.5a51.6 51.6 0 0 0-11.3-32.7c-7.2-8.7-16.8-14.7-29.8-16.9zm-237.4-14.4H142.4c10.3-16.3 19.1-31.7 29.6-45.7 4-5.4 12-10.3 18.5-10.7 19.3-1.4 38.8-.5 59-.5zm19.9.5v-58.2h24.8c9.9 0 20.1-1.2 29.7.4s18.3 4.1 23.6 9.8c13 14.3 23.9 30.7 36.9 48z"/><path d="M156.6 419.5a48.8 48.8 0 1 1 48.8-48.8 48.9 48.9 0 0 1-48.8 48.8zm0-79.8a31.1 31.1 0 1 0 31 31 31 31 0 0 0-31-31zm261.9 79.8a48.8 48.8 0 1 1 48.8-48.8 48.9 48.9 0 0 1-48.8 48.8zm0-79.8a31.1 31.1 0 1 0 31 31 31 31 0 0 0-31-31zm-199 16.8h134.8v17.73H219.5z"/></symbol><symbol id="wedding" viewBox="0 0 576 576"><path d="M328.2 229.4a152.4 152.4 0 0 0-242.6-36.8 152.4 152.4 0 0 0 107.7 260.1 154.6 154.6 0 0 0 31.3-3.2 128.8 128.8 0 0 0 91.2 37.7c71.2 0 129.2-58 129.2-129.2 0-67-51.4-122.3-116.8-128.6zm-1 70.9a134 134 0 0 1-96.4 128.6A110.1 110.1 0 0 1 205 358c0-61 49.7-110.7 110.8-110.7h.5a134 134 0 0 1 10.9 53zM98.7 395A133.9 133.9 0 0 1 288 205.7a139.2 139.2 0 0 1 18.7 23.4c-67 4.7-120.2 60.7-120.2 128.9a129.1 129.1 0 0 0 24.1 75.1 141 141 0 0 1-17.3 1.1A133.3 133.3 0 0 1 98.7 395zm217.1 73.7a110.6 110.6 0 0 1-70.3-25.2 152.6 152.6 0 0 0 100.2-143.2 153.5 153.5 0 0 0-8.7-51c50.9 10 89.5 54.9 89.5 108.7a110.9 110.9 0 0 1-110.7 110.7z"/><path d="M358.3 226.3l52.3 27.8 50.3-31.4-2-59.3-52.4-27.8-50.3 31.4zm48.9-69.3l33.6 17.8 1.3 37.9-32.2 20.1-33.5-17.8-1.3-37.9zm118.5 28.6h-44.4a9.3 9.3 0 0 0 0 18.5h44.4a9.3 9.3 0 1 0 0-18.5zm-84.8-44.5a10 10 0 0 0 4.7 1.2 9.1 9.1 0 0 0 8-4.6l20.3-35a9.3 9.3 0 0 0-3.3-12.7 9.4 9.4 0 0 0-12.7 3.4l-20.3 35a9.3 9.3 0 0 0 3.3 12.7zm-81 .4a9.2 9.2 0 0 0 8 4.5 9 9 0 0 0 4.7-1.3 9.1 9.1 0 0 0 3.2-12.6L353 93.4a9.2 9.2 0 0 0-15.9 9.3zm-37.1 62.6H337a9.3 9.3 0 1 0 0-18.5h-14.2a9.3 9.3 0 0 0 0 18.5zM455.5 249a9.3 9.3 0 0 0-16.1 9.2l18.5 32.5a9.2 9.2 0 0 0 12.6 3.5 9.3 9.3 0 0 0 3.5-12.6z"/></symbol></svg>