<?xml version="1.0" encoding="utf-8"?>
<!-- Generator: Adobe Illustrator 23.0.1, SVG Export Plug-In . SVG Version: 6.00 Build 0)  -->
<svg version="1.1" id="Layer_1" xmlns="http://www.w3.org/2000/svg" xmlns:xlink="http://www.w3.org/1999/xlink" x="0px" y="0px"
	 viewBox="0 0 645.81 423.77" style="enable-background:new 0 0 645.81 423.77;" xml:space="preserve">
<style type="text/css">
	.st0{fill:#C1E237;}
	.st1{fill:#EEC823;}
	.st2{fill:#629CC8;}
	.st3{fill:#F7EA9D;}
	.st4{fill:#72BD23;}
	.st5{fill:#F7934C;}
	.st6{fill:#333333;}
	.st7{opacity:0.75;}
	.st8{fill:#FFD712;}
	.st9{fill:#333333;stroke:#333333;stroke-width:0.75;stroke-miterlimit:10;}
	.st10{opacity:0.75;fill:#FFFFFF;}
	.st11{fill:#FAF8EE;stroke:#E5E5E5;stroke-width:1.274;stroke-miterlimit:10;}
	.st12{fill:#F2F2F2;}
	.st13{fill:#FAF8EE;stroke:#E5E5E5;stroke-width:2.6924;stroke-miterlimit:10;}
	.st14{fill:#F8491A;}
	.st15{fill:#FFFFFF;}
	.st16{opacity:0.7;}
	.st17{fill:url(#SVGID_1_);}
	.st18{fill:url(#SVGID_2_);}
	.st19{fill:url(#SVGID_3_);}
	.st20{fill:url(#SVGID_4_);}
	.st21{fill:url(#SVGID_5_);}
	.st22{fill:url(#SVGID_6_);}
	.st23{fill:url(#SVGID_7_);}
	.st24{fill:url(#SVGID_8_);}
	.st25{fill:url(#SVGID_9_);}
	.st26{fill:url(#SVGID_10_);}
	.st27{fill:url(#SVGID_11_);}
	.st28{fill:url(#SVGID_12_);}
	.st29{fill:url(#SVGID_13_);}
	.st30{fill:url(#SVGID_14_);}
	.st31{fill:url(#SVGID_15_);}
	.st32{fill:url(#SVGID_16_);}
	.st33{fill:url(#SVGID_17_);}
	.st34{fill:url(#SVGID_18_);}
	.st35{fill:url(#SVGID_19_);}
	.st36{fill:url(#SVGID_20_);}
	.st37{fill:url(#SVGID_21_);}
	.st38{fill:url(#SVGID_22_);}
	.st39{fill:url(#SVGID_23_);}
	.st40{fill:url(#SVGID_24_);}
	.st41{fill:url(#SVGID_25_);}
	.st42{fill:url(#SVGID_26_);}
	.st43{fill:url(#SVGID_27_);}
	.st44{fill:url(#SVGID_28_);}
	.st45{fill:url(#SVGID_29_);}
	.st46{opacity:0.7;fill:url(#SVGID_30_);}
	.st47{fill:#41B695;}
	.st48{fill:#A2E7B1;}
	.st49{fill:#FF8B00;}
</style>
<g class="st16">
	<g>
		<linearGradient id="SVGID_1_" gradientUnits="userSpaceOnUse" x1="202.192" y1="60.5182" x2="336.5231" y2="60.5182">
			<stop  offset="0" style="stop-color:#A2E7B1"/>
			<stop  offset="1" style="stop-color:#C1E237"/>
		</linearGradient>
		<path class="st17" d="M268.83,108.03c-0.47,0-0.87-0.1-1.19-0.23c-0.99-0.41-1.69-1.31-1.92-2.47c-0.15-0.77-0.18-1.59-0.1-2.45
			c0.78-7.48,1.58-14.95,2.37-22.43l0.78-7.39c0.37-3.52,0.74-7.04,1.12-10.57c-6.69,3.28-13.07,5.72-19.43,7.42
			c-5.27,1.41-10.96,2.77-16.83,3.15c-0.99,0.06-2.04,0.08-3.31,0.04c-2.57-0.07-4.84-0.99-6.74-2.75
			c-4.92-4.53-9.96-9.66-15.42-15.71c-0.93-1.03-1.85-2.07-2.78-3.12l-3.18-3.58l2.29-1.66c0.23-0.18,0.47-0.38,0.84-0.54l1.04-0.47
			c1.24-0.56,2.48-1.12,3.73-1.64c0.97-0.4,2.11-0.46,3.04-0.16c7.51,2.41,14.92,4.81,22.03,7.15c0.04,0.01,0.08,0.03,0.12,0.03
			c14.66-7.07,29.34-14.09,44.01-21.12l17.75-8.51c3.85-1.85,7.7-3.7,11.56-5.53c4.02-1.91,8.46-2.68,13.97-2.42
			c2.35,0.11,5.42,0.42,8.31,1.87c1.09,0.54,2.64,1.49,3.84,2.92c2.1,2.5,2.36,5.66,0.74,8.89c-1.87,3.73-4.93,6.65-9.09,8.66
			c-7.18,3.49-14.51,6.97-21.59,10.34l-2.77,1.32c-4.89,13.64-9.79,27.27-14.69,40.89l-1.94,5.39c-0.21,0.57-0.41,1.15-0.61,1.72
			c-0.49,1.38-0.99,2.81-1.55,4.22c-0.92,2.31-2.73,3.95-5.08,4.6c-2.29,0.64-4.57,1.73-6.97,3.34
			C270.29,107.82,269.49,108.03,268.83,108.03z M275.43,54.13l0,4.29c0.01,0.28,0,0.46-0.02,0.64c-0.51,4.83-1.02,9.67-1.53,14.51
			l-0.79,7.4c-0.72,6.8-1.44,13.59-2.16,20.39c1.98-1.09,3.9-1.89,5.86-2.43c0.82-0.23,1.35-0.72,1.69-1.56
			c0.52-1.31,0.98-2.62,1.47-4.02c0.21-0.59,0.41-1.17,0.62-1.76l1.94-5.39c4.92-13.69,9.84-27.38,14.75-41.07
			c0.44-1.22,1.22-2.08,2.4-2.64l2.93-1.39c7.08-3.37,14.39-6.84,21.56-10.32c3.16-1.53,5.37-3.61,6.74-6.35
			c0.88-1.76,0.45-2.65-0.09-3.29c-0.49-0.59-1.28-1.17-2.2-1.63c-2.04-1.02-4.42-1.25-6.27-1.33c-4.64-0.22-8.3,0.39-11.53,1.93
			c-3.85,1.83-7.7,3.68-11.54,5.53l-17.76,8.51c-14.68,7.02-29.35,14.05-44.02,21.09c-1.28,0.61-2.56,0.69-3.92,0.24
			c-7.01-2.3-14.31-4.67-21.7-7.04c-0.57,0.24-1.14,0.48-1.7,0.73c0.6,0.68,1.2,1.35,1.81,2.02c5.35,5.93,10.29,10.96,15.08,15.37
			c1.01,0.93,2.06,1.36,3.41,1.4c1.11,0.03,2.01,0.02,2.84-0.04c5.43-0.35,10.82-1.64,15.84-2.99c6.59-1.76,13.23-4.37,20.29-7.96
			c0.5-0.25,1-0.49,1.55-0.74L275.43,54.13z"/>
	</g>
	<g>
		<linearGradient id="SVGID_2_" gradientUnits="userSpaceOnUse" x1="227.3623" y1="26.376" x2="277.0424" y2="26.376">
			<stop  offset="0" style="stop-color:#A2E7B1"/>
			<stop  offset="1" style="stop-color:#C1E237"/>
		</linearGradient>
		<path class="st18" d="M250.36,38.47c-0.82,0-1.63-0.26-2.41-0.77c-4.67-3.04-9.36-6.07-14.05-9.09l-4.21-2.71
			c-0.2-0.13-0.41-0.26-0.6-0.4c-1.19-0.86-1.82-2.12-1.71-3.45c0.1-1.34,0.92-2.5,2.25-3.18c0.8-0.41,1.6-0.8,2.41-1.19
			c1.38-0.67,2.68-1.3,3.93-2.01c1.91-1.09,3.97-1.53,6.3-1.35c0.46,0.04,1.06,0.11,1.7,0.32c8.92,3.03,17.84,6.08,26.76,9.12
			c0.16,0.05,0.31,0.11,0.54,0.21l5.79,2.31l-6.28,3.03c-0.71,0.34-1.36,0.66-2.01,0.96l-4.65,2.18c-3.94,1.84-7.88,3.69-11.81,5.55
			C251.64,38.31,250.99,38.47,250.36,38.47z M233.86,22.49l2.81,1.81c4.59,2.96,9.19,5.92,13.77,8.9c3.84-1.82,7.67-3.61,11.49-5.4
			l2-0.94c-7.21-2.46-14.42-4.92-21.63-7.37c-0.03-0.01-0.14-0.04-0.46-0.07c-1.29-0.1-2.33,0.11-3.35,0.69
			c-1.4,0.8-2.84,1.49-4.23,2.17C234.13,22.36,234,22.43,233.86,22.49z"/>
	</g>
</g>
<g class="st16">
	<g>
		<linearGradient id="SVGID_3_" gradientUnits="userSpaceOnUse" x1="252.2479" y1="322.3597" x2="333.3495" y2="322.3597">
			<stop  offset="0" style="stop-color:#A2E7B1"/>
			<stop  offset="1" style="stop-color:#C1E237"/>
		</linearGradient>
		<path class="st19" d="M262.44,362.28l-10.11-38.54c-0.36-1.37,0.46-2.77,1.83-3.13c1.37-0.36,2.77,0.46,3.13,1.83l8.81,33.58
			l60.99-16l-14.26-54.38c-0.36-1.37,0.46-2.77,1.83-3.13c1.37-0.36,2.77,0.46,3.13,1.83l15.56,59.34L262.44,362.28z"/>
	</g>
	<g>
		<linearGradient id="SVGID_4_" gradientUnits="userSpaceOnUse" x1="235.7419" y1="292.4125" x2="334.1376" y2="292.4125">
			<stop  offset="0" style="stop-color:#A2E7B1"/>
			<stop  offset="1" style="stop-color:#C1E237"/>
		</linearGradient>
		<path class="st20" d="M238.3,318.38c-0.57,0-1.14-0.19-1.62-0.58c-1.1-0.89-1.26-2.51-0.37-3.61l38.88-47.76l57.32,22.53
			c1.32,0.52,1.97,2.01,1.45,3.32c-0.52,1.32-2,1.97-3.32,1.45l-53.83-21.16l-36.51,44.86C239.79,318.06,239.05,318.38,238.3,318.38
			z"/>
	</g>
</g>
<g class="st16">
	<g>
		<linearGradient id="SVGID_5_" gradientUnits="userSpaceOnUse" x1="507.1889" y1="158.4303" x2="645.8051" y2="158.4303">
			<stop  offset="0" style="stop-color:#FF8B00"/>
			<stop  offset="1" style="stop-color:#FFD712"/>
		</linearGradient>
		<path class="st21" d="M625.27,128.18c-6.5,0.9-12.99,1.82-19.47,2.83c-2.25,0.35-4.07-0.04-5.95-1.47
			c-4.66-3.53-9.5-6.82-14.27-10.2c-3.86-2.72-8.01-3.4-12.56-1.94c-12.03,3.87-24.06,7.69-36.11,11.49
			c-5.16,1.63-8.26,5.12-9.58,10.29c-0.81,3.18-2.02,6.32-2.34,9.55c-0.62,6.24-3.99,9.59-9.65,11.86
			c-6.55,2.63-9.5,9.45-7.58,16.29c1.66,5.93,3.57,11.8,5.59,17.62c1.6,4.59,5.97,6.63,10.67,5.29c1.39-0.4,2.76-0.85,4.07-1.28
			l-1.69-5.32c-6.87,2.58-6.94,2.36-9.3-5.04c-1.31-4.11-2.64-8.21-3.92-12.34c-1.34-4.35,0-8.09,4.03-10.13
			c4.29-2.17,8.65-4.35,13.2-5.83c22.96-7.47,45.87-15.09,69.04-21.83c9.07-2.64,18.74-3.26,28.18-4.49
			c3.44-0.45,6.56,2.08,7.7,5.48c1.54,4.58,2.96,9.19,4.41,13.8c1.06,3.38,0.68,4.1-2.67,5.2c-1.34,0.44-2.68,0.85-3.95,1.26
			l1.67,5.25c4.47-1.07,8.82-2.45,10.45-6.66c0.7-1.83,0.71-3.85,0.11-5.71l-4.43-13.91c-1.04-3.27-3.12-6.14-5.99-8.01
			C632.24,128.46,629.06,127.66,625.27,128.18z M558.6,145.04c-9.66,3.07-19.27,6.13-29.49,9.38c1.42-5.39,2.47-10.4,4.14-15.2
			c0.63-1.82,2.4-3.86,4.15-4.56c5.2-2.08,10.64-3.54,16.21-5.31C555.27,134.56,556.9,139.68,558.6,145.04z M564.13,143.41
			c-1.66-5.23-3.29-10.35-5.1-16.01c2.23-0.71,4.53-1.44,6.83-2.17c2.74-0.87,5.43-2.11,8.24-2.5c2.41-0.34,5.39-0.48,7.34,0.64
			c4.86,2.79,9.27,6.35,14.37,9.97C584.86,136.81,574.62,140.07,564.13,143.41z"/>
	</g>
	<g>
		<linearGradient id="SVGID_6_" gradientUnits="userSpaceOnUse" x1="531.0193" y1="191.2809" x2="559.2421" y2="191.2809">
			<stop  offset="0" style="stop-color:#FF8B00"/>
			<stop  offset="1" style="stop-color:#FFD712"/>
		</linearGradient>
		<path class="st22" d="M545.14,205.39c-5.98,0-11.55-3.84-13.45-9.83c-2.36-7.41,1.75-15.36,9.17-17.72
			c3.59-1.14,7.41-0.82,10.76,0.91c3.35,1.73,5.82,4.66,6.96,8.25c1.14,3.59,0.82,7.41-0.91,10.76s-4.66,5.82-8.25,6.96
			C547.99,205.18,546.55,205.39,545.14,205.39z M545.14,182.3c-0.92,0-1.83,0.14-2.73,0.43c-4.72,1.5-7.34,6.56-5.84,11.28
			c1.5,4.72,6.56,7.34,11.28,5.84c2.29-0.73,4.15-2.3,5.25-4.43c1.1-2.13,1.31-4.56,0.58-6.85v0c-0.73-2.29-2.3-4.15-4.43-5.25
			C547.96,182.64,546.55,182.3,545.14,182.3z"/>
	</g>
	<g>
		<linearGradient id="SVGID_7_" gradientUnits="userSpaceOnUse" x1="603.1741" y1="168.3287" x2="631.3968" y2="168.3287">
			<stop  offset="0" style="stop-color:#FF8B00"/>
			<stop  offset="1" style="stop-color:#FFD712"/>
		</linearGradient>
		<path class="st23" d="M617.27,182.44c-2.22,0-4.43-0.53-6.47-1.58c-3.35-1.73-5.82-4.66-6.96-8.25
			c-1.14-3.59-0.82-7.41,0.91-10.76c1.73-3.35,4.66-5.82,8.25-6.96c7.41-2.36,15.36,1.75,17.72,9.17v0
			c2.36,7.41-1.75,15.36-9.17,17.72C620.16,182.22,618.71,182.44,617.27,182.44z M617.28,159.34c-0.9,0-1.81,0.14-2.72,0.42
			c-2.29,0.73-4.15,2.3-5.26,4.43c-1.1,2.13-1.31,4.56-0.58,6.85c0.73,2.29,2.3,4.15,4.43,5.25c2.13,1.1,4.56,1.31,6.85,0.58
			c4.72-1.5,7.34-6.56,5.84-11.28l0,0C624.63,161.79,621.09,159.34,617.28,159.34z"/>
	</g>
	<g>
		<linearGradient id="SVGID_8_" gradientUnits="userSpaceOnUse" x1="561.2117" y1="178.381" x2="599.8939" y2="178.381">
			<stop  offset="0" style="stop-color:#FF8B00"/>
			<stop  offset="1" style="stop-color:#FFD712"/>
		</linearGradient>
		<polygon class="st24" points="562.77,186.73 561.21,181.84 598.34,170.03 599.89,174.92 		"/>
	</g>
</g>
<g class="st16">
	<g>
		
			<linearGradient id="SVGID_9_" gradientUnits="userSpaceOnUse" x1="497.7214" y1="233.5374" x2="567.701" y2="233.5374" gradientTransform="matrix(0.9341 -0.357 0.357 0.9341 -39.1862 30.7776)">
			<stop  offset="0" style="stop-color:#FF8B00"/>
			<stop  offset="1" style="stop-color:#FD1A16"/>
		</linearGradient>
		<path class="st25" d="M547.97,74.83c-7.99,3.05-16.27,5.37-24.79,6.93c-5.35,0.98-10.32-1.62-12.38-6.46
			c-1.68-3.95-3.15-7.88-4.7-12.04c-0.65-1.75-1.31-3.52-1.99-5.3l-1.1-2.89l5.84-0.39c2-0.13,3.93-0.26,5.86-0.39l7.14-0.46
			c4.41-0.28,8.82-0.56,13.23-0.85c2.98-0.2,5.6-1.21,8-3.1c6.7-5.27,13.41-10.53,20.12-15.79l1.52-1.19
			c0.23-0.18,0.47-0.35,0.74-0.55l2.55-1.87l1.39,2.7c0.17,0.32,0.32,0.6,0.43,0.9l1.31,3.42c1.52,3.96,3.04,7.92,4.53,11.89
			c2.05,5.45,0.2,11.1-4.61,14.06C563.69,67.97,555.98,71.77,547.97,74.83z M509.47,59.22c0.31,0.82,0.61,1.64,0.92,2.45
			c1.53,4.11,2.98,7.99,4.62,11.85c1.22,2.87,4.11,4.34,7.36,3.75c16.49-3.01,32.07-8.97,46.31-17.71c2.98-1.83,4.03-5.11,2.73-8.56
			c-1.49-3.96-3-7.91-4.52-11.85l-0.63-1.64l-0.23,0.18c-6.71,5.26-13.41,10.52-20.11,15.79c-3.1,2.44-6.64,3.81-10.52,4.06
			c-4.41,0.29-8.83,0.57-13.24,0.85L515,58.85C513.18,58.97,511.35,59.09,509.47,59.22z"/>
	</g>
	
		<linearGradient id="SVGID_10_" gradientUnits="userSpaceOnUse" x1="467.6237" y1="215.2483" x2="597.8715" y2="215.2483" gradientTransform="matrix(0.9341 -0.357 0.357 0.9341 -39.1862 30.7776)">
		<stop  offset="0" style="stop-color:#FF8B00"/>
		<stop  offset="1" style="stop-color:#FD1A16"/>
	</linearGradient>
	<path class="st26" d="M587.79,1.26c-0.77-0.23-1.62-0.3-2.67-0.23c-19.75,1.26-39.51,2.53-59.26,3.81
		c-3.02,0.2-5.76,1.25-8.16,3.13c-15.47,12.13-30.93,24.27-46.38,36.42l-0.26,0.2c-1.03,0.79-3.44,2.64-2.15,5.78
		c1.21,2.96,4.08,2.74,5.31,2.65l0.36-0.03c2.13-0.13,14.52-0.93,27.64-1.77c11.81-0.76,24.34-1.57,30.91-1.99
		c1.62-0.1,3.17-0.44,4.64-1c1.47-0.56,2.85-1.35,4.14-2.36l20.68-16.24c3.6-2.82,7.19-5.65,10.79-8.47l14.87,38.9
		c0.45,1.18,1.77,1.77,2.95,1.32c1.18-0.45,1.77-1.77,1.32-2.95L577.14,18.2c3.68-2.89,7.36-5.78,11.04-8.68
		c0.6-0.47,1.35-1.12,1.92-1.98c0.75-1.13,0.92-2.49,0.46-3.73C590.11,2.58,589.1,1.64,587.79,1.26z M585.37,5.94
		c-8.53,6.7-17.06,13.4-25.59,20.1L539.1,42.28c-1.86,1.46-3.9,2.24-6.24,2.39c-6.57,0.42-19.1,1.22-30.92,1.99
		c-13.11,0.85-25.5,1.65-27.62,1.77l-0.44,0.03c-0.12,0.01-0.26,0.02-0.41,0.03c0.13-0.1,0.26-0.2,0.37-0.29l0.3-0.23
		c15.45-12.15,30.91-24.29,46.37-36.42c1.66-1.3,3.55-2.03,5.64-2.16c19.75-1.28,39.5-2.55,59.25-3.81c0.15-0.01,0.28-0.01,0.4-0.01
		C585.66,5.7,585.5,5.83,585.37,5.94z"/>
</g>
<g class="st16">
	<linearGradient id="SVGID_11_" gradientUnits="userSpaceOnUse" x1="537.5676" y1="321.4062" x2="623.4616" y2="321.4062">
		<stop  offset="0" style="stop-color:#C1E237"/>
		<stop  offset="1" style="stop-color:#FFD712"/>
	</linearGradient>
	<path class="st27" d="M551.03,368.38c-2.2,0-4.41-0.22-5.96-0.72c-2.99-0.97-5.31-2.92-6.54-5.5c-1.21-2.53-1.27-5.49-0.18-8.33
		c2.16-5.64,6.56-9.29,13.46-11.16c2.04-0.55,4.12-0.7,6.21-0.42l0-8.25c0-15.15,0-30.3-0.02-45.45c0-2.41,1.19-3.85,3.54-4.26
		c8.58-1.52,17.96-3.08,27.03-4.6c10.21-1.7,20.76-3.46,30.36-5.19l0.1-0.02c1.09-0.17,2.2,0.14,3.05,0.85
		c0.87,0.73,1.38,1.81,1.38,2.95v9.99c0,5.21,0,10.41-0.01,15.62c-0.01,12.42-0.02,25.27,0.03,37.91
		c0.03,8.46-4.22,14.32-12.63,17.45c-3.37,1.25-10.03,1.64-13.92,0.3c-5.57-1.92-8.37-7.37-6.67-12.95
		c1.54-5.05,5.16-8.68,11.06-11.1c2.86-1.17,5.79-1.59,8.74-1.25v-30.69c-1.71,0.29-3.4,0.57-5.1,0.86
		c-6.01,1.03-11.45,2.08-16.71,3.09c-5.35,1.03-10.87,2.1-16.99,3.14c0.01,4.41-0.01,8.76-0.02,13.1
		c-0.02,8.45-0.05,17.19,0.08,25.77c0.13,9.06-4.85,15.52-14.04,18.19C555.76,368.12,553.4,368.38,551.03,368.38z M555.95,347.23
		c-0.94,0-1.87,0.13-2.81,0.38c-5.28,1.43-8.46,3.99-10.01,8.05c-0.59,1.54-0.58,3.02,0.02,4.29c0.62,1.3,1.86,2.3,3.5,2.83
		c1.97,0.64,6.96,0.63,9.19-0.02c6.96-2.02,10.44-6.45,10.34-13.19c-0.13-8.63-0.1-17.39-0.08-25.86c0.01-4.66,0.03-9.33,0.01-13.99
		c0-1.57,0.59-3.53,3.42-4.01c6.4-1.07,12.16-2.19,17.73-3.26c5.28-1.02,10.75-2.07,16.82-3.11c1.75-0.3,3.49-0.59,5.25-0.89
		l1.36-0.23c1.11-0.18,2.25,0.13,3.12,0.86c0.86,0.73,1.36,1.8,1.36,2.93v33.7c0,1.16-0.52,2.25-1.42,2.99
		c-0.89,0.73-2.06,1.02-3.19,0.79c-2.5-0.51-4.89-0.27-7.32,0.73c-4.45,1.82-7.02,4.32-8.1,7.85c-0.91,2.98,0.44,5.58,3.44,6.61
		c2.46,0.85,7.84,0.71,10.47-0.26c6.36-2.36,9.31-6.37,9.29-12.62c-0.05-12.65-0.04-25.5-0.03-37.93c0-5.2,0.01-10.41,0.01-15.61
		v-8.45c-9.22,1.64-19.22,3.31-28.91,4.93c-8.82,1.47-17.92,2.99-26.29,4.46c0.02,14.93,0.02,29.86,0.02,44.79v9.78
		c0,1.18-0.53,2.27-1.45,3c-0.92,0.73-2.1,1-3.25,0.74C557.59,347.33,556.77,347.23,555.95,347.23z"/>
</g>
<g class="st16">
	<g>
		<linearGradient id="SVGID_12_" gradientUnits="userSpaceOnUse" x1="338.9136" y1="207.5442" x2="437.9835" y2="207.5442">
			<stop  offset="0" style="stop-color:#FF8B00"/>
			<stop  offset="1" style="stop-color:#FD1A16"/>
		</linearGradient>
		<path class="st28" d="M419.89,175.85c2.17,0,4.11,1.45,4.74,3.53l6.47,21.59h-47.48c-2.37,0-4.64,0.44-6.74,1.31
			c-3.91,1.62-6.54,4.43-8.04,8.61c-0.67,1.88-1.01,3.89-1.01,5.96v19.84l-7.75,2.32c-0.47,0.14-0.95,0.21-1.42,0.21
			c-2.17,0-4.11-1.45-4.74-3.53l-9.66-32.24c-0.78-2.61,0.71-5.38,3.32-6.16l70.89-21.24C418.93,175.92,419.41,175.85,419.89,175.85
			 M419.89,170.73c-0.96,0-1.93,0.14-2.9,0.43l-70.89,21.24c-5.33,1.6-8.36,7.21-6.76,12.54l9.66,32.24
			c1.31,4.37,5.31,7.19,9.65,7.19c0.96,0,1.93-0.14,2.9-0.43l11.41-3.42v-23.66c0-1.44,0.23-2.88,0.71-4.24
			c0.98-2.73,2.47-4.49,5.17-5.6c1.51-0.63,3.15-0.92,4.78-0.92h54.37l-8.45-28.19C428.23,173.55,424.22,170.73,419.89,170.73
			L419.89,170.73z"/>
	</g>
	<g>
		<linearGradient id="SVGID_13_" gradientUnits="userSpaceOnUse" x1="375.5118" y1="235.9499" x2="469.67" y2="235.9499">
			<stop  offset="0" style="stop-color:#FF8B00"/>
			<stop  offset="1" style="stop-color:#FD1A16"/>
		</linearGradient>
		<path class="st29" d="M459.59,214.17c2.73,0,4.95,2.22,4.95,4.95v33.65c0,2.73-2.22,4.95-4.95,4.95h-74.01
			c-2.73,0-4.95-2.22-4.95-4.95v-9.32v-24.34c0-2.73,2.22-4.95,4.95-4.95h54.96H459.59 M459.59,209.05h-19.05h-54.96
			c-5.56,0-10.08,4.51-10.08,10.08v24.34v9.32c0,5.56,4.51,10.08,10.08,10.08h74.01c5.56,0,10.08-4.51,10.08-10.08v-33.65
			C469.67,213.56,465.16,209.05,459.59,209.05L459.59,209.05z"/>
	</g>
	<g>
		<linearGradient id="SVGID_14_" gradientUnits="userSpaceOnUse" x1="378.0752" y1="226.6107" x2="467.2778" y2="226.6107">
			<stop  offset="0" style="stop-color:#FF8B00"/>
			<stop  offset="1" style="stop-color:#FD1A16"/>
		</linearGradient>
		<rect x="378.08" y="221.48" class="st30" width="89.2" height="10.25"/>
	</g>
</g>
<g class="st16">
	<linearGradient id="SVGID_15_" gradientUnits="userSpaceOnUse" x1="358.5244" y1="376.7716" x2="470.4548" y2="376.7716">
		<stop  offset="0" style="stop-color:#41B695"/>
		<stop  offset="1" style="stop-color:#4FA0CA"/>
	</linearGradient>
	<path class="st31" d="M438.07,352.33c-7.08-13.4-21.16-22.55-37.34-22.55c-23.27,0-42.21,18.93-42.21,42.21
		c0,23.27,18.93,42.21,42.21,42.21c2.97,0,5.86-0.31,8.65-0.9c6.48,6.46,15.42,10.46,25.27,10.46c19.74,0,35.8-16.06,35.8-35.8
		C470.45,369.38,456.21,354.06,438.07,352.33z M437.82,371.99c0,16.85-11.3,31.1-26.72,35.6c-4.44-5.32-7.12-12.16-7.12-19.62
		c0-16.91,13.76-30.67,30.67-30.67c0.04,0,0.08,0,0.12,0C436.73,361.8,437.82,366.77,437.82,371.99z M363.65,371.99
		c0-20.45,16.63-37.08,37.08-37.08c13.2,0,24.81,6.94,31.38,17.36c-18.56,1.31-33.26,16.82-33.26,35.7c0,7.75,2.48,14.92,6.68,20.78
		c-1.57,0.2-3.17,0.32-4.8,0.32C380.29,409.07,363.65,392.43,363.65,371.99z M434.65,418.64c-7.39,0-14.17-2.63-19.47-6.99
		c16.18-5.91,27.76-21.46,27.76-39.66c0-4.95-0.87-9.71-2.44-14.13c14.13,2.74,24.83,15.19,24.83,30.11
		C465.33,404.88,451.57,418.64,434.65,418.64z"/>
	<g>
		<linearGradient id="SVGID_16_" gradientUnits="userSpaceOnUse" x1="445.8628" y1="342.765" x2="474.8836" y2="342.765">
			<stop  offset="0" style="stop-color:#41B695"/>
			<stop  offset="1" style="stop-color:#4FA0CA"/>
		</linearGradient>
		<path class="st32" d="M460.95,359.19l-14.51-7.71l-0.57-16.42l13.94-8.71l14.51,7.72l0.58,16.42L460.95,359.19z M451.46,348.34
			l9.28,4.94l8.92-5.57l-0.37-10.51l-9.28-4.94l-8.92,5.57L451.46,348.34z"/>
	</g>
</g>
<g class="st16">
	<g>
		<linearGradient id="SVGID_17_" gradientUnits="userSpaceOnUse" x1="51.0873" y1="123.7261" x2="157.0128" y2="123.7261">
			<stop  offset="0" style="stop-color:#41B695"/>
			<stop  offset="1" style="stop-color:#4FA0CA"/>
		</linearGradient>
		<path class="st33" d="M135.21,160.67c-1.53,0-3.22-0.24-5.03-0.73c-6.97-1.86-13.92-3.76-20.88-5.66
			c-13.13-3.59-26.72-7.31-40.14-10.66c-9-2.25-18.47-12.26-18.07-24.52c0.26-7.9,4.02-15.07,10.31-19.67
			c6.27-4.58,14.22-5.98,21.8-3.84c1.2,0.34,1.57,0.25,2.51-0.56c9.31-8.09,20.2-10.28,31.51-6.34
			c11.83,4.13,19.16,13.02,21.21,25.7c0.03,0.17,0.06,0.35,0.08,0.53c0.08,0.58,0.48,1.08,1.02,1.29c1.13,0.44,6.9,2.76,9.66,5.13
			l0,0c7.41,6.37,9.66,15.07,6.32,24.51c-2.94,8.34-9.35,13.42-18.52,14.69C136.42,160.63,135.83,160.67,135.21,160.67z
			 M76.18,99.06c-4.34,0-8.58,1.35-12.15,3.96c-5.18,3.79-8.27,9.7-8.49,16.23c-0.33,10.04,7.38,18.23,14.7,20.06
			c13.47,3.36,27.08,7.08,40.24,10.68c6.95,1.9,13.89,3.8,20.85,5.66c1.93,0.52,3.68,0.69,5.05,0.5c7.52-1.04,12.54-5,14.93-11.76
			c2.76-7.81,1.06-14.42-5.03-19.66h0c-1.61-1.38-5.36-3.18-8.37-4.36c-2.03-0.79-3.49-2.64-3.81-4.81
			c-0.02-0.15-0.04-0.29-0.07-0.43c-1.8-11.14-7.95-18.62-18.28-22.22c-9.85-3.44-18.97-1.59-27.12,5.5c-2.07,1.8-4,2.23-6.64,1.48
			C80.07,99.33,78.11,99.06,76.18,99.06z"/>
	</g>
	<g>
		<linearGradient id="SVGID_18_" gradientUnits="userSpaceOnUse" x1="67.8819" y1="154.3758" x2="75.2962" y2="154.3758">
			<stop  offset="0" style="stop-color:#41B695"/>
			<stop  offset="1" style="stop-color:#4FA0CA"/>
		</linearGradient>
		<circle class="st34" cx="71.59" cy="154.38" r="3.71"/>
	</g>
	<g>
		<linearGradient id="SVGID_19_" gradientUnits="userSpaceOnUse" x1="92.1023" y1="160.928" x2="99.5166" y2="160.928">
			<stop  offset="0" style="stop-color:#41B695"/>
			<stop  offset="1" style="stop-color:#4FA0CA"/>
		</linearGradient>
		<circle class="st35" cx="95.81" cy="160.93" r="3.71"/>
	</g>
	<g>
		<linearGradient id="SVGID_20_" gradientUnits="userSpaceOnUse" x1="79.728" y1="175.4466" x2="87.1422" y2="175.4466">
			<stop  offset="0" style="stop-color:#41B695"/>
			<stop  offset="1" style="stop-color:#4FA0CA"/>
		</linearGradient>
		<circle class="st36" cx="83.44" cy="175.45" r="3.71"/>
	</g>
	<g>
		<linearGradient id="SVGID_21_" gradientUnits="userSpaceOnUse" x1="55.5076" y1="168.8944" x2="62.9218" y2="168.8944">
			<stop  offset="0" style="stop-color:#41B695"/>
			<stop  offset="1" style="stop-color:#4FA0CA"/>
		</linearGradient>
		<circle class="st37" cx="59.21" cy="168.89" r="3.71"/>
	</g>
	<g>
		<linearGradient id="SVGID_22_" gradientUnits="userSpaceOnUse" x1="116.3227" y1="167.4802" x2="123.737" y2="167.4802">
			<stop  offset="0" style="stop-color:#41B695"/>
			<stop  offset="1" style="stop-color:#4FA0CA"/>
		</linearGradient>
		<circle class="st38" cx="120.03" cy="167.48" r="3.71"/>
	</g>
	<g>
		<linearGradient id="SVGID_23_" gradientUnits="userSpaceOnUse" x1="103.9483" y1="181.9988" x2="111.3626" y2="181.9988">
			<stop  offset="0" style="stop-color:#41B695"/>
			<stop  offset="1" style="stop-color:#4FA0CA"/>
		</linearGradient>
		<circle class="st39" cx="107.66" cy="182" r="3.71"/>
	</g>
</g>
<g class="st16">
	<g>
		
			<linearGradient id="SVGID_24_" gradientUnits="userSpaceOnUse" x1="165.3261" y1="209.6582" x2="203.3809" y2="209.6582" gradientTransform="matrix(0.9789 0.2043 -0.2043 0.9789 75.5441 -44.2588)">
			<stop  offset="0" style="stop-color:#FF8B00"/>
			<stop  offset="1" style="stop-color:#FFD712"/>
		</linearGradient>
		<path class="st40" d="M230.9,184.54l-7.13,34.14l-24.05-5.02c-2.37-0.49-3.9-2.83-3.4-5.2l6.23-29.84L230.9,184.54 M236.29,181.01
			l-37.25-7.78l-7.16,34.29c-1.01,4.83,2.09,9.57,6.93,10.58l28.5,5.95L236.29,181.01L236.29,181.01z"/>
	</g>
	<g>
		
			<linearGradient id="SVGID_25_" gradientUnits="userSpaceOnUse" x1="207.9293" y1="170.3904" x2="245.9843" y2="170.3904" gradientTransform="matrix(0.9789 0.2043 -0.2043 0.9789 75.5441 -44.2588)">
			<stop  offset="0" style="stop-color:#FF8B00"/>
			<stop  offset="1" style="stop-color:#FFD712"/>
		</linearGradient>
		<path class="st41" d="M274.44,162.96c2.37,0.49,3.9,2.83,3.4,5.2l-2.45,11.73l-28.35-5.92l3.35-16.03L274.44,162.96
			 M275.37,158.51l-28.5-5.95l-5.2,24.93l37.25,7.78l3.38-16.18C283.31,164.25,280.21,159.51,275.37,158.51L275.37,158.51z"/>
	</g>
	<g>
		
			<linearGradient id="SVGID_26_" gradientUnits="userSpaceOnUse" x1="165.3261" y1="170.3904" x2="203.3809" y2="170.3904" gradientTransform="matrix(0.9789 0.2043 -0.2043 0.9789 75.5441 -44.2588)">
			<stop  offset="0" style="stop-color:#FF8B00"/>
			<stop  offset="1" style="stop-color:#FFD712"/>
		</linearGradient>
		<path class="st42" d="M237.04,155.15l-3.35,16.03l-28.35-5.92l2.45-11.73c0.49-2.37,2.83-3.9,5.2-3.4L237.04,155.15
			 M242.42,151.63l-28.5-5.95c-4.83-1.01-9.57,2.09-10.58,6.93l-3.38,16.18l37.25,7.78L242.42,151.63L242.42,151.63z"/>
	</g>
	<g>
		
			<linearGradient id="SVGID_27_" gradientUnits="userSpaceOnUse" x1="207.9293" y1="209.6582" x2="245.9843" y2="209.6582" gradientTransform="matrix(0.9789 0.2043 -0.2043 0.9789 75.5441 -44.2588)">
			<stop  offset="0" style="stop-color:#FF8B00"/>
			<stop  offset="1" style="stop-color:#FFD712"/>
		</linearGradient>
		<path class="st43" d="M272.61,193.24l-6.23,29.84c-0.49,2.37-2.83,3.9-5.2,3.4l-24.05-5.02l7.13-34.14L272.61,193.24
			 M277.99,189.72l-37.25-7.78l-8.98,43.04l28.5,5.95c4.83,1.01,9.57-2.09,10.58-6.93L277.99,189.72L277.99,189.72z"/>
	</g>
	<g>
		
			<linearGradient id="SVGID_28_" gradientUnits="userSpaceOnUse" x1="176.5465" y1="144.6706" x2="203.3873" y2="144.6706" gradientTransform="matrix(0.9789 0.2043 -0.2043 0.9789 75.5441 -44.2588)">
			<stop  offset="0" style="stop-color:#FF8B00"/>
			<stop  offset="1" style="stop-color:#FFD712"/>
		</linearGradient>
		<path class="st44" d="M243.26,147.62l-15.13-3.16c-3.38-0.71-6.34-2.75-8.13-5.6c-1.79-2.87-1.47-5.06-0.88-6.39
			c1.09-2.47,3.88-4.1,8.55-4.97c4.53-0.85,8.24-0.02,11.01,2.47c5.51,4.95,4.82,14.66,4.78,15.07L243.26,147.62z M232.71,131.9
			c-1.21-0.25-2.6-0.23-4.21,0.07c-4.24,0.79-5.07,1.98-5.22,2.33c-0.27,0.62,0.24,1.61,0.58,2.15c1.13,1.81,3.02,3.1,5.2,3.56
			l9.85,2.06c-0.2-2.81-0.98-6.65-3.28-8.71C234.82,132.62,233.85,132.14,232.71,131.9z"/>
	</g>
	<g>
		
			<linearGradient id="SVGID_29_" gradientUnits="userSpaceOnUse" x1="207.9224" y1="144.671" x2="234.7642" y2="144.671" gradientTransform="matrix(0.9789 0.2043 -0.2043 0.9789 75.5441 -44.2588)">
			<stop  offset="0" style="stop-color:#FF8B00"/>
			<stop  offset="1" style="stop-color:#FFD712"/>
		</linearGradient>
		<path class="st45" d="M262.83,151.71l-15.13-3.16l0.85-2.44c0.13-0.39,3.38-9.56,10.41-11.89c3.53-1.17,7.26-0.45,11.08,2.14
			c3.93,2.66,5.84,5.27,5.85,7.98c0,1.45-0.58,3.59-3.37,5.5C269.74,151.73,266.21,152.41,262.83,151.71z M253.91,145.2l9.85,2.06
			c2.17,0.45,4.43,0.02,6.19-1.18c0.52-0.36,1.39-1.06,1.39-1.74c0-0.38-0.28-1.8-3.85-4.22c-2.62-1.78-4.94-2.3-7.09-1.58
			C257.45,139.51,255.2,142.71,253.91,145.2z"/>
	</g>
</g>
<linearGradient id="SVGID_30_" gradientUnits="userSpaceOnUse" x1="361.637" y1="74.9887" x2="446.3232" y2="74.9887">
	<stop  offset="0" style="stop-color:#41B695"/>
	<stop  offset="1" style="stop-color:#A2E7B1"/>
</linearGradient>
<path class="st46" d="M416.26,66.18c0,7.35,0,14.72,0,22.35c4.94,0.32,9.86,0.62,14.78,0.98c2.28,0.17,3.61,1.79,2.58,3.34
	c-0.57,0.86-2.06,1.51-3.16,1.54c-2.76,0.06-5.54-0.28-8.86-0.5c2.96,5.72,5.72,11.05,8.69,16.76c3.73-1.9,7.3-3.64,10.78-5.53
	c1.71-0.93,3.44-1.93,4.75,0.22c1.36,2.23-0.27,3.53-2.01,4.58c-12.7,7.67-26.5,11.22-41.29,11.13
	c-13.59-0.08-26.35-3.34-38.18-10.06c-0.9-0.51-1.83-1.41-2.14-2.33c-0.23-0.66,0.33-2.12,0.93-2.41c0.85-0.41,2.2-0.38,3.1,0.01
	c3.81,1.67,7.52,3.53,11.53,5.45c2.85-5.48,5.54-10.67,8.44-16.25c-1.04,0.11-1.54,0.17-2.04,0.21c-3.05,0.27-3.91-0.44-4.24-3.44
	c-1.32-11.78-3.27-23.43-6.63-34.82c-2.47-8.39-5.51-16.5-10.71-23.65c-1.09-1.51-1.51-3.11,0.28-4.31
	c1.78-1.19,3.09-0.16,4.17,1.33c5.52,7.57,8.73,16.19,11.38,25.06c0.79,2.64,1.49,5.32,2.27,8.1c6.02-0.63,11.89-1.32,17.77-1.84
	c6.24-0.55,12.49-1.2,18.75-1.34c7.26-0.16,11.73,3.28,14.23,10.07c0.62,1.69,0.24,3.01-1.28,3.75c-1.65,0.81-2.76-0.08-3.55-1.61
	C423.42,66.76,421.55,65.53,416.26,66.18z M425.11,112.46c-3.08-5.97-6.02-11.76-9.1-17.48c-0.34-0.62-1.52-1.13-2.3-1.13
	c-6.44,0.08-12.87,0.26-19.3,0.5c-0.77,0.03-1.9,0.4-2.22,0.97c-3.13,5.76-6.13,11.59-9.25,17.56
	C397.19,116.7,411.03,116.9,425.11,112.46z M396.28,67.32c0.88,7.36,1.69,14.22,2.5,20.96c4.15,0,8.01,0,11.9,0
	c0-7.6,0-14.92,0-22.39C405.81,66.37,401.18,66.83,396.28,67.32z M393.56,89.01c-0.92-7.11-1.81-13.97-2.73-21.03
	c-3.14,0.38-6.04,0.73-9,1.09c1.14,7.08,2.24,13.88,3.35,20.78C388.06,89.56,390.71,89.29,393.56,89.01z"/>
<g>
	<g>
		<g>
			<path class="st0" d="M176.1,308.02c-17.6,6.93-46.57,15.82-83.26,15.93c-37.08,0.11-66.39-8.81-84.17-15.76
				c-4.92,28.55-3.49,80.41,30.26,100.09c20.3,11.84,86.64,11.84,106.94,0C179.68,388.56,181.06,336.53,176.1,308.02z"/>
			<path class="st8" d="M176.1,308.02c-0.02-0.1-0.03-0.21-0.05-0.31c-6.41-36.34-34.23-96.81-83.65-98.09
				c-49.42,1.28-77.23,61.75-83.65,98.09c-0.03,0.16-0.05,0.32-0.08,0.48c9,5.1,23.22,11.76,41.78,15.09
				c17.55,3.14,32.41,2.13,42.38,0.67c9.67,1.4,23.59,2.3,39.93-0.42C152.14,320.29,166.91,313.3,176.1,308.02z"/>
			<g>
				<path class="st8" d="M106.87,224.98c-0.38,2.16-2.34,3.71-4.57,3.53c-3.98-0.32-9.91-1.62-15.54-6.03
					c-7.01-5.49-9.5-12.63-10.36-16.4c-0.53-2.31,0.92-4.61,3.22-5.14c2.31-0.53,4.61,0.91,5.14,3.22c0.61,2.66,2.37,7.7,7.29,11.55
					c4.17,3.26,8.64,4.05,10.93,4.24c2.36,0.19,4.13,2.26,3.94,4.62C106.91,224.72,106.9,224.85,106.87,224.98z"/>
			</g>
			<g>
				<path class="st8" d="M107.87,221.19c-0.01,0.05-0.02,0.11-0.03,0.16c-0.49,2.32-2.77,3.8-5.09,3.3
					c-3.71-0.79-7.2-2.72-9.83-5.44c-3.74-3.86-4.87-8.29-5.21-10.58c-0.35-2.35,1.27-4.53,3.61-4.88c2.34-0.35,4.53,1.27,4.88,3.61
					c0.19,1.27,0.82,3.73,2.89,5.87c1.97,2.03,4.26,2.76,5.45,3.02C106.8,216.73,108.26,218.92,107.87,221.19z"/>
			</g>
		</g>
		
			<ellipse transform="matrix(0.9965 -0.084 0.084 0.9965 -29.0499 2.063)" class="st8" cx="9.99" cy="346.26" rx="9.76" ry="27.28"/>
		<path class="st8" d="M164.69,334.19c0.87-7.85,3.82-14.35,12.01-26.37c8.2-12.03,28.14-41.26,33.35-38.47
			c8.59,4.58-23.75,95.35-37.94,92.85C166.55,361.21,163.42,345.75,164.69,334.19z"/>
		<g>
			<path class="st2" d="M102.76,274.1c-0.46,0-1.52,0.14-3.64,0.39c-5.37,0.62-5.36,0.83-7,0.82c-1.64-0.02-1.44-0.23-6.43-0.82
				c-1.91-0.23-3.02-0.39-3.64-0.39c-6.86,0-12.43,3.96-12.43,8.84c0,4.88,5.56,8.84,12.43,8.84c4.32,0,8.13-1.57,10.36-3.96
				c2.23,2.38,6.03,3.96,10.36,3.96c6.86,0,12.43-3.96,12.43-8.84C115.19,278.06,109.62,274.1,102.76,274.1z"/>
			<path class="st3" d="M108.22,298.98c-0.28,11.09-14.86,17.23-15.82,17.62c-0.97-0.39-15.54-6.53-15.82-17.62
				c-0.21-8.17,7.39-17.62,15.82-17.62S108.43,290.81,108.22,298.98z"/>
		</g>
		<path class="st5" d="M131.53,411.21c-1.92,0-3.6,0.92-4.69,2.33c-1.09-1.41-2.77-2.33-4.69-2.33c-1.92,0-3.6,0.92-4.69,2.33
			c-1.09-1.41-2.77-2.33-4.69-2.33c-3.28,0-5.94,2.66-5.94,5.94c0,3.28,2.66,5.94,5.94,5.94c1.92,0,3.6-0.92,4.69-2.33
			c1.09,1.41,2.77,2.33,4.69,2.33c1.92,0,3.6-0.92,4.69-2.33c1.09,1.41,2.77,2.33,4.69,2.33c3.28,0,5.94-2.66,5.94-5.94
			C137.47,413.87,134.81,411.21,131.53,411.21z"/>
		<path class="st5" d="M72.03,411.21c-1.92,0-3.6,0.92-4.69,2.33c-1.09-1.41-2.77-2.33-4.69-2.33c-1.92,0-3.6,0.92-4.69,2.33
			c-1.09-1.41-2.77-2.33-4.69-2.33c-3.28,0-5.94,2.66-5.94,5.94c0,3.28,2.66,5.94,5.94,5.94c1.92,0,3.6-0.92,4.69-2.33
			c1.09,1.41,2.77,2.33,4.69,2.33c1.92,0,3.6-0.92,4.69-2.33c1.09,1.41,2.77,2.33,4.69,2.33c3.28,0,5.94-2.66,5.94-5.94
			C77.97,413.87,75.31,411.21,72.03,411.21z"/>
		
			<ellipse transform="matrix(0.9175 -0.3978 0.3978 0.9175 -91.9649 106.8184)" class="st8" cx="211.49" cy="275.08" rx="2.11" ry="6.39"/>
		
			<ellipse transform="matrix(0.7071 -0.7071 0.7071 0.7071 -130.6911 226.4394)" class="st8" cx="207.99" cy="270.98" rx="6.39" ry="2.11"/>
		
			<ellipse transform="matrix(0.9828 -0.1848 0.1848 0.9828 -46.7985 43.5613)" class="st8" cx="210.31" cy="272.86" rx="6.39" ry="2.11"/>
		
			<ellipse transform="matrix(0.9742 -0.2257 0.2257 0.9742 -57.9915 54.7143)" class="st8" cx="210.31" cy="281" rx="2.11" ry="6.39"/>
		
			<ellipse transform="matrix(0.9929 -0.1192 0.1192 0.9929 -33.0765 26.9873)" class="st8" cx="208.98" cy="289.9" rx="2.11" ry="6.39"/>
		
			<ellipse transform="matrix(0.9929 -0.1192 0.1192 0.9929 -34.0728 26.7806)" class="st8" cx="206.76" cy="298.12" rx="2.11" ry="6.39"/>
		
			<ellipse transform="matrix(0.9929 -0.1192 0.1192 0.9929 -35.0408 26.5722)" class="st8" cx="204.53" cy="306.11" rx="2.11" ry="6.39"/>
		
			<ellipse transform="matrix(0.9929 -0.1192 0.1192 0.9929 -36.041 26.3657)" class="st8" cx="202.31" cy="314.36" rx="2.11" ry="6.39"/>
		
			<ellipse transform="matrix(0.9929 -0.1192 0.1192 0.9929 -36.819 26.052)" class="st8" cx="199.3" cy="320.71" rx="2.11" ry="6.39"/>
		
			<ellipse transform="matrix(0.9929 -0.1192 0.1192 0.9929 -37.8183 25.8455)" class="st8" cx="197.07" cy="328.96" rx="2.11" ry="6.39"/>
		
			<ellipse transform="matrix(0.9929 -0.1192 0.1192 0.9929 -38.4954 25.5257)" class="st8" cx="194.06" cy="334.45" rx="2.11" ry="6.39"/>
		
			<ellipse transform="matrix(0.1147 -0.9934 0.9934 0.1147 -168.6845 490.6258)" class="st8" cx="190.92" cy="339.95" rx="6.39" ry="2.11"/>
		
			<ellipse transform="matrix(0.1147 -0.9934 0.9934 0.1147 -175.9045 489.5935)" class="st8" cx="186.73" cy="343.49" rx="6.39" ry="2.11"/>
	</g>
	<g>
		<g>
			<path class="st6" d="M64.97,279.23c-1.22,0-2.3-0.89-2.49-2.14c-0.66-4.31-4.51-7.49-8.6-7.06c-3.5,0.35-6.42,3.31-6.95,7.03
				c-0.2,1.38-1.47,2.34-2.85,2.14c-1.38-0.2-2.34-1.47-2.14-2.85c0.85-5.99,5.66-10.76,11.43-11.35
				c6.73-0.69,13.03,4.4,14.09,11.32c0.21,1.38-0.74,2.66-2.11,2.87C65.23,279.22,65.1,279.23,64.97,279.23z"/>
		</g>
	</g>
	<g>
		<g>
			<path class="st6" d="M138.89,279.23c-1.22,0-2.3-0.89-2.49-2.14c-0.66-4.31-4.51-7.48-8.6-7.06c-3.5,0.35-6.42,3.31-6.95,7.03
				c-0.19,1.38-1.47,2.34-2.85,2.14c-1.38-0.2-2.34-1.47-2.14-2.85c0.85-5.99,5.65-10.76,11.43-11.35
				c6.73-0.69,13.04,4.4,14.09,11.32c0.21,1.38-0.74,2.66-2.11,2.87C139.15,279.22,139.02,279.23,138.89,279.23z"/>
		</g>
	</g>
</g>
</svg>
