<?xml version="1.0" encoding="utf-8"?>
<!-- Generator: Adobe Illustrator 23.0.1, SVG Export Plug-In . SVG Version: 6.00 Build 0)  -->
<svg version="1.1" id="Layer_1" xmlns="http://www.w3.org/2000/svg" xmlns:xlink="http://www.w3.org/1999/xlink" x="0px" y="0px"
	 viewBox="0 0 432 432" style="enable-background:new 0 0 432 432;" xml:space="preserve">
<style type="text/css">
	.st0{fill:#C1E237;}
	.st1{fill:#EEC823;}
	.st2{fill:#629CC8;}
	.st3{fill:#F7EA9D;}
	.st4{fill:#72BD23;}
	.st5{fill:#F7934C;}
	.st6{fill:#333333;}
	.st7{opacity:0.75;}
	.st8{fill:#FFD712;}
	.st9{fill:#333333;stroke:#333333;stroke-width:0.75;stroke-miterlimit:10;}
	.st10{opacity:0.75;fill:#FFFFFF;}
	.st11{fill:#FAF8EE;stroke:#E5E5E5;stroke-width:1.274;stroke-miterlimit:10;}
	.st12{fill:#F2F2F2;}
	.st13{fill:#FAF8EE;stroke:#E5E5E5;stroke-width:2.6924;stroke-miterlimit:10;}
	.st14{fill:#F8491A;}
	.st15{fill:#FFFFFF;}
	.st16{opacity:0.7;}
	.st17{fill:url(#SVGID_1_);}
	.st18{fill:url(#SVGID_2_);}
	.st19{fill:url(#SVGID_3_);}
	.st20{fill:url(#SVGID_4_);}
	.st21{fill:url(#SVGID_5_);}
	.st22{fill:url(#SVGID_6_);}
	.st23{fill:url(#SVGID_7_);}
	.st24{fill:url(#SVGID_8_);}
	.st25{fill:url(#SVGID_9_);}
	.st26{fill:url(#SVGID_10_);}
	.st27{fill:url(#SVGID_11_);}
	.st28{fill:url(#SVGID_12_);}
	.st29{fill:url(#SVGID_13_);}
	.st30{fill:url(#SVGID_14_);}
	.st31{fill:url(#SVGID_15_);}
	.st32{fill:url(#SVGID_16_);}
	.st33{fill:url(#SVGID_17_);}
	.st34{fill:url(#SVGID_18_);}
	.st35{fill:url(#SVGID_19_);}
	.st36{fill:url(#SVGID_20_);}
	.st37{fill:url(#SVGID_21_);}
	.st38{fill:url(#SVGID_22_);}
	.st39{fill:url(#SVGID_23_);}
	.st40{fill:url(#SVGID_24_);}
	.st41{fill:url(#SVGID_25_);}
	.st42{fill:url(#SVGID_26_);}
	.st43{fill:url(#SVGID_27_);}
	.st44{fill:url(#SVGID_28_);}
	.st45{fill:url(#SVGID_29_);}
	.st46{opacity:0.7;fill:url(#SVGID_30_);}
	.st47{fill:#41B695;}
	.st48{fill:#A2E7B1;}
	.st49{fill:#FF8B00;}
</style>
<g>
	<g>
		<g>
			<path class="st0" d="M365.34,253.12c-31.33,8.61-82.44,18.49-145.12,11.95c-63.36-6.61-111.79-27.2-140.87-42.34
				c-13.64,47.86-20.69,136.7,33.34,176.49c32.5,23.93,145.82,36.09,182.65,19.59C356.7,391.34,368.58,302.74,365.34,253.12z"/>
			<path class="st8" d="M365.34,253.12c-0.01-0.18-0.02-0.37-0.03-0.55c-4.3-63.24-40.73-171.62-124.9-182.86
				c-84.64-6.86-143.23,91.32-160.84,152.22c-0.08,0.26-0.15,0.54-0.22,0.81c14.44,10.36,37.5,24.34,68.6,33.42
				c29.4,8.59,54.97,9.58,72.26,8.92c16.26,4.16,39.87,8.25,68.28,6.59C322.17,269.69,348.67,260.45,365.34,253.12z"/>
			<g>
				<path class="st8" d="M262.31,98.62c-1.04,3.61-4.68,5.91-8.45,5.2c-6.74-1.27-16.62-4.58-25.44-13.15
					c-10.96-10.65-13.91-23.31-14.7-29.9c-0.48-4.04,2.41-7.71,6.45-8.19c4.04-0.48,7.71,2.41,8.19,6.45
					c0.55,4.66,2.63,13.59,10.33,21.07c6.52,6.33,14.01,8.5,17.9,9.24c4,0.76,6.63,4.61,5.88,8.61
					C262.43,98.17,262.37,98.4,262.31,98.62z"/>
			</g>
			<g>
				<path class="st8" d="M264.71,92.32c-0.03,0.09-0.05,0.18-0.08,0.26c-1.27,3.87-5.43,5.98-9.3,4.71
					c-6.19-2.03-11.8-5.97-15.8-11.09c-5.68-7.29-6.81-15.04-6.97-19.02c-0.17-4.08,3-7.5,7.06-7.67c4.07-0.17,7.5,2.99,7.67,7.06
					c0.09,2.21,0.71,6.52,3.86,10.56c2.99,3.83,6.77,5.5,8.76,6.15C263.7,84.52,265.8,88.52,264.71,92.32z"/>
			</g>
		</g>
		
			<ellipse transform="matrix(0.0227 -0.9997 0.9997 0.0227 -215.0078 356.0591)" class="st8" cx="74.62" cy="288.01" rx="46.87" ry="16.76"/>
		
			<ellipse transform="matrix(0.1898 -0.9818 0.9818 0.1898 -24.3449 606.7521)" class="st8" cx="355.46" cy="318.13" rx="46.87" ry="16.76"/>
		<g>
			<path class="st2" d="M246.28,181.76c-0.78-0.08-2.62-0.04-6.29-0.01c-9.29,0.07-9.3,0.44-12.1,0.11
				c-2.8-0.33-2.41-0.65-10.83-2.57c-3.23-0.74-5.09-1.21-6.15-1.33c-11.72-1.26-21.95,4.48-22.85,12.82
				c-0.89,8.34,7.88,16.11,19.61,17.37c7.39,0.79,14.17-1.2,18.41-4.86c3.37,4.48,9.58,7.86,16.96,8.65
				c11.72,1.26,21.95-4.48,22.85-12.82C266.79,190.79,258.01,183.01,246.28,181.76z"/>
			<path class="st3" d="M251.06,225.25c-2.51,18.88-28.53,26.7-30.25,27.2c-1.58-0.85-25.35-14.01-23.8-32.99
				c1.15-14,15.86-28.74,30.25-27.2C241.66,193.8,252.91,211.33,251.06,225.25z"/>
		</g>
		<g>
			
				<ellipse transform="matrix(0.1066 -0.9943 0.9943 0.1066 -21.0872 321.7225)" class="st6" cx="168.49" cy="172.6" rx="23.86" ry="16.94"/>
			
				<ellipse transform="matrix(0.1066 -0.9943 0.9943 0.1066 73.5818 452.8991)" class="st6" cx="288.83" cy="185.5" rx="23.86" ry="16.94"/>
			<g class="st7">
				<path class="st12" d="M159.72,170.83c-0.9-0.1-1.64-0.83-1.7-1.77c-0.06-0.99-0.44-9.83,5.9-14.02
					c1.29-0.86,2.76-1.45,4.38-1.76c1.05-0.2,2.03,0.48,2.23,1.52c0.2,1.03-0.48,2.03-1.52,2.23c-1.11,0.21-2.12,0.61-2.99,1.19
					c-4.63,3.06-4.23,10.3-4.2,10.61c0.07,1.05-0.73,1.96-1.78,2.02C159.94,170.85,159.83,170.84,159.72,170.83z"/>
			</g>
			<g class="st7">
				<path class="st12" d="M296.68,185.52c0.9,0.1,1.78-0.47,2.03-1.37c0.27-0.96,2.51-9.51-2.8-14.96c-1.08-1.11-2.39-2-3.9-2.64
					c-0.98-0.42-2.09,0.04-2.5,1.01c-0.41,0.97,0.04,2.09,1.01,2.5c1.04,0.44,1.94,1.05,2.67,1.79c3.88,3.98,1.95,10.96,1.86,11.26
					c-0.29,1.01,0.3,2.07,1.31,2.35C296.46,185.49,296.57,185.51,296.68,185.52z"/>
			</g>
		</g>
		<path class="st5" d="M282.91,411.58c-3.29,0-6.19,1.58-8.05,4c-1.87-2.42-4.76-4-8.05-4c-3.29,0-6.19,1.58-8.05,4
			c-1.87-2.42-4.76-4-8.05-4c-5.64,0-10.21,4.57-10.21,10.21c0,5.64,4.57,10.21,10.21,10.21c3.29,0,6.19-1.58,8.05-4
			c1.87,2.42,4.76,4,8.05,4c3.29,0,6.19-1.58,8.05-4c1.87,2.42,4.76,4,8.05,4c5.64,0,10.21-4.57,10.21-10.21
			C293.12,416.15,288.55,411.58,282.91,411.58z"/>
		<path class="st5" d="M180.7,411.58c-3.29,0-6.19,1.58-8.05,4c-1.87-2.42-4.76-4-8.05-4s-6.19,1.58-8.05,4
			c-1.87-2.42-4.76-4-8.05-4c-5.64,0-10.21,4.57-10.21,10.21c0,5.64,4.57,10.21,10.21,10.21c3.29,0,6.19-1.58,8.05-4
			c1.87,2.42,4.76,4,8.05,4s6.19-1.58,8.05-4c1.87,2.42,4.76,4,8.05,4c5.64,0,10.21-4.57,10.21-10.21
			C190.91,416.15,186.33,411.58,180.7,411.58z"/>
	</g>
	<g>
		<g>
			<path class="st14" d="M172.51,23.6c-1.65-0.09-2.93,0-3.91,0.1c-0.46,0.05-1.43,0.08-1.88,0.05c-2.4-0.12-3.5-2.14-3.34-5.06
				c0.14-2.77,1.32-3.69,3.08-4.27c1.83-0.58,4.55-0.81,7.54-0.66c11.84,0.62,17.68,6.63,17.25,14.79
				c-0.34,6.52-4.43,10.06-11.65,13.28c-0.16,3.07-0.32,6.14-5.94,5.85c-2.77-0.14-4.08-0.96-4.7-1.97
				c-0.63-1.01-0.7-2.59-0.61-4.31c0.2-3.82,1.02-5.06,3.25-6.14c4.24-2.11,8.7-2.55,8.91-6.52
				C180.65,25.98,178.5,23.92,172.51,23.6z M172.9,63.72c-3.9-0.2-6.3-2.96-6.1-6.77c0.2-3.9,2.88-6.38,6.78-6.18
				c3.97,0.21,6.3,2.95,6.1,6.85C179.48,61.43,176.87,63.93,172.9,63.72z"/>
		</g>
		<g>
			<path class="st14" d="M111.86,18.53c-2.44,0.99-4.22,1.98-5.58,2.78c-0.62,0.38-2.01,1.07-2.68,1.35
				c-3.54,1.44-6.48-0.72-8.24-5.03c-1.66-4.09-0.58-6.21,1.55-8.24c2.25-2.08,6.01-4.25,10.43-6.05
				c17.48-7.11,29.97-2.4,34.88,9.66c3.92,9.62,0.41,17.5-7.82,27.03c1.85,4.53,3.69,9.07-4.6,12.45c-4.1,1.67-6.54,1.37-8.11,0.34
				c-1.59-1.03-2.75-3.26-3.79-5.81c-2.3-5.64-1.95-7.98,0.53-11.05c4.69-5.9,10.82-9.56,8.43-15.42
				C125.2,16.45,120.7,14.93,111.86,18.53z M139.54,76.11c-5.76,2.34-11.09,0-13.38-5.64c-2.34-5.76-0.16-11.15,5.6-13.49
				c5.86-2.39,11.08,0,13.43,5.75C147.48,68.37,145.4,73.72,139.54,76.11z"/>
		</g>
	</g>
</g>
</svg>
