<?xml version="1.0" encoding="utf-8"?>
<!-- Generator: Adobe Illustrator 23.0.1, SVG Export Plug-In . SVG Version: 6.00 Build 0)  -->
<svg version="1.1" id="Layer_1" xmlns="http://www.w3.org/2000/svg" xmlns:xlink="http://www.w3.org/1999/xlink" x="0px" y="0px"
	 viewBox="0 0 432 432" style="enable-background:new 0 0 432 432;" xml:space="preserve">
<style type="text/css">
	.st0{fill:#C1E237;}
	.st1{fill:#EEC823;}
	.st2{fill:#629CC8;}
	.st3{fill:#F7EA9D;}
	.st4{fill:#72BD23;}
	.st5{fill:#F7934C;}
	.st6{fill:#333333;}
	.st7{opacity:0.75;}
	.st8{fill:#FFD712;}
	.st9{fill:#333333;stroke:#333333;stroke-width:0.75;stroke-miterlimit:10;}
	.st10{opacity:0.75;fill:#FFFFFF;}
	.st11{fill:#FAF8EE;stroke:#E5E5E5;stroke-width:1.274;stroke-miterlimit:10;}
	.st12{fill:#F2F2F2;}
	.st13{fill:#FAF8EE;stroke:#E5E5E5;stroke-width:2.6924;stroke-miterlimit:10;}
	.st14{fill:#F8491A;}
	.st15{fill:#FFFFFF;}
	.st16{opacity:0.7;}
	.st17{fill:url(#SVGID_1_);}
	.st18{fill:url(#SVGID_2_);}
	.st19{fill:url(#SVGID_3_);}
	.st20{fill:url(#SVGID_4_);}
	.st21{fill:url(#SVGID_5_);}
	.st22{fill:url(#SVGID_6_);}
	.st23{fill:url(#SVGID_7_);}
	.st24{fill:url(#SVGID_8_);}
	.st25{fill:url(#SVGID_9_);}
	.st26{fill:url(#SVGID_10_);}
	.st27{fill:url(#SVGID_11_);}
	.st28{fill:url(#SVGID_12_);}
	.st29{fill:url(#SVGID_13_);}
	.st30{fill:url(#SVGID_14_);}
	.st31{fill:url(#SVGID_15_);}
	.st32{fill:url(#SVGID_16_);}
	.st33{fill:url(#SVGID_17_);}
	.st34{fill:url(#SVGID_18_);}
	.st35{fill:url(#SVGID_19_);}
	.st36{fill:url(#SVGID_20_);}
	.st37{fill:url(#SVGID_21_);}
	.st38{fill:url(#SVGID_22_);}
	.st39{fill:url(#SVGID_23_);}
	.st40{fill:url(#SVGID_24_);}
	.st41{fill:url(#SVGID_25_);}
	.st42{fill:url(#SVGID_26_);}
	.st43{fill:url(#SVGID_27_);}
	.st44{fill:url(#SVGID_28_);}
	.st45{fill:url(#SVGID_29_);}
	.st46{opacity:0.7;fill:url(#SVGID_30_);}
	.st47{fill:#41B695;}
	.st48{fill:#A2E7B1;}
	.st49{fill:#FF8B00;}
</style>
<g>
	<g>
		<g>
			<path class="st0" d="M379.07,208.33c-34.21,13.46-90.52,30.75-161.83,30.95c-72.08,0.21-129.05-17.12-163.59-30.63
				c-9.57,55.5-6.78,156.3,58.81,194.54c39.45,23.01,168.41,23.01,207.86,0C386.02,364.87,388.7,263.76,379.07,208.33z"/>
			<path class="st8" d="M379.07,208.33c-0.03-0.2-0.07-0.41-0.1-0.61C366.5,137.08,312.44,19.55,216.38,17.05
				C120.33,19.55,66.26,137.08,53.8,207.71c-0.05,0.3-0.1,0.63-0.15,0.93c17.49,9.91,45.13,22.86,81.22,29.32
				c34.11,6.11,63,4.15,82.38,1.31c18.8,2.72,45.86,4.47,77.62-0.83C332.5,232.18,361.2,218.59,379.07,208.33z"/>
			<g>
				<path class="st8" d="M244.51,46.93c-0.73,4.19-4.55,7.21-8.88,6.87c-7.73-0.62-19.25-3.15-30.21-11.73
					c-13.62-10.66-18.47-24.54-20.15-31.87c-1.03-4.48,1.78-8.96,6.27-9.99c4.49-1.03,8.97,1.78,9.99,6.27
					c1.19,5.17,4.6,14.97,14.17,22.45c8.1,6.34,16.79,7.88,21.25,8.23c4.59,0.37,8.02,4.38,7.65,8.98
					C244.59,46.41,244.56,46.68,244.51,46.93z"/>
			</g>
			<g>
				<path class="st8" d="M246.45,39.55c-0.02,0.1-0.04,0.21-0.06,0.3c-0.96,4.51-5.39,7.38-9.9,6.42
					c-7.21-1.53-13.99-5.29-19.11-10.57c-7.27-7.51-9.47-16.1-10.14-20.56c-0.68-4.57,2.47-8.8,7.02-9.48
					c4.56-0.68,8.8,2.46,9.48,7.02c0.37,2.47,1.59,7.25,5.62,11.41c3.83,3.95,8.28,5.37,10.6,5.86
					C244.37,30.9,247.22,35.15,246.45,39.55z"/>
			</g>
		</g>
		
			<ellipse transform="matrix(0.9965 -0.084 0.084 0.9965 -23.5441 5.7197)" class="st8" cx="56.2" cy="282.66" rx="18.97" ry="53.03"/>
		
			<ellipse transform="matrix(0.084 -0.9965 0.9965 0.084 62.5764 633.3837)" class="st8" cx="375.8" cy="282.66" rx="53.03" ry="18.97"/>
		<g>
			<path class="st2" d="M236.51,142.4c-0.89,0-2.95,0.27-7.08,0.75c-10.45,1.21-10.41,1.62-13.6,1.58
				c-3.19-0.03-2.79-0.44-12.49-1.58c-3.72-0.44-5.88-0.75-7.08-0.75c-13.34,0-24.16,7.69-24.16,17.18
				c0,9.49,10.82,17.18,24.16,17.18c8.41,0,15.8-3.06,20.13-7.69c4.33,4.63,11.72,7.69,20.13,7.69c13.34,0,24.16-7.69,24.16-17.18
				C260.67,150.09,249.85,142.4,236.51,142.4z"/>
			<path class="st3" d="M247.14,190.75c-0.54,21.55-28.88,33.49-30.75,34.25c-1.88-0.76-30.21-12.7-30.75-34.25
				c-0.4-15.88,14.37-34.25,30.75-34.25S247.54,174.87,247.14,190.75z"/>
		</g>
		<path class="st5" d="M292.44,408.89c-3.72,0-7,1.79-9.11,4.53c-2.11-2.74-5.39-4.53-9.11-4.53s-7,1.79-9.11,4.53
			c-2.11-2.74-5.39-4.53-9.11-4.53c-6.38,0-11.55,5.17-11.55,11.55c0,6.38,5.17,11.55,11.55,11.55c3.72,0,7-1.79,9.11-4.53
			c2.11,2.74,5.39,4.53,9.11,4.53s7-1.79,9.11-4.53c2.11,2.74,5.39,4.53,9.11,4.53c6.38,0,11.55-5.17,11.55-11.55
			C303.99,414.07,298.82,408.89,292.44,408.89z"/>
		<path class="st5" d="M176.78,408.89c-3.72,0-7,1.79-9.11,4.53c-2.11-2.74-5.39-4.53-9.11-4.53s-7,1.79-9.11,4.53
			c-2.11-2.74-5.39-4.53-9.11-4.53c-6.38,0-11.55,5.17-11.55,11.55c0,6.38,5.17,11.55,11.55,11.55c3.72,0,7-1.79,9.11-4.53
			c2.11,2.74,5.39,4.53,9.11,4.53s7-1.79,9.11-4.53c2.11,2.74,5.39,4.53,9.11,4.53c6.38,0,11.55-5.17,11.55-11.55
			C188.34,414.07,183.16,408.89,176.78,408.89z"/>
	</g>
	<g>
		<g>
			<path class="st6" d="M163.07,152.38c-2.38,0-4.47-1.74-4.84-4.16c-1.28-8.37-8.77-14.57-16.71-13.73
				c-6.8,0.69-12.48,6.44-13.5,13.67c-0.38,2.68-2.86,4.54-5.54,4.17c-2.68-0.38-4.55-2.86-4.17-5.54
				c1.65-11.64,10.99-20.91,22.22-22.05c13.09-1.34,25.33,8.55,27.39,22c0.41,2.68-1.43,5.18-4.1,5.58
				C163.56,152.36,163.31,152.38,163.07,152.38z"/>
		</g>
	</g>
	<g>
		<g>
			<path class="st6" d="M306.75,152.38c-2.38,0-4.47-1.74-4.84-4.16c-1.28-8.37-8.77-14.54-16.71-13.73
				c-6.8,0.69-12.48,6.44-13.5,13.67c-0.38,2.68-2.86,4.54-5.54,4.17c-2.68-0.38-4.55-2.86-4.17-5.54
				c1.64-11.64,10.99-20.91,22.22-22.05c13.09-1.34,25.34,8.55,27.39,22c0.41,2.68-1.43,5.18-4.1,5.58
				C307.25,152.36,307,152.38,306.75,152.38z"/>
		</g>
	</g>
</g>
</svg>
