<?xml version="1.0" encoding="utf-8"?>
<!-- Generator: Adobe Illustrator 23.0.1, SVG Export Plug-In . SVG Version: 6.00 Build 0)  -->
<svg version="1.1" id="Layer_1" xmlns="http://www.w3.org/2000/svg" xmlns:xlink="http://www.w3.org/1999/xlink" x="0px" y="0px"
	 viewBox="0 0 432 432" style="enable-background:new 0 0 432 432;" xml:space="preserve">
<style type="text/css">
	.st0{fill:#C1E237;}
	.st1{fill:#EEC823;}
	.st2{fill:#629CC8;}
	.st3{fill:#F7EA9D;}
	.st4{fill:#72BD23;}
	.st5{fill:#F7934C;}
	.st6{fill:#333333;}
	.st7{opacity:0.75;}
	.st8{fill:#FFD712;}
	.st9{fill:#333333;stroke:#333333;stroke-width:0.75;stroke-miterlimit:10;}
	.st10{opacity:0.75;fill:#FFFFFF;}
	.st11{fill:#FAF8EE;stroke:#E5E5E5;stroke-width:1.274;stroke-miterlimit:10;}
	.st12{fill:#F2F2F2;}
	.st13{fill:#D9F0EA;stroke:#B3E2D5;stroke-miterlimit:10;}
	.st14{fill:#F8491A;}
	.st15{fill:#FFFFFF;}
	.st16{opacity:0.7;}
	.st17{fill:url(#SVGID_1_);}
	.st18{fill:url(#SVGID_2_);}
	.st19{fill:url(#SVGID_3_);}
	.st20{fill:url(#SVGID_4_);}
	.st21{fill:url(#SVGID_5_);}
	.st22{fill:url(#SVGID_6_);}
	.st23{fill:url(#SVGID_7_);}
	.st24{fill:url(#SVGID_8_);}
	.st25{fill:url(#SVGID_9_);}
	.st26{fill:url(#SVGID_10_);}
	.st27{fill:url(#SVGID_11_);}
	.st28{fill:url(#SVGID_12_);}
	.st29{fill:url(#SVGID_13_);}
	.st30{fill:url(#SVGID_14_);}
	.st31{fill:url(#SVGID_15_);}
	.st32{fill:url(#SVGID_16_);}
	.st33{fill:url(#SVGID_17_);}
	.st34{fill:url(#SVGID_18_);}
	.st35{fill:url(#SVGID_19_);}
	.st36{fill:url(#SVGID_20_);}
	.st37{fill:url(#SVGID_21_);}
	.st38{fill:url(#SVGID_22_);}
	.st39{fill:url(#SVGID_23_);}
	.st40{fill:url(#SVGID_24_);}
	.st41{fill:url(#SVGID_25_);}
	.st42{fill:url(#SVGID_26_);}
	.st43{fill:url(#SVGID_27_);}
	.st44{fill:url(#SVGID_28_);}
	.st45{fill:url(#SVGID_29_);}
	.st46{opacity:0.7;fill:url(#SVGID_30_);}
	.st47{fill:#41B695;}
	.st48{fill:#A2E7B1;}
	.st49{fill:#FF8B00;}
</style>
<g>
	<g>
		<g>
			<path class="st0" d="M356.95,180.72c-29.67,11.68-78.53,26.67-140.38,26.85c-62.53,0.18-111.95-14.85-141.91-26.57
				c-8.3,48.14-5.88,135.58,51.01,168.76c34.22,19.96,146.09,19.96,180.31,0C362.99,316.51,365.31,228.8,356.95,180.72z"/>
			<path class="st8" d="M356.95,180.72c-0.03-0.17-0.06-0.36-0.09-0.53c-10.81-61.27-57.71-163.23-141.04-165.39
				C132.51,16.96,85.61,118.91,74.8,180.18c-0.05,0.26-0.09,0.54-0.13,0.81c15.17,8.6,39.15,19.83,70.45,25.44
				c29.59,5.3,54.65,3.6,71.46,1.14c16.31,2.36,39.78,3.88,67.33-0.72C316.56,201.4,341.45,189.61,356.95,180.72z"/>
			<g>
				<path class="st8" d="M240.23,40.71c-0.64,3.64-3.95,6.26-7.7,5.96c-6.71-0.53-16.7-2.73-26.21-10.17
					c-11.81-9.25-16.02-21.29-17.48-27.65c-0.89-3.89,1.54-7.77,5.44-8.67c3.9-0.89,7.78,1.54,8.67,5.44
					c1.03,4.49,3.99,12.98,12.29,19.48c7.02,5.5,14.56,6.83,18.44,7.14c3.98,0.32,6.96,3.8,6.64,7.79
					C240.3,40.26,240.27,40.49,240.23,40.71z"/>
			</g>
			<g>
				<path class="st8" d="M241.91,34.31c-0.02,0.09-0.03,0.18-0.05,0.26c-0.83,3.91-4.68,6.4-8.59,5.57
					c-6.25-1.33-12.14-4.59-16.58-9.17c-6.31-6.52-8.22-13.97-8.79-17.83c-0.59-3.96,2.14-7.63,6.09-8.22
					c3.95-0.59,7.64,2.14,8.22,6.09c0.32,2.15,1.38,6.29,4.87,9.9c3.32,3.43,7.18,4.66,9.19,5.08
					C240.11,26.8,242.58,30.49,241.91,34.31z"/>
			</g>
		</g>
		
			<ellipse transform="matrix(0.9965 -0.084 0.084 0.9965 -20.3241 7.3242)" class="st8" cx="76.88" cy="245.19" rx="16.45" ry="46"/>
		
			<ellipse transform="matrix(0.084 -0.9965 0.9965 0.084 80.0465 577.4612)" class="st8" cx="354.12" cy="245.19" rx="46" ry="16.45"/>
		<g>
			<path class="st2" d="M233.29,123.53c-0.77,0-2.56,0.24-6.14,0.65c-9.06,1.05-9.03,1.4-11.8,1.37c-2.76-0.03-2.42-0.38-10.84-1.37
				c-3.23-0.38-5.1-0.65-6.14-0.65c-11.57,0-20.96,6.67-20.96,14.9c0,8.23,9.38,14.9,20.96,14.9c7.29,0,13.71-2.65,17.46-6.67
				c3.75,4.02,10.17,6.67,17.46,6.67c11.57,0,20.96-6.67,20.96-14.9C254.25,130.2,244.87,123.53,233.29,123.53z"/>
			<path class="st3" d="M242.51,165.47c-0.47,18.69-25.05,29.05-26.68,29.71c-1.63-0.66-26.21-11.02-26.68-29.71
				c-0.35-13.78,12.47-29.71,26.68-29.71S242.86,151.69,242.51,165.47z"/>
		</g>
		<g>
			<ellipse class="st6" cx="156.41" cy="122.73" rx="16.62" ry="23.42"/>
			<ellipse class="st6" cx="275.2" cy="122.73" rx="16.62" ry="23.42"/>
			<g class="st7">
				<path class="st12" d="M147.67,121.93c-0.89,0-1.68-0.64-1.84-1.55c-0.16-0.96-1.46-9.55,4.29-14.31
					c1.17-0.97,2.55-1.7,4.09-2.17c1-0.3,2.03,0.26,2.33,1.25s-0.26,2.03-1.25,2.33c-1.06,0.32-2,0.82-2.79,1.47
					c-4.2,3.47-3.05,10.49-2.99,10.79c0.18,1.02-0.51,1.98-1.53,2.16C147.88,121.92,147.77,121.93,147.67,121.93z"/>
			</g>
			<g class="st7">
				<path class="st12" d="M282.87,121.93c0.89,0,1.68-0.64,1.84-1.55c0.16-0.96,1.46-9.55-4.29-14.31c-1.17-0.97-2.55-1.7-4.09-2.17
					c-1-0.3-2.03,0.26-2.33,1.25s0.26,2.03,1.25,2.33c1.06,0.32,2,0.82,2.79,1.47c4.2,3.47,3.05,10.49,2.99,10.79
					c-0.18,1.02,0.51,1.98,1.53,2.16C282.65,121.92,282.76,121.93,282.87,121.93z"/>
			</g>
		</g>
		<path class="st5" d="M281.81,354.7c-3.23,0-6.07,1.55-7.91,3.93c-1.83-2.37-4.67-3.93-7.91-3.93s-6.07,1.55-7.91,3.93
			c-1.83-2.37-4.67-3.93-7.91-3.93c-5.53,0-10.02,4.49-10.02,10.02c0,5.53,4.49,10.02,10.02,10.02c3.23,0,6.07-1.55,7.91-3.93
			c1.83,2.37,4.67,3.93,7.91,3.93s6.07-1.55,7.91-3.93c1.83,2.37,4.67,3.93,7.91,3.93c5.53,0,10.02-4.49,10.02-10.02
			C291.83,359.19,287.34,354.7,281.81,354.7z"/>
		<path class="st5" d="M181.48,354.7c-3.23,0-6.07,1.55-7.91,3.93c-1.83-2.37-4.67-3.93-7.91-3.93c-3.23,0-6.07,1.55-7.91,3.93
			c-1.83-2.37-4.67-3.93-7.91-3.93c-5.53,0-10.02,4.49-10.02,10.02c0,5.53,4.49,10.02,10.02,10.02c3.23,0,6.07-1.55,7.91-3.93
			c1.83,2.37,4.67,3.93,7.91,3.93c3.23,0,6.07-1.55,7.91-3.93c1.83,2.37,4.67,3.93,7.91,3.93c5.53,0,10.02-4.49,10.02-10.02
			C191.5,359.19,187.01,354.7,181.48,354.7z"/>
	</g>
	<path class="st13" d="M397.2,255.83l-28.74-44.51l-50.53,48.45l-49.58-47.54l-55.27,47.39l-49.42-47.39l-49.58,47.54l-50.53-48.45
		L34.8,255.83l-2.36-8.46c0.39,38.66,8,82.37,34.76,119.76c54.32,75.9,143.72,64.6,148.8,63.86c5.08,0.74,94.48,12.04,148.8-63.86
		c26.77-37.4,34.37-81.1,34.76-119.76L397.2,255.83z"/>
</g>
</svg>
