<svg id="Layer_1" data-name="Layer 1" xmlns="http://www.w3.org/2000/svg" width="8in" height="8in" viewBox="0 0 576 576"><title>contact</title><path d="M388.1,323.2a121.3,121.3,0,0,0-50.3-38.9A86.9,86.9,0,1,0,236.3,283a112.7,112.7,0,0,0-51.7,40.6c-19.9,28-30.4,67-30.4,112.8v13.4H421.8V436.4C421.8,391.1,410.2,352,388.1,323.2ZM226,213.1a62,62,0,1,1,112.3,36.2c-11.8,16.4-31.2,25.5-51.4,25.3h-3.4a44.1,44.1,0,0,1-9.6-1A62.1,62.1,0,0,1,226,213.1ZM181.4,422.9c2.5-44.9,19.1-121.6,103.5-121.6,50.7,0,104.8,32.3,109.7,121.6Z"/></svg>