<svg xmlns="http://www.w3.org/2000/svg" width="8in" height="8in" viewBox="0 0 576 576"><path d="M194.2 252a46 46 0 0 1 17.6-3.4h200.4l-31.1-103.9a37.3 37.3 0 0 0-35.6-26.5 36.5 36.5 0 0 0-10.7 1.6L73.5 198.1a37.1 37.1 0 0 0-24.9 46.2l35.6 118.9a37.2 37.2 0 0 0 35.5 26.4 38.9 38.9 0 0 0 10.7-1.5l42.1-12.6v-87.2a46.6 46.6 0 0 1 2.6-15.7c3.6-10 9.1-16.5 19.1-20.6zm-36.9 14.3a64.3 64.3 0 0 0-3.7 22v73.1L125 370a18.8 18.8 0 0 1-5.3.7 18.3 18.3 0 0 1-17.4-13L66.7 238.9a18.2 18.2 0 0 1 1.4-13.9 17.9 17.9 0 0 1 10.8-8.8l261.3-78.3a19.5 19.5 0 0 1 5.3-.8 18.5 18.5 0 0 1 17.5 13l23.8 79.6h-175a65 65 0 0 0-24.9 4.8c-14.4 6-24.1 16.4-29.6 31.8z"/><path d="M491.9 259.5H219a37.1 37.1 0 0 0-37.1 37.1v124.1a37.1 37.1 0 0 0 37.1 37.1h272.9a37.1 37.1 0 0 0 37.1-37.1V296.6a37.1 37.1 0 0 0-37.1-37.1zM219 278.4h272.9a18.2 18.2 0 0 1 18.2 18.2v8.7H200.8v-8.7a18.2 18.2 0 0 1 18.2-18.2zm272.9 160.5H219a18.3 18.3 0 0 1-18.2-18.2v-77.6h309.3v77.6a18.3 18.3 0 0 1-18.2 18.2z"/></svg>