<svg id="Layer_1" data-name="Layer 1" xmlns="http://www.w3.org/2000/svg" width="8in" height="8in" viewBox="0 0 576 576"><title>education</title><path d="M510.1,221.6a26.3,26.3,0,0,0-8.4-4.1L303.1,155.9a51.5,51.5,0,0,0-30.6,0L75.4,217.1l-1.1.3c-4.4,1.3-14.6,4.3-14.3,16.2a14.5,14.5,0,0,0,6,11.8,27.1,27.1,0,0,0,8,3.5l1.3.4h0l91.4,28.4,104.8,32.5a54.4,54.4,0,0,0,16.4,2.5,55.5,55.5,0,0,0,16.5-2.5l89.3-27.7,44.4-13.8V414.5a8,8,0,0,0,16,0V263.7l47-14.6a27.7,27.7,0,0,0,8.7-4,14.4,14.4,0,0,0,.3-23.5Zm-13.8,12.3L389,267.2l-89.4,27.7a37.4,37.4,0,0,1-23.4,0L171.5,262.4C128.1,249,87.1,236.3,80.1,234l-1.5-.4-1.3-.4,1.5-.5,1.3-.4c64.4-20,130.7-40.6,197.2-61.1a34.6,34.6,0,0,1,21.1,0c68,21,134.8,41.8,198.5,61.6l1.4.4Z"/><path d="M410.3,306.5a18.3,18.3,0,0,0-.3-3.5c0-.4-.1-.8-.1-1.2l-1-9.4-9.1,2.6-1.6.4-3.1.9-4.2,1.3-87.8,27.2a49.6,49.6,0,0,1-30,.1l-44-13.7-24.3-7.5-19.4-6-9.5-2.9-10.3-3.2v10.8c0,6.7-.1,13.4-.1,19.8-.1,15.6-.3,30.3.3,45.3.7,18.4,13.7,33.1,32.4,36.6a485.3,485.3,0,0,0,89.7,8.3,494.4,494.4,0,0,0,89.8-8.3c19.4-3.7,32.5-19.8,32.6-40.2.1-14.9.1-29.9,0-44.5Zm-16,57.3c0,12.9-7.6,22.3-19.6,24.6a471.3,471.3,0,0,1-173.6,0c-11.3-2.1-18.9-10.6-19.3-21.5-.6-14.7-.5-29.2-.3-44.5v-9.2l18.6,5.8,24.2,7.5,44.1,13.7a65.7,65.7,0,0,0,39.5-.2l86.5-26.8v6.2C394.4,334,394.4,349,394.3,363.8Z"/></svg>