<svg id="Layer_1" data-name="Layer 1" xmlns="http://www.w3.org/2000/svg" width="8in" height="8in" viewBox="0 0 576 576"><title>email</title><path d="M146.7,401.3a11.9,11.9,0,0,1-8.8-10.9V187c0-7.8,4.9-12.8,12.7-12.7l274.7,1.4c7.9.1,12.7,4.8,12.7,12.7,0,67.9-.1,132,.1,199.9,0,7.7-5,13.5-13.3,13.4C378.5,401.6,148.3,401.6,146.7,401.3Zm252.6-28.1-69.9-82c-2.9-3.3-8.9-2.8-12.4-.2-7.4,5.6-14,11-21,16-5.4,4.5-12.2,4.6-17.6.2s-20.2-14.5-20.6-14.8c-3.3-2.7-9-1.1-11.8,2.1-23.3,26.3-46.4,52.5-69.6,79-3.5,4-2,6.5,2.6,6.5H397.7C400.9,380,403.3,377.8,399.3,373.2ZM291.7,280.6c31.9-26.5,80.9-66.2,96.9-79.5a2.3,2.3,0,0,0-1.5-4l-198.7-1a2.3,2.3,0,0,0-1.5,4c15.7,13.4,63.5,53.6,94.5,80.4A7.9,7.9,0,0,0,291.7,280.6Zm-62.9-14.5-65.4-56.7c-1.5-1.3-3.8,3.6-3.8,5.5V350.6a2.3,2.3,0,0,0,4,1.5l65.8-74.7A8,8,0,0,0,228.8,266.1Zm118.7,11.1L412.2,353c2.6,3.1,4.1-1.2,4.1-3.3V215.8c0-2-4.1-4.9-5.6-3.7L346.5,266C343.1,268.8,344.6,273.8,347.5,277.2Z"/></svg>