<svg id="Layer_1" data-name="Layer 1" xmlns="http://www.w3.org/2000/svg" width="8in" height="8in" viewBox="0 0 576 576"><title>entertainment</title><path d="M437.5,118.2a4.9,4.9,0,0,1,4.8,4.9v38.2c0,68.2-.2,136.4.1,204.6.1,31.3-17,48.3-41.9,57.5-6.5,2.4-16.5,3.8-26.2,3.8-7.7,0-15.1-.9-20.4-2.7-16.3-5.6-24.4-20.9-19.4-37.4,5.7-18.5,19.6-29.2,36.7-36.2a56.2,56.2,0,0,1,33.6-3.3h1a5,5,0,0,0,4.9-5V213.9a4.9,4.9,0,0,0-4.9-4.9H405l-25.3,4.3c-47.7,8.2-84.4,16.4-132.1,24.4-3.7.6-4.9,1.8-4.9,5.6.2,50.8-.5,101.5.3,152.3.5,35.7-22.2,52.8-46.6,59.9-5.1,1.5-13.1,2.3-21,2.3s-15.1-.7-19.9-2.3c-17.9-5.8-26.3-22.4-19.6-40,7.9-20.6,24.5-31.2,44.9-36.8a50.2,50.2,0,0,1,13.3-1.8,53.4,53.4,0,0,1,11.7,1.4h1.1a4.8,4.8,0,0,0,4.8-4.9V373q0-105.3,0-210.7c-.1-4.2.9-5.8,5.4-6.6,69.5-12.3,150-24.9,219.5-37.4h.9m0-19.6a20.9,20.9,0,0,0-4.3.4h-.1c-36.6,6.6-76.9,13.3-115.9,19.8-34.7,5.8-70.6,11.8-103.5,17.6-7.2,1.3-12.7,4.4-16.6,9.4a25.7,25.7,0,0,0-5,16.6v195a67.1,67.1,0,0,0-16.5,2.4c-29.1,7.9-48.7,24.3-58,48.6-5.1,13.5-4.8,27.5,1,39.6s16.8,21.6,30.8,26.1c8.4,2.7,18.7,3.3,26,3.3,4.8,0,16.9-.3,26.4-3.1,17.4-5,31.5-13.4,41.8-24.9a72.3,72.3,0,0,0,14.2-23.7,85.8,85.8,0,0,0,4.8-30.4c-.5-32.8-.4-66.2-.3-98.5,0-13.7.1-27.8,0-41.8,20.3-3.5,38.9-7.1,57-10.6,20.1-3.9,40.8-7.9,63.7-11.8l8.1-1.3v95.5a80.7,80.7,0,0,0-27.4,5.9c-11.5,4.8-20.9,10.5-28.5,17.6a69.9,69.9,0,0,0-19.4,31.1c-3.9,12.9-2.9,26.2,3,37.5A50.3,50.3,0,0,0,347.5,443c9,3.1,19.5,3.8,26.8,3.8,12.4,0,24.5-1.8,33-5,45.4-16.8,54.8-50.6,54.7-75.9-.2-48.4-.2-97.7-.1-145.3V123.1a24.5,24.5,0,0,0-24.4-24.5Z"/></svg>