<svg xmlns="http://www.w3.org/2000/svg" width="8in" height="8in" viewBox="0 0 576 576"><path d="M375.4 113.1l-10.1-.9c-23.3-2.2-47.5-4.5-72.2 4.4-29.2 10.5-47.9 33.3-52.7 64.1-2.2 14.2-2.5 28.4-2.8 42.3 0 3.4-.1 7-.2 10.6h-4.1c-9.4 0-19.1-.1-28.6-.3a19.1 19.1 0 0 0-14.1 5.5 19.4 19.4 0 0 0-5.9 14c.1 16-.1 32.9-.5 50.1 0 2.2-.2 9.1 5.1 14.4 3.4 3.5 8.1 5.2 13.9 5.2h21.1l12.1.2c-.5 39.5-1.1 99.1-1.3 117.4a25.9 25.9 0 0 0 7.4 18.2 25.6 25.6 0 0 0 18.1 7.5h40.3a25.6 25.6 0 0 0 25.5-25.1c.3-23.6 1-79.9 1.2-117.1l16 .2c5.8 0 11.7 0 17.5.2s10.6-1.6 14.1-5.1 4.7-8.7 5.5-14.9c2.3-16.8 4.2-32.9 6.8-47.8 1.3-7.5-.5-12.4-2.8-15.2-5-6.2-12.3-6.1-14.7-6.1h-.4l-33-.4h-7.9c0-1.8 0-3.5.1-5.2.1-9.2.3-17.9 1.2-26.4.4-3.7 1.2-6.3 8-6.4 9.6-.3 20.1-.2 32.2.1 2.4.1 10 .3 15.7-5.3 3.8-3.7 5.6-8.8 5.6-15.2-.2-9.8 0-19.9.1-29.7.1-4.4.1-8.9.2-13.3v-.6c.3-17.1-13.6-19.2-16.4-19.4zm-11 33c-.1 6.1-.2 12.4-.2 18.7a4.4 4.4 0 0 1-4.4 4.4c-8.1-.2-15.5-.1-22.5 0-19.2.5-32.4 12.3-34.4 30.7-1 9.8-1.2 19.5-1.4 28.9 0 2.5-.1 4.9-.1 7.4-.2 7.3-.4 14.2 5 19.8s11.9 5.6 19.5 5.7h26.6a5.4 5.4 0 0 1 5.3 6c-.9 8.1-2.1 16.1-3.4 24.1a5.5 5.5 0 0 1-5.4 4.6h-5.2c-7.4 0-15-.1-22.3-.3-2.7-.1-9.9-.4-15.5 5s-5.6 12.6-5.6 15c-.2 31.4-.7 81.7-1.1 111.2a11.3 11.3 0 0 1-11.3 11.3h-14.2a11.2 11.2 0 0 1-11.3-11.4c.3-27.7.8-80 1.2-112.5q.2-8.8-5.1-14.1c-5.2-5.2-12.1-5.2-14.3-5.2h-27.9a4.8 4.8 0 0 1-4.7-4.8c.1-8.5.2-16.9.3-25.1a4.7 4.7 0 0 1 4.7-4.7l16.4.2h9.9c14.6.2 20.8-5.7 21.4-20v-.6c.2-5.6.4-11.2.5-16.7.2-13.5.5-26.3 2.4-38.6 3.3-21.1 15.1-35.5 35.1-42.7 18.4-6.6 38-5 58.7-3.1a3.7 3.7 0 0 1 3.3 3.7z"/></svg>