<svg id="Layer_1" data-name="Layer 1" xmlns="http://www.w3.org/2000/svg" width="8in" height="8in" viewBox="0 0 576 576"><title>gifts</title><path d="M258.1,325.3V478.1H150.5a19.4,19.4,0,0,1-19.3-19.3V325.3H258.1M278,305.4H111.3V458.8A39.1,39.1,0,0,0,150.5,498H278V305.4Z"/><path d="M425.5,193.8A19.3,19.3,0,0,1,444.8,213v52.5H317.9V193.8H425.5m0-20H298V285.4H464.7V213a39.2,39.2,0,0,0-39.2-39.2Z"/><path d="M258.1,193.8v71.7H131.2V213a19.3,19.3,0,0,1,19.3-19.2H258.1m19.9-20H150.5A39.2,39.2,0,0,0,111.3,213v72.4H278V173.8Z"/><path d="M444.8,325.3V458.8a19.4,19.4,0,0,1-19.3,19.3H317.9V325.3H444.8m19.9-19.9H298V498H425.5a39.1,39.1,0,0,0,39.2-39.2V305.4Z"/><path d="M278.1,155.9H210.4a55.5,55.5,0,0,1-39.9-16.7c-10.3-10.7-10.8-20.4-9.5-26.6,2.4-11.6,13-21.1,32.2-29s35.3-7.5,49.4.7c12.1,7.1,21.5,19.5,28,36.9a111.6,111.6,0,0,1,6,23.5Zm-59.3-58c-5.4,0-11.4,1.4-18,4.1-17.5,7.2-20,13.1-20.3,14.7s2.5,6.7,4.4,8.7A35.3,35.3,0,0,0,210.4,136h44c-3.3-11.9-10.1-27.7-21.8-34.5A27.3,27.3,0,0,0,218.8,97.9Z"/><path d="M365.6,155.9H297.9l1.5-11.2a111.6,111.6,0,0,1,6-23.5c6.5-17.4,15.9-29.8,28-36.9,14.1-8.2,30.7-8.4,49.4-.7s29.8,17.4,32.2,29c1.3,6.2.8,15.9-9.5,26.6A55.5,55.5,0,0,1,365.6,155.9Zm-44-19.9h44a35.3,35.3,0,0,0,25.5-10.6c1.9-2,5-5.8,4.4-8.7s-2.8-7.5-20.3-14.7c-12.8-5.3-23.2-5.4-31.8-.5C331.7,108.3,324.9,124.1,321.6,136Z"/></svg>