<svg xmlns="http://www.w3.org/2000/svg" width="8in" height="8in" viewBox="0 0 576 576"><path d="M258.1 325.3v152.8H150.5a19.4 19.4 0 0 1-19.3-19.3V325.3h126.9m19.9-19.9H111.3v153.4a39.1 39.1 0 0 0 39.2 39.2H278V305.4zm147.5-111.6a19.3 19.3 0 0 1 19.3 19.2v52.5H317.9v-71.7h107.6m0-20H298v111.6h166.7V213a39.2 39.2 0 0 0-39.2-39.2zm-167.4 20v71.7H131.2V213a19.3 19.3 0 0 1 19.3-19.2h107.6m19.9-20H150.5a39.2 39.2 0 0 0-39.2 39.2v72.4H278V173.8zm166.8 151.5v133.5a19.4 19.4 0 0 1-19.3 19.3H317.9V325.3h126.9m19.9-19.9H298V498h127.5a39.1 39.1 0 0 0 39.2-39.2V305.4zM278.1 155.9h-67.7a55.5 55.5 0 0 1-39.9-16.7c-10.3-10.7-10.8-20.4-9.5-26.6 2.4-11.6 13-21.1 32.2-29s35.3-7.5 49.4.7c12.1 7.1 21.5 19.5 28 36.9a111.6 111.6 0 0 1 6 23.5zm-59.3-58c-5.4 0-11.4 1.4-18 4.1-17.5 7.2-20 13.1-20.3 14.7s2.5 6.7 4.4 8.7a35.3 35.3 0 0 0 25.5 10.6h44c-3.3-11.9-10.1-27.7-21.8-34.5a27.3 27.3 0 0 0-13.8-3.6zm146.8 58h-67.7l1.5-11.2a111.6 111.6 0 0 1 6-23.5c6.5-17.4 15.9-29.8 28-36.9 14.1-8.2 30.7-8.4 49.4-.7s29.8 17.4 32.2 29c1.3 6.2.8 15.9-9.5 26.6a55.5 55.5 0 0 1-39.9 16.7zm-44-19.9h44a35.3 35.3 0 0 0 25.5-10.6c1.9-2 5-5.8 4.4-8.7s-2.8-7.5-20.3-14.7c-12.8-5.3-23.2-5.4-31.8-.5-11.7 6.8-18.5 22.6-21.8 34.5z"/></svg>