<svg id="Layer_1" data-name="Layer 1" xmlns="http://www.w3.org/2000/svg" xmlns:xlink="http://www.w3.org/1999/xlink" width="912.2" height="141" viewBox="0 0 912.2 141"><defs><linearGradient id="linear-gradient" x1="614.48" y1="70.52" x2="915.7" y2="70.52" gradientTransform="translate(1530.2 141) rotate(-180)" gradientUnits="userSpaceOnUse"><stop offset="0" stop-color="#c3ea6d"/><stop offset="0.99" stop-color="#75ed9a"/></linearGradient><linearGradient id="linear-gradient-2" x1="0.5" y1="70.52" x2="588.93" y2="70.52" gradientTransform="matrix(1, 0, 0, 1, 0, 0)" xlink:href="#linear-gradient"/><radialGradient id="radial-gradient" cx="624.68" cy="70.52" r="70.52" gradientTransform="matrix(1, 0, 0, 1, 0, 0)" xlink:href="#linear-gradient"/></defs><title>green-scaled</title><path d="M651.4,37.1H912.2a0,0,0,0,1,0,0v66.8a0,0,0,0,1,0,0H651.4A33.4,33.4,0,0,1,618,70.5v0a33.4,33.4,0,0,1,33.4-33.4Z" transform="translate(1530.2 141) rotate(180)" fill="#fff" stroke-miterlimit="10" stroke-width="7" stroke="url(#linear-gradient)"/><path d="M33.9,37.1h555a0,0,0,0,1,0,0v66.8a0,0,0,0,1,0,0H33.9A33.4,33.4,0,0,1,.5,70.5v0A33.4,33.4,0,0,1,33.9,37.1Z" stroke="#fff" stroke-miterlimit="10" fill="url(#linear-gradient-2)"/><circle cx="624.7" cy="70.5" r="70.5" fill="url(#radial-gradient)"/></svg>