<?xml version="1.0" encoding="utf-8"?>
<!-- Generator: Adobe Illustrator 23.0.2, SVG Export Plug-In . SVG Version: 6.00 Build 0)  -->
<svg version="1.1" id="Layer_1" xmlns="http://www.w3.org/2000/svg" xmlns:xlink="http://www.w3.org/1999/xlink" x="0px" y="0px"
	 viewBox="0 0 144 144" style="enable-background:new 0 0 144 144;" xml:space="preserve">
<style type="text/css">
	.st0{fill:url(#SVGID_1_);}
	.st1{fill:#E3E3E3;}
	.st2{fill:url(#SVGID_2_);}
	.st3{fill:url(#SVGID_3_);}
	.st4{fill:#FFFFFF;}
</style>
<g>
	<radialGradient id="SVGID_1_" cx="72" cy="72" r="63" gradientUnits="userSpaceOnUse">
		<stop  offset="0" style="stop-color:#6EED9E"/>
		<stop  offset="1" style="stop-color:#C3EA60"/>
	</radialGradient>
	<circle class="st0" cx="72" cy="72" r="63"/>
	<path class="st1" d="M72,10.5c33.97,0,61.5,27.53,61.5,61.5s-27.53,61.5-61.5,61.5S10.5,105.97,10.5,72S38.03,10.5,72,10.5 M72,7.5
		C36.43,7.5,7.5,36.43,7.5,72s28.93,64.5,64.5,64.5s64.5-28.93,64.5-64.5S107.57,7.5,72,7.5L72,7.5z"/>
</g>
<path class="st4" d="M113.62,61.97l-36.67-26.8c-2.94-2.16-6.95-2.16-9.89,0l-36.67,26.8c-0.96,0.7-1.17,2.04-0.47,2.99
	c0.7,0.96,2.04,1.17,2.99,0.47l34.15-24.96c2.95-2.14,6.94-2.14,9.89,0l21.44,15.67v42.6c0,1.88-1.52,3.4-3.4,3.4H49.02
	c-1.88,0-3.4-1.52-3.4-3.4V73.1c0-1.18-0.96-2.14-2.14-2.15c-0.04,0-0.08,0-0.12,0c-1.16,0.07-2.05,1.04-2.04,2.2v27.18
	c0.01,3.37,2.74,6.09,6.11,6.11h49.16c3.37-0.01,6.09-2.74,6.11-6.11V59.29l8.41,6.15c0.36,0.27,0.81,0.42,1.26,0.42
	c0.69-0.01,1.33-0.33,1.74-0.88C114.79,64.01,114.57,62.67,113.62,61.97L113.62,61.97z"/>
</svg>
