<?xml version="1.0" encoding="utf-8"?>
<!-- Generator: Adobe Illustrator 23.0.2, SVG Export Plug-In . SVG Version: 6.00 Build 0)  -->
<svg version="1.1" id="Layer_1" xmlns="http://www.w3.org/2000/svg" xmlns:xlink="http://www.w3.org/1999/xlink" x="0px" y="0px"
	 viewBox="0 0 144 144" style="enable-background:new 0 0 144 144;" xml:space="preserve">
<style type="text/css">
	.st0{fill:url(#SVGID_1_);}
	.st1{fill:#E3E3E3;}
	.st2{fill:url(#SVGID_2_);}
	.st3{fill:url(#SVGID_3_);}
	.st4{fill:#FFFFFF;}
</style>
<g>
	<radialGradient id="SVGID_1_" cx="72" cy="72" r="63" gradientUnits="userSpaceOnUse">
		<stop  offset="0" style="stop-color:#AC65F2"/>
		<stop  offset="1" style="stop-color:#E450FF"/>
	</radialGradient>
	<circle class="st0" cx="72" cy="72" r="63"/>
	<path class="st1" d="M72,10.5c33.97,0,61.5,27.53,61.5,61.5s-27.53,61.5-61.5,61.5S10.5,105.97,10.5,72S38.03,10.5,72,10.5 M72,7.5
		C36.43,7.5,7.5,36.43,7.5,72s28.93,64.5,64.5,64.5s64.5-28.93,64.5-64.5S107.57,7.5,72,7.5L72,7.5z"/>
</g>
<path class="st4" d="M66.01,77.48v30.59H44.48c-2.13-0.01-3.85-1.73-3.86-3.86V77.48H66.01z M70,73.49H36.63v30.71
	c-0.01,4.32,3.48,7.84,7.81,7.85c0.01,0,0.03,0,0.04,0H70V73.49z M99.52,51.15c2.13,0,3.85,1.72,3.86,3.84v10.51h-25.4V51.15
	L99.52,51.15z M99.52,47.15H74v22.34h33.37V55C107.37,50.66,103.86,47.15,99.52,47.15L99.52,47.15L99.52,47.15z M66.01,51.15v14.35
	h-25.4V55c0.01-2.13,1.74-3.84,3.86-3.84L66.01,51.15z M70,47.15H44.48c-4.33,0-7.85,3.51-7.85,7.85v14.49H70V47.15z M103.39,77.48
	v26.72c-0.01,2.13-1.73,3.85-3.86,3.86H77.99V77.48H103.39z M107.37,73.49H74v38.55h25.52c4.32,0.01,7.84-3.48,7.85-7.81
	c0-0.01,0-0.03,0-0.04L107.37,73.49z M70.02,43.57H56.47c-3,0.01-5.89-1.19-7.99-3.34c-2.06-2.14-2.16-4.08-1.9-5.32
	c0.48-2.32,2.6-4.22,6.45-5.81s7.07-1.5,9.89,0.14c2.42,1.42,4.3,3.9,5.61,7.39c0.57,1.52,0.97,3.1,1.2,4.7L70.02,43.57z
	 M58.15,31.96c-1.08,0-2.28,0.28-3.6,0.82c-3.5,1.44-4,2.62-4.06,2.94c-0.06,0.32,0.5,1.34,0.88,1.74c1.34,1.37,3.19,2.14,5.1,2.12
	h8.81c-0.66-2.38-2.02-5.54-4.36-6.91C60.07,32.2,59.12,31.95,58.15,31.96L58.15,31.96z M87.53,43.57H73.98l0.3-2.24
	c0.23-1.61,0.63-3.18,1.2-4.7c1.3-3.48,3.18-5.97,5.61-7.39c2.82-1.64,6.15-1.68,9.89-0.14s5.97,3.48,6.45,5.81
	c0.26,1.24,0.16,3.18-1.9,5.32C93.42,42.37,90.54,43.58,87.53,43.57z M78.73,39.58h8.81c1.92,0.02,3.76-0.75,5.1-2.12
	c0.38-0.4,1-1.16,0.88-1.74s-0.56-1.5-4.06-2.94c-2.56-1.06-4.64-1.08-6.37-0.1C80.75,34.04,79.39,37.2,78.73,39.58L78.73,39.58z"/>
</svg>
