<?xml version="1.0" encoding="utf-8"?>
<!-- Generator: Adobe Illustrator 23.0.2, SVG Export Plug-In . SVG Version: 6.00 Build 0)  -->
<svg version="1.1" id="Layer_1" xmlns="http://www.w3.org/2000/svg" xmlns:xlink="http://www.w3.org/1999/xlink" x="0px" y="0px"
	 viewBox="0 0 144 144" style="enable-background:new 0 0 144 144;" xml:space="preserve">
<style type="text/css">
	.st0{fill:url(#SVGID_1_);}
	.st1{fill:#E3E3E3;}
	.st2{fill:url(#SVGID_2_);}
	.st3{fill:url(#SVGID_3_);}
	.st4{fill:#FFFFFF;}
</style>
<g>
	<radialGradient id="SVGID_1_" cx="72" cy="72" r="63" gradientUnits="userSpaceOnUse">
		<stop  offset="5.030991e-04" style="stop-color:#FF5050"/>
		<stop  offset="1" style="stop-color:#F29065"/>
	</radialGradient>
	<circle class="st0" cx="72" cy="72" r="63"/>
	<path class="st1" d="M72,10.5c33.97,0,61.5,27.53,61.5,61.5s-27.53,61.5-61.5,61.5S10.5,105.97,10.5,72S38.03,10.5,72,10.5 M72,7.5
		C36.43,7.5,7.5,36.43,7.5,72s28.93,64.5,64.5,64.5s64.5-28.93,64.5-64.5S107.57,7.5,72,7.5L72,7.5z"/>
</g>
<path class="st4" d="M97.93,38c0.53,0.01,0.96,0.45,0.96,0.98v7.65c0,13.65-0.04,27.3,0.02,40.96c0.02,6.27-3.4,9.67-8.39,11.51
	c-1.3,0.48-3.3,0.76-5.24,0.76c-1.54,0-3.02-0.18-4.08-0.54c-3.26-1.12-4.88-4.18-3.88-7.49c1.14-3.7,3.92-5.85,7.35-7.25
	c2.12-0.9,4.47-1.13,6.73-0.66h0.2c0.54-0.01,0.98-0.46,0.98-1V57.16c0-0.54-0.44-0.98-0.98-0.98h-0.16l-5.06,0.86
	c-9.55,1.64-16.9,3.28-26.44,4.88c-0.74,0.12-0.98,0.36-0.98,1.12c0.04,10.17-0.1,20.32,0.06,30.49c0.1,7.15-4.44,10.57-9.33,11.99
	c-1.02,0.3-2.62,0.46-4.2,0.46s-3.02-0.14-3.98-0.46c-3.58-1.16-5.26-4.48-3.92-8.01c1.58-4.12,4.9-6.25,8.99-7.37
	c0.87-0.24,1.76-0.36,2.66-0.36c0.79,0.01,1.57,0.1,2.34,0.28h0.22c0.53,0,0.96-0.43,0.96-0.96c0-0.01,0-0.01,0-0.02V46.83
	c-0.02-0.84,0.18-1.16,1.08-1.32c13.91-2.46,30.03-4.98,43.94-7.49h0.18 M97.93,34.1c-0.29,0-0.58,0.02-0.86,0.08h-0.02
	c-7.33,1.32-15.39,2.66-23.2,3.96c-6.95,1.16-14.13,2.36-20.72,3.52c-1.44,0.26-2.54,0.88-3.32,1.88c-0.71,0.96-1.06,2.13-1,3.32
	V85.9c-1.12,0.02-2.23,0.18-3.3,0.48c-5.83,1.58-9.75,4.86-11.61,9.73c-1.02,2.7-0.96,5.5,0.2,7.93s3.36,4.32,6.17,5.22
	c1.68,0.54,3.74,0.66,5.2,0.66c0.96,0,3.38-0.06,5.28-0.62c3.48-1,6.31-2.68,8.37-4.98c1.24-1.38,2.21-2.99,2.84-4.74
	c0.68-1.95,1.01-4.02,0.96-6.09c-0.1-6.57-0.08-13.25-0.06-19.72c0-2.74,0.02-5.57,0-8.37c4.06-0.7,7.79-1.42,11.41-2.12
	c4.02-0.78,8.17-1.58,12.75-2.36l1.62-0.26v19.12c-1.88,0.07-3.74,0.47-5.48,1.18c-2.3,0.96-4.18,2.1-5.71,3.52
	c-1.83,1.69-3.17,3.84-3.88,6.23c-0.78,2.58-0.58,5.24,0.6,7.51c1.23,2.28,3.28,4,5.75,4.8c1.8,0.62,3.9,0.76,5.36,0.76
	c2.48,0,4.9-0.36,6.61-1c9.09-3.36,10.97-10.13,10.95-15.19c-0.04-9.69-0.04-19.56-0.02-29.09V38.98c0-2.7-2.18-4.89-4.88-4.9
	L97.93,34.1z"/>
</svg>
