<svg xmlns="http://www.w3.org/2000/svg" width="8in" height="8in" viewBox="0 0 576 576"><path d="M446.2 218.7c-1-20.9-6.4-40.4-19.8-57.1-3.3-4.1-7.4-7.5-11.2-11a65 65 0 0 0-22.1-13.3c-15.6-5.7-31.8-7.9-48.4-8.3-27-.6-54-.4-80.9-.4-19.8 0-39.5-.1-59.1 2.7-41.4 5.9-70.4 36.5-74.2 78.2-2.7 28.8-1.9 57.7-1.8 86.5-.1 23.1-.5 46.1 1.6 69 4.1 45 35.7 76.5 80.6 80.4 17.1 1.5 34.2 1.8 51.4 1.8 34.4-.2 68.9 1.5 103.2-1.8 23.6-2.3 44.1-11.4 59.7-29.9 6-6.4 10-14 13.4-22 6.5-15.6 7.9-32.1 8.2-48.6.7-42.1 1.3-84.2-.6-126.2zm-80.4 197.5c-13.4 2.1-27 2-40.6 2.1-30 .1-60.1 0-90.1-.2-9.3-.1-18.8 0-27.8-2-10.6-2.3-20.9-5.9-29.5-13.7-11.3-10.4-16.3-23.3-18.3-37.8a256.4 256.4 0 0 1-1.8-31.6l-.3-44.9c.1-17.8 0-35.5.5-53.2.4-12.4.7-24.9 4.6-36.9 6.3-19.7 19.9-31.5 39.6-36.7 12.3-3.2 24.9-3.4 37.5-3.5q50.6-.3 101.1.1c10.8.1 21.7.6 32.3 3.2 23.8 6 37.8 21.3 42.5 45.1 2.9 14.6 2.7 29.4 2.8 44.2 0 30.2.1 60.4-.4 90.6-.3 15.6-.9 31.3-7.9 45.8-9.5 17.6-24.9 26.6-44.2 29.4z"/><path d="M357.1 244.1c-19.5-30.8-55.8-44.6-91-35.2-32.9 8.8-58.9 40.5-59.8 73-1.5 20.2 3.4 38.8 15.7 54.8 19.9 25.7 46.5 36.9 78.8 32.1 25.9-3.9 45.5-18 58.5-41 4.6-6.7 6.9-14.4 8.6-22.2 4.7-21.9 1.2-42.6-10.8-61.5zm-105 82.7c-13.3-11.9-18.3-27.3-17-44.9 2.9-18.5 12.2-32.8 29.1-41.1 19.9-9.9 39.2-7.6 56.7 5.9s25.9 40.1 14.9 64c-17.1 32.7-56.6 40.4-83.7 16.1zm120.8-104.7a19.4 19.4 0 0 0 19.4-19.2 19.6 19.6 0 0 0-19.3-19.3 19.2 19.2 0 0 0-19.2 19.3 18.9 18.9 0 0 0 19.1 19.2z"/></svg>