<svg id="Layer_1" data-name="Layer 1" xmlns="http://www.w3.org/2000/svg" width="8in" height="8in" viewBox="0 0 576 576"><title>location</title><path d="M288,453.9a18,18,0,0,1-14.6-7.5c-9.2-12.6-40.4-55.7-55.4-80.8-20-33.4-32.8-60.4-41.5-87.6s-8.2-56.3,2.6-82.8A116.8,116.8,0,0,1,274.2,123l5.3-.6,3-.3h11.9l2.1.2,5.3.6c31.1,3.9,56.9,17.9,76.6,41.6,21.8,26.2,30.6,57,26.2,91.6-1.2,9.5-4,18.3-6.9,27.2-5.8,17.5-13.9,35.7-24.7,55.8-18.3,33.9-58.5,90.6-70.4,107.2a18.6,18.6,0,0,1-14.6,7.5Zm-4.3-306.1-1.7.2-4.9.5c-32.7,3.7-61.9,25.9-74.2,56.3-8.6,21.2-9.2,42.5-1.9,65.4,8,25.2,20.1,50.6,39.1,82.2,10.5,17.7,29.7,45.1,42.8,63.4a6,6,0,0,0,9.9-.1c16.2-23,43.9-63.3,57.6-88.7,10.1-18.7,17.6-35.6,22.9-51.7,2.6-7.9,4.9-15.1,5.8-22.4,3.5-27.6-3.2-51.1-20.5-71.9-15.6-18.8-35.2-29.4-60-32.5L294,148l-1.5-.2ZM288,304.2a64.3,64.3,0,0,1-45.4-109.8A63.8,63.8,0,0,1,288,175.6h.1a64.3,64.3,0,0,1-.1,128.6Zm0-102.9a38.6,38.6,0,1,0,.1,0Z"/></svg>