<svg xmlns="http://www.w3.org/2000/svg" width="466.1" height="669.3" viewBox="0 0 466.1 669.3"><path fill="#41b695" d="M449.2 318.2c-11.3-28-26.6-51.4-45.9-70.5a195.5 195.5 0 0 0-66.9-43.2 220.5 220.5 0 0 0-80.6-14.7c-20.8 0-39.1 2.6-54.8 7.6s-29.2 11-40.1 17.8-19.5 13.2-25.4 19.2-9.6 9.8-10.7 11.6V10.7c-3-1.2-10.3-3.3-21.9-6.2A150.7 150.7 0 0 0 65.1 0C45.5 0 29.7 3.9 17.8 11.6S0 33.3 0 53.5v603.3l20.9 3.1c10.4 1.5 23.4 2.8 38.8 4s33 2.4 52.6 3.6 40.1 1.8 61.5 1.8q145.2 0 218.8-67.3t73.5-186.7c0-36.8-5.7-69.2-16.9-97.1zm-158.7-20.8a98.9 98.9 0 0 1 39.1 33.4 36 36 0 0 1 3.9 2 29.6 29.6 0 0 1 10.5 10.3 38 38 0 0 0 8.9 10.3c33.2 26.9 10.4 62.2 1.7 73.5a3.1 3.1 0 0 1-5.1-.4 74.8 74.8 0 0 0-5.2-7.8 2.2 2.2 0 0 0-3.8.5c-.9 2.3-1.8 4.5-2.8 6.6s.1 1.9.1 2.9a187.3 187.3 0 0 1-8.5 57.4 126.5 126.5 0 0 1-25.9 45.9c-11.5 13.1-26.4 23.2-44.5 30.3S219 576.5 194.3 573c-19-2.6-28-8.4-38.6-2.6-29.9 16.2-59.6 17.9-63.2 16.1a177.5 177.5 0 0 0 32.3-102.1v-75.3q0-50.9 25.8-84.7c14.1-18.5 34.1-30.1 59.8-34.8a128.1 128.1 0 0 1 21.4-2l11.3-.2a103.4 103.4 0 0 1 47.4 10z"/></svg>