<svg id="Layer_1" data-name="Layer 1" xmlns="http://www.w3.org/2000/svg" width="8in" height="8in" viewBox="0 0 576 576"><title>mortgage</title><path d="M495.9,247.9,312.7,114a41.7,41.7,0,0,0-49.4,0L80.1,247.9a10.7,10.7,0,1,0,12.6,17.3L263.3,140.5a42,42,0,0,1,49.4,0l107.1,78.3V431.6a17,17,0,0,1-17,17H173.2a17,17,0,0,1-17-17V303.5a10.7,10.7,0,0,0-11.3-10.7,10.9,10.9,0,0,0-10.2,11V439.6a30.6,30.6,0,0,0,30.5,30.5H410.8a30.6,30.6,0,0,0,30.5-30.5V234.5l42,30.7a10.6,10.6,0,0,0,6.3,2.1,11,11,0,0,0,8.7-4.4A10.8,10.8,0,0,0,495.9,247.9Z"/></svg>