<svg xmlns="http://www.w3.org/2000/svg" width="8in" height="8in" viewBox="0 0 576 576"><path d="M345.6 454.8h-.1a132.2 132.2 0 0 1-44.3-8.1c-16-5.8-31.5-14.4-47.6-26.2a266.7 266.7 0 0 1-26.3-22c-9.1-8.5-18.1-17.8-27.5-28.4s-16.2-19.3-23.2-28.9a304.6 304.6 0 0 1-19.6-29.9 208.9 208.9 0 0 1-18.5-42.1 159 159 0 0 1-5.6-25.2 127.6 127.6 0 0 1-.9-24.5 114.4 114.4 0 0 1 8.7-37.2 108.2 108.2 0 0 1 17.2-27.6 112.1 112.1 0 0 1 16.1-15.1c1.9-1.5 3.8-3.2 5.8-5l3.7-3.3c4-3.4 10.3-8.2 19.1-9.6a31.2 31.2 0 0 1 20.7 3.8c7.2 4.1 12.3 9.7 16 14.2s8.7 12 12.5 18l2.9 4.6a143.7 143.7 0 0 1 9.7 16.9 62.6 62.6 0 0 1 6.3 19.6c1.9 13.2-1.7 25-10.3 34.2-2.5 2.6-5 4.9-7.5 7.1l-4 3.5a67.4 67.4 0 0 1-8.9 7.1c-1.3.9-2.6 1.8-3.8 2.8-3.1 2.3-3.9 4.3-4.3 5.7a14.6 14.6 0 0 0 0 6.6c.9 4.8 2.8 9.7 6.4 16.1s9.8 15.5 17.7 25.1a263.9 263.9 0 0 0 22 23.8c5.7 5.4 12.6 11.6 20.7 15.9 4.3 2.2 7.6 3.2 10.7 3.3a8.9 8.9 0 0 0 6-2.2l3.2-3a33.1 33.1 0 0 1 2.6-2.7l.4-.3c2.3-2.3 4.7-4.6 7.3-6.9l.5-.4c3.2-2.8 6.5-5.6 10.1-8.4a39.8 39.8 0 0 1 20.5-7.9 43.8 43.8 0 0 1 20.5 3.3 74.7 74.7 0 0 1 20.5 12.1c5.9 4.7 11.9 9.8 18.5 15.6 3.7 3.3 7.4 6.9 11.1 10.7a52.5 52.5 0 0 1 11.5 17.9 30.8 30.8 0 0 1-5.5 31.5 87.9 87.9 0 0 1-7.4 7.5l-1.9 1.6-5.1 4.7-4.2 3.8a104.5 104.5 0 0 1-19.6 14.2 106.6 106.6 0 0 1-30.5 11.4 121.8 121.8 0 0 1-22.2 2.3zm-138-308.5h-.9c-2 .3-4.1 1.5-6.9 3.9l-3.3 2.9c-2.2 2-4.6 4.2-7.2 6.2a89 89 0 0 0-12.5 11.7 82 82 0 0 0-13.1 21.1A87.4 87.4 0 0 0 157 221a100.5 100.5 0 0 0 .7 19.6 129.6 129.6 0 0 0 4.7 21.1 185 185 0 0 0 16.4 37.1 290.3 290.3 0 0 0 17.9 27.5c6.6 9 13.8 17.9 21.9 27.1a369.6 369.6 0 0 0 25.7 26.7 259 259 0 0 0 24.1 20.1c14.1 10.4 27.7 17.8 41.3 22.8a103.3 103.3 0 0 0 35.8 6.6 79.8 79.8 0 0 0 17.3-1.8 77.8 77.8 0 0 0 23.3-8.7 82 82 0 0 0 14.9-10.6l4.5-4.1 4.8-4.3 2-1.9a48.7 48.7 0 0 0 5.1-5c1.9-2.3 2.2-4 1.2-6.8a25.8 25.8 0 0 0-6.1-9.2c-3.2-3.3-6.4-6.4-9.5-9.2-6.3-5.5-12.1-10.4-17.7-14.9a51.1 51.1 0 0 0-14-8.3 18 18 0 0 0-9.1-1.6 13.7 13.7 0 0 0-7.6 2.9c-2.9 2.2-5.7 4.6-8.7 7.2l-.5.5c-2.2 1.9-4.3 3.9-6.5 6.1l-.4.3-2 2.1c-1.5 1.4-3.1 3.1-5 4.7a33.8 33.8 0 0 1-22.3 8c-7.2-.1-14.3-2-22.2-6.2-10.8-5.8-19.7-13.6-26.3-19.8a299.6 299.6 0 0 1-24-26c-8.9-10.9-15.2-19.8-20.3-28.9s-7.8-16.2-9.1-23.8a39.1 39.1 0 0 1 .4-17.4 35.4 35.4 0 0 1 13.2-19.2l4.7-3.5a53.9 53.9 0 0 0 6.1-4.7l4.6-4.2c2.1-1.9 4.2-3.7 5.9-5.5 3.4-3.6 4.5-7.8 3.7-13.5a42 42 0 0 0-4.1-12.3 114.7 114.7 0 0 0-8.1-14.1l-3.1-4.9a153.9 153.9 0 0 0-10.6-15.4c-3.4-4.2-6.1-6.6-8.9-8.2a7.1 7.1 0 0 0-3.5-1.1z"/></svg>