<svg id="Layer_1" data-name="Layer 1" xmlns="http://www.w3.org/2000/svg" width="8in" height="8in" viewBox="0 0 576 576"><title>purchase</title><path d="M263.2,374c-16.5,0-29.5-7.7-37.8-22.4-5.9-10.4-35-137.3-42.7-162.2-1.4-4.5-2.2-14.2-14.1-14.5-7.9-.2-33.6,0-33.6,0a12.9,12.9,0,0,1-12.2-17.2,12.7,12.7,0,0,1,12.2-8.6h39.9c11.2,0,20.3,5.4,25.1,14.9a116.2,116.2,0,0,1,4.8,11.3,11.3,11.3,0,0,0,10.5,7.2H431.8c3.1,0,12.5,0,18.3,7.3s3.5,16.5,2.7,19.5L427.6,310.5c-3.2,12.8-9.6,17.7-22.9,17.7H248.4c-1.7,0-2.8,5.9-2.2,7.5s1.1,2.3,1.6,3.2c3.8,6.6,8.2,9.3,15.4,9.3H394a12.9,12.9,0,0,1,0,25.8Zm-22.3-71.6H399.7a4.3,4.3,0,0,0,4.2-3.2l21.3-85.7a4.2,4.2,0,0,0-4.1-5.2H219.5a4.2,4.2,0,0,0-4.1,5.2c5.2,20.7,18,72.3,21.4,85.7A4.1,4.1,0,0,0,240.9,302.4Z"/><path d="M275.6,426.9A20,20,0,1,0,255.8,407,19.6,19.6,0,0,0,275.6,426.9Z"/><path d="M364.4,426.9a20,20,0,0,0,20-19.9,20,20,0,1,0-39.9,0A19.6,19.6,0,0,0,364.4,426.9Z"/></svg>