<svg id="Layer_1" data-name="Layer 1" xmlns="http://www.w3.org/2000/svg" xmlns:xlink="http://www.w3.org/1999/xlink" width="912.2" height="141" viewBox="0 0 912.2 141"><defs><linearGradient id="linear-gradient" x1="518.41" y1="70.52" x2="912.2" y2="70.52" gradientUnits="userSpaceOnUse"><stop offset="0" stop-color="#ac65f2"/><stop offset="1" stop-color="#df52fe"/></linearGradient><linearGradient id="linear-gradient-2" x1="0.5" y1="70.52" x2="518.41" y2="70.52" xlink:href="#linear-gradient"/><radialGradient id="radial-gradient" cx="518.41" cy="70.52" r="70.52" gradientUnits="userSpaceOnUse"><stop offset="0" stop-color="#df52fe"/><stop offset="1" stop-color="#ac65f2"/></radialGradient></defs><title>purple-scaled</title><path d="M518.4,37.1H878.8a33.5,33.5,0,0,1,33.4,33.4h0a33.4,33.4,0,0,1-33.4,33.4H518.4Z" fill="#fff"/><path d="M878.8,44.1a26.4,26.4,0,1,1,0,52.8H525.4V44.1H878.8m0-7H518.4v66.8H878.8a33.4,33.4,0,0,0,33.4-33.4h0a33.5,33.5,0,0,0-33.4-33.4Z" fill="url(#linear-gradient)"/><path d="M31.8,37.1H518.4a0,0,0,0,1,0,0v66.8a0,0,0,0,1,0,0H31.8A31.3,31.3,0,0,1,.5,72.6V68.5A31.3,31.3,0,0,1,31.8,37.1Z" stroke="#fff" stroke-miterlimit="10" fill="url(#linear-gradient-2)"/><circle cx="518.4" cy="70.5" r="70.5" fill="url(#radial-gradient)"/></svg>