<svg xmlns="http://www.w3.org/2000/svg" xmlns:xlink="http://www.w3.org/1999/xlink" width="912.2" height="141" viewBox="0 0 912.2 141"><defs><linearGradient id="a" x1="617.98" x2="912.2" y1="70.52" y2="70.52" gradientUnits="userSpaceOnUse"><stop offset="0" stop-color="#ac65f2"/><stop offset="1" stop-color="#df52fe"/></linearGradient><linearGradient id="b" x1=".5" x2="588.93" y1="70.52" y2="70.52" xlink:href="#a"/><radialGradient id="c" cx="624.68" cy="70.52" r="70.52" gradientUnits="userSpaceOnUse"><stop offset="0" stop-color="#df52fe"/><stop offset="1" stop-color="#ac65f2"/></radialGradient></defs><path fill="#fff" d="M618 37.1h260.8a33.5 33.5 0 0 1 33.4 33.4 33.4 33.4 0 0 1-33.4 33.4H618z"/><path fill="url(#a)" d="M878.8 43.1a27.4 27.4 0 1 1 0 54.8H624V43.1h254.8m0-6H618v66.8h260.8a33.4 33.4 0 0 0 33.4-33.4 33.5 33.5 0 0 0-33.4-33.4z"/><path fill="url(#b)" d="M33.9 37.1h555v66.8h-555A33.4 33.4 0 0 1 .5 70.5a33.4 33.4 0 0 1 33.4-33.4z"/><circle cx="624.7" cy="70.5" r="70.5" fill="url(#c)"/></svg>