<svg xmlns="http://www.w3.org/2000/svg" xmlns:xlink="http://www.w3.org/1999/xlink" width="912.2" height="141" viewBox="0 0 912.2 141"><defs><linearGradient id="a" x1="518.41" x2="912.2" y1="70.52" y2="70.52" gradientUnits="userSpaceOnUse"><stop offset="0" stop-color="#ac65f2"/><stop offset="1" stop-color="#df52fe"/></linearGradient><linearGradient id="b" x1=".5" x2="518.41" y1="70.52" y2="70.52" xlink:href="#a"/><radialGradient id="c" cx="518.41" cy="70.52" r="70.52" gradientUnits="userSpaceOnUse"><stop offset="0" stop-color="#df52fe"/><stop offset="1" stop-color="#ac65f2"/></radialGradient></defs><path fill="#fff" d="M518.4 37.1h360.4a33.5 33.5 0 0 1 33.4 33.4 33.4 33.4 0 0 1-33.4 33.4H518.4z"/><path fill="url(#a)" d="M878.8 44.1a26.4 26.4 0 1 1 0 52.8H525.4V44.1h353.4m0-7H518.4v66.8h360.4a33.4 33.4 0 0 0 33.4-33.4 33.5 33.5 0 0 0-33.4-33.4z"/><path fill="url(#b)" stroke="#fff" stroke-miterlimit="10" d="M31.8 37.1h486.6v66.8H31.8A31.3 31.3 0 0 1 .5 72.6v-4.1a31.3 31.3 0 0 1 31.3-31.4z"/><circle cx="518.4" cy="70.5" r="70.5" fill="url(#c)"/></svg>