<svg id="Layer_1" data-name="Layer 1" xmlns="http://www.w3.org/2000/svg" width="8in" height="8in" viewBox="0 0 576 576"><title>rainy-day</title><path d="M156.1,364.7c-20.5,0-42.8-7.8-61.4-21.5-21.1-15.5-35.9-37.4-41.6-61.6-8-33.8-.3-68.4,21.1-95.1s53.3-41.6,87.8-41.2c5.5.1,7-.7,10-5.3,30.2-44.9,73.8-66.6,126.1-62.9,27.6,2,51.8,10.3,71.9,24.7s35.8,34.3,47.3,59.9l.9,2.1a7.4,7.4,0,0,0,5.8,4.3c5.3.6,32.4,3.8,46.8,10.7,19.5,9.3,34.1,22.4,43.4,39.1s13.1,35.7,11.4,57.4c-2.9,38.6-24.2,67.5-61.5,83.3-8.1,3.5-18,5.2-29.5,5.3-31.7.1-63.8,0-94.9-.1-59.7-.2-121.4-.3-182.1.8Zm4.6-199.9a90.6,90.6,0,0,0-71.3,33.9C71.8,220.6,65.5,249.2,72,277.1c10.2,42.9,52.1,68.7,85.2,68.1,60.9-1.2,122.7-1.1,182.5-.9,31.1.1,63.2.2,94.8.1,8.8-.1,16.4-1.3,22-3.7,30.6-13,47.3-35.5,49.7-66.9,1.3-17.8-1.7-33.4-9-46.4s-19-23.5-34.8-31h0c-8.4-4-26.4-7.4-40.4-8.9a26.8,26.8,0,0,1-21.7-16,14.2,14.2,0,0,0-.8-1.8c-20.3-45.1-54.9-69.7-102.8-73.1-45.6-3.3-82.1,15-108.5,54.3-6.7,10-14.4,14-26.4,13.9Z"/><circle cx="180.2" cy="407.4" r="16.3"/><circle cx="290.2" cy="407.4" r="16.3"/><circle cx="254.4" cy="483" r="16.3"/><circle cx="144.4" cy="483" r="16.3"/><circle cx="400.2" cy="407.4" r="16.3"/><circle cx="364.5" cy="483" r="16.3"/></svg>