<svg id="Layer_1" data-name="Layer 1" xmlns="http://www.w3.org/2000/svg" xmlns:xlink="http://www.w3.org/1999/xlink" width="912.2" height="141" viewBox="0 0 912.2 141"><defs><linearGradient id="linear-gradient" x1="912.2" y1="70.52" x2="617.98" y2="70.52" gradientUnits="userSpaceOnUse"><stop offset="0" stop-color="#f29065"/><stop offset="1" stop-color="#fe5451"/></linearGradient><linearGradient id="linear-gradient-2" x1="0.5" y1="70.52" x2="588.93" y2="70.52" xlink:href="#linear-gradient"/><radialGradient id="radial-gradient" cx="624.68" cy="70.52" r="70.52" xlink:href="#linear-gradient"/></defs><title>red-scale</title><path d="M618,37.1H878.8a33.5,33.5,0,0,1,33.4,33.4h0a33.4,33.4,0,0,1-33.4,33.4H618Z" fill="#fff"/><path d="M878.8,43.1a27.4,27.4,0,1,1,0,54.8H624V43.1H878.8m0-6H618v66.8H878.8a33.4,33.4,0,0,0,33.4-33.4h0a33.5,33.5,0,0,0-33.4-33.4Z" fill="url(#linear-gradient)"/><path d="M33.9,37.1h555a0,0,0,0,1,0,0v66.8a0,0,0,0,1,0,0H33.9A33.4,33.4,0,0,1,.5,70.5v0A33.4,33.4,0,0,1,33.9,37.1Z" fill="url(#linear-gradient-2)"/><circle cx="624.7" cy="70.5" r="70.5" fill="url(#radial-gradient)"/></svg>