<svg id="Layer_1" data-name="Layer 1" xmlns="http://www.w3.org/2000/svg" width="8in" height="8in" viewBox="0 0 576 576"><title>retirement</title><path d="M168.5,221.9c13,44.4,20.6,89.8,25.8,135.7,1.3,11.6,4.6,14.4,16.5,13.4l6.3-.9-13.8,39.3a7.8,7.8,0,0,0,5.4,10.1l5.9,1.3a7.7,7.7,0,0,0,9-4.9l17-48.2c20.3-1.8,50.4-3.6,88.8-3.5a10.5,10.5,0,0,0,.4,1.7l17,48.3a7.8,7.8,0,0,0,9.2,4.9l5.9-1.5a7.7,7.7,0,0,0,5.2-10l-15.2-43.1c12.4.2,25.5.7,39.3,1.4,4.2.3,10-2.6,12.3-5.9,4-6.1-1.2-12.4-10.1-13.1l-52.5-3.4a5.4,5.4,0,0,1-5-5.4V260.2a4.4,4.4,0,0,1,4.2-4.5c17.4-1.3,24.5,4.4,36,26.9,3.1,5.9,7.4,9.4,13.8,6.2s7.4-8,5-14.6c-9.7-26.4-27.1-39.8-55.4-39.2-24.4.5-48.7,3-73,5.2s-45.8,4.7-69.3,7.2c-3-10.9-5.7-21.3-8.8-31.6-10.3-34.6-22.8-68.1-44.3-97.6-4.2-5.8-9.3-9.8-16.3-5.2s-5.3,11-1.1,16.8C147,157.7,158.8,189.3,168.5,221.9ZM309,255.5a4.6,4.6,0,0,1,5.1,4.5v76.9a5.4,5.4,0,0,1-5.2,5.4c-21.5.8-86.3,5.2-94.2,6-4.3-26.9-8.5-53.4-13-81C210.5,266.3,285.1,258,309,255.5Z"/><path d="M457.2,399.6a10.6,10.6,0,0,0-14.7-3.2,304.2,304.2,0,0,1-72.7,34.1c-6.8,2.2-13.7,4-20.6,5.7s-13.7,2.9-20.7,4a306.6,306.6,0,0,1-98.8-1.1l-8.4-1.5c-7.3-1.5-14.2-3.1-20.8-4.9-40.8-10.8-66.8-25.9-67.3-26.2a10.7,10.7,0,0,0-10.9,18.4c1.4.8,28.3,16.5,71.1,28,6.5,1.8,13.5,3.4,20.8,5l11.1,2.1a342.2,342.2,0,0,0,57.6,5,311.7,311.7,0,0,0,48.4-3.7c8.4-1.3,16.7-3,25-4.9s13.8-3.6,20.6-5.8A320.3,320.3,0,0,0,454,414.3,10.6,10.6,0,0,0,457.2,399.6Z"/></svg>