<svg id="Layer_1" data-name="Layer 1" xmlns="http://www.w3.org/2000/svg" width="8in" height="8in" viewBox="0 0 576 576"><title>reverse-home</title><path d="M293.4,157.5a9.1,9.1,0,0,0-12.8,0L169.5,269.3a9,9,0,0,0-2.6,6.4V379.9a9,9,0,0,0,9,9.1h56.7a9.7,9.7,0,0,0,9.7-9.7V312.5a30.5,30.5,0,0,1,30.4-30.4h30.6a30.5,30.5,0,0,1,30.4,30.4v66.8a9.7,9.7,0,0,0,9.7,9.7h56.7a9,9,0,0,0,9-9.1V275.8a8.9,8.9,0,0,0-2.7-6.4Z"/><path d="M288,39.9C151,39.9,39.9,151,39.9,288S151,536.1,288,536.1,536.1,425,536.1,288,425,39.9,288,39.9Zm142.5,340a30.5,30.5,0,0,1-30.4,30.4H343.4a31,31,0,0,1-31.1-31V312.5a9,9,0,0,0-9-9H272.7a9,9,0,0,0-9,9v66.8a31,31,0,0,1-31.1,31H175.9a30.5,30.5,0,0,1-30.4-30.4V275.7a30.1,30.1,0,0,1,8.9-21.4L265.5,142.5a30.4,30.4,0,0,1,43-.2l113,111.9a30.5,30.5,0,0,1,9,21.6Z"/></svg>