<svg xmlns="http://www.w3.org/2000/svg" width="8in" height="8in" viewBox="0 0 576 576"><path d="M288 39.9C151 39.9 39.9 151 39.9 288S151 536.1 288 536.1 536.1 425 536.1 288 425 39.9 288 39.9zm165.4 171.8a13.3 13.3 0 0 1-2.2 5.2c-6.7 9.9-11.9 14-19.8 20.2l-3.6 2.8c-.7.5-.8.7-.8 1.7-.3 46.9-15.5 88.4-45.3 123.4-26.1 30.7-59.8 50.4-100 58.7a193.4 193.4 0 0 1-38.5 3.9c-4.3 0-8.6-.1-12.8-.4a181.8 181.8 0 0 1-86.1-28.3 17.9 17.9 0 0 1-3.7-3.5 6.3 6.3 0 0 0-1-1.2l-1-1.1v-6.6l.4-.8c3-5.7 6.5-7.6 12.7-7a109.6 109.6 0 0 0 50.9-6.3c3-1.1 6.1-2.4 9-3.7-18.5-8.4-31.5-22.5-38.6-41.7-1.9-5.2-1.4-9.2 1.6-12.3a4.6 4.6 0 0 0-.7-.7 116.7 116.7 0 0 1-8.2-9c-9.8-12.3-14.9-26.9-15.3-43.4 0-4 1.4-7.4 4.1-9.5a10.8 10.8 0 0 1 4.5-2 93.7 93.7 0 0 1-4-9.7c-6.9-20.2-5-40.1 5.5-59.1a10.8 10.8 0 0 1 8-5.5 11.5 11.5 0 0 1 9.9 3.9l4 4.4c3.5 3.8 7 7.7 10.8 11.3a160.4 160.4 0 0 0 74.9 40l13.2 2.5 2.1.3v-.5c0-30.5 14-52.9 41.6-66.5 24.5-12.1 56.2-7.6 77 10.9.7.7.8.7 1.9.4a82.6 82.6 0 0 0 12.4-4l7.7-2.8c4.6-1.6 8.3-2.5 12.4 1s4.8 8.1 2.7 13a38.8 38.8 0 0 1-5.8 8.7l-2.6 3.4a44.7 44.7 0 0 0 7-.7l2.1-.3c4.8-.6 8.8.5 11.3 3a8.8 8.8 0 0 1 2.3 7.9z"/><path d="M414.6 216.2c-4.1 1-5.3 1.3-6.9.4l-1.4-.9-.4-1.6c-.6-2.4.7-3.5 4.4-6.9 6.5-5.8 10.4-10 11.7-12.4h-.1c-2.3 0-5.9 2-9 3.6a32.9 32.9 0 0 1-7.9 3.7c-3.4.9-10.6.6-16.4-3.9l-.2-.3c-16.4-15.3-40.7-16.9-60.5-3.8-16.7 11.1-24.3 26.8-22.8 46.5.1 1.3.4 2.6.6 4s.5 3.1.6 4.8a11.2 11.2 0 0 1-3 8.4 10.5 10.5 0 0 1-7.8 3.1 183.8 183.8 0 0 1-39.8-6.5 182.3 182.3 0 0 1-71-37.7c-3.6-3.2-7-6.4-10.6-9.8l-.4-.3a38 38 0 0 0-1 6.5c-.9 19.5 6.1 34.3 21.6 45.4 4.4 3.2 6.2 7.8 4.9 12.3a10.8 10.8 0 0 1-11.5 7.6c-4-.4-7.9-1.1-11.7-1.7l-1.3-.3c6.1 17.9 18.1 28.9 36.8 33.6 7.6 1.9 9.3 6.8 9.4 10.5.1 5.8-3.4 9.8-9.6 11l-10.7 1.8c9.6 12.5 22.1 19.1 38.1 19.9 7.3.5 10 4.5 11.1 7.8s1.1 8.1-4.8 12.5a132.1 132.1 0 0 1-52.7 24.4 164.2 164.2 0 0 0 32.9 7.2 168.1 168.1 0 0 0 46.2-1.5c32.8-5.4 60.8-19.3 83.3-41.4 34.6-33.9 52-74.7 51.9-121.3-.1-9 5.8-13.7 10.9-16.9l2.6-1.5c7.4-4.2 11-6.9 12.6-8.5-2.1-.6-6.9-.5-18.1 2.2z"/></svg>