<svg id="Layer_1" data-name="Layer 1" xmlns="http://www.w3.org/2000/svg" width="8in" height="8in" viewBox="0 0 576 576"><title>reverse-contact</title><path d="M275.9,259.5a38.3,38.3,0,0,0,8.3.8h2.9c17.3.1,34-7.7,44.2-21.7a53.4,53.4,0,1,0-55.4,20.8Z"/><path d="M288,39.9C151,39.9,39.9,151,39.9,288S151,536.1,288,536.1,536.1,425,536.1,288,425,39.9,288,39.9ZM403.2,411.2H172.8V399.6c0-39.4,9.1-73,26.2-97.1a97.1,97.1,0,0,1,44.6-34.9,74.8,74.8,0,1,1,87.2,1.2,103.6,103.6,0,0,1,43.3,33.4c19,24.7,29.1,58.4,29.1,97.4Z"/><path d="M285.4,283.4c-72.7,0-87,66-89.1,104.6H379.7C375.5,311.1,329,283.4,285.4,283.4Z"/></svg>