<svg xmlns="http://www.w3.org/2000/svg" width="8in" height="8in" viewBox="0 0 576 576"><path d="M297.1 167.9l-4-.4h-10.2l-4.3.5a79.4 79.4 0 0 0-63.8 48.4c-7.4 18.2-7.9 36.6-1.7 56.3 7 21.7 17.3 43.5 33.6 70.7 9.1 15.2 25.7 38.8 36.9 54.5a5.2 5.2 0 0 0 8.6 0c13.9-19.8 37.7-54.5 49.5-76.3a279.7 279.7 0 0 0 19.7-44.5c2.3-6.9 4.2-13 5-19.3 3-23.7-2.8-44-17.6-61.9-13.5-16.1-30.3-25.3-51.7-28zm-9.1 134a55.3 55.3 0 0 1 0-110.6h.1a55.3 55.3 0 0 1-.1 110.6z"/><path d="M288 213.4a33.3 33.3 0 1 0 33.2 33.2 33.3 33.3 0 0 0-33.2-33.2z"/><path d="M288 39.9C151 39.9 39.9 151 39.9 288S151 536.1 288 536.1 536.1 425 536.1 288 425 39.9 288 39.9zm100.3 220.7c-1 8.2-3.4 15.8-5.9 23.5-5 15-12 30.7-21.3 48-15.7 29.1-50.3 77.9-60.6 92.2a15.4 15.4 0 0 1-12.5 6.4 15.6 15.6 0 0 1-12.6-6.4c-7.9-10.8-34.7-47.9-47.6-69.5-17.2-28.8-28.2-52-35.7-75.4s-7.1-48.4 2.2-71.3a100.6 100.6 0 0 1 81.8-62.1l4.6-.5 2.5-.2h12.1l4.6.5c26.8 3.4 48.9 15.4 65.9 35.8 18.7 22.7 26.3 49.3 22.5 79z"/></svg>