<svg xmlns="http://www.w3.org/2000/svg" width="8in" height="8in" viewBox="0 0 576 576"><path d="M177.5 353.9c1.7 12.5 6 23.6 15.7 32.5 7.4 6.7 16.3 9.8 25.4 11.9s15.9 1.5 23.9 1.6c25.8.2 51.7.3 77.5.2 11.7 0 23.4 0 34.9-1.8 16.6-2.4 29.9-10.1 38.1-25.3 6-12.5 6.6-26 6.8-39.4.4-26 .3-51.9.3-77.9-.1-12.7.1-25.5-2.4-38.1-4.1-20.5-16.1-33.6-36.6-38.8-9.1-2.3-18.4-2.6-27.7-2.7q-43.5-.4-87-.1c-10.9.1-21.8.2-32.3 3-16.9 4.5-28.6 14.6-34.1 31.5-3.4 10.4-3.6 21.1-3.9 31.8-.5 15.2-.4 30.5-.5 45.8l.3 38.6a205.8 205.8 0 0 0 1.6 27.2zm183.6-155.7a16.6 16.6 0 1 1 0 33.1 16.3 16.3 0 0 1-16.5-16.5 16.5 16.5 0 0 1 16.5-16.6zm-143.4 84.5c.8-27.9 23.1-55.2 51.4-62.8 30.4-8.1 61.5 3.9 78.4 30.3 10.3 16.3 13.3 34.1 9.2 52.9-1.4 6.7-3.4 13.4-7.4 19.2-11.1 19.7-28 31.8-50.3 35.2-27.8 4.2-50.7-5.5-67.8-27.6-10.6-13.7-14.8-29.8-13.5-47.2z"/><path d="M257.1 321.4c23.3 20.9 57.3 14.2 72-13.8 9.5-20.7 2.9-43.1-12.8-55.1s-31.6-13.6-48.8-5.1c-14.5 7.1-22.5 19.4-25 35.3s3.2 28.5 14.6 38.7z"/><path d="M288 536.1c137 0 248.1-111.1 248.1-248.1S425 39.9 288 39.9 39.9 151 39.9 288 151 536.1 288 536.1zM152.4 220.5c3.4-35.9 28.3-62.2 63.9-67.3 16.9-2.4 33.9-2.4 50.8-2.4 23.3 0 46.5-.1 69.7.4 14.2.3 28.2 2.2 41.6 7.2a53.6 53.6 0 0 1 19 11.4c3.3 3 6.8 5.9 9.7 9.4 11.5 14.4 16.1 31.2 17 49.2 1.7 36.1 1.2 72.3.5 108.5-.2 14.3-1.5 28.5-7.1 41.9-2.8 6.9-6.3 13.4-11.5 18.9-13.4 15.9-31 23.8-51.3 25.7-29.5 2.9-59.2 1.4-88.8 1.5-14.8.1-29.5-.2-44.2-1.5-38.7-3.3-65.8-30.4-69.4-69.1-1.8-19.8-1.4-39.6-1.4-59.4 0-24.8-.8-49.7 1.5-74.4z"/></svg>