<svg id="Layer_1" data-name="Layer 1" xmlns="http://www.w3.org/2000/svg" width="8in" height="8in" viewBox="0 0 576 576"><title>reverse-email</title><path d="M288,39.9C151,39.9,39.9,151,39.9,288S151,536.1,288,536.1,536.1,425,536.1,288,425,39.9,288,39.9Zm117.7,346c-39.8-.2-237.9-.1-239.3-.5a9.8,9.8,0,0,1-7.5-9.3c-.1-1.4,0-117,0-175,0-6.7,4.2-11,10.9-11l236.3,1.3c6.8,0,11,4.1,11,10.9,0,58.4-.1,113.6,0,172C417.2,380.9,412.8,385.9,405.7,385.9Z"/><path d="M393.6,222.7l-55.3,46.4c-2.9,2.4-5,6.7-2.6,9.6,18.6,21.7,40.4,46.7,59.1,68.7,2.3,2.6,3.6-1.1,3.6-2.9V225.8C398.4,224.2,394.8,221.6,393.6,222.7Z"/><path d="M323.6,290.8c-2.5-2.9-8.3-2.3-11.2.1l-20.2,16.9c-4.6,3.9-7.8,2.3-12.5-1.6L262,291.8c-2.8-2.3-7.7-1-10.2,1.8-19.9,22.7-39.9,45.1-59.8,68-3.1,3.4-1.8,5.5,2.2,5.5H382.4c2.7,0,4.8-1.8,1.4-5.8Z"/><path d="M282.4,285a6.8,6.8,0,0,0,8.8.1c27.4-22.9,73-60.4,86.8-71.8a2,2,0,0,0-1.3-3.5l-177.8-.9a1.9,1.9,0,0,0-1.3,3.4C211.1,223.9,255.6,261.9,282.4,285Z"/><path d="M237.1,269.2l-56.3-48.8c-1.3-1.1-3.2,3.1-3.2,4.7V345.3a2,2,0,0,0,3.4,1.3c19-21.6,41.1-46.2,60-67.7C243.5,276,239.9,271.7,237.1,269.2Z"/></svg>