<svg xmlns="http://www.w3.org/2000/svg" width="8in" height="8in" viewBox="0 0 576 576"><path d="M288 39.9C151 39.9 39.9 151 39.9 288S151 536.1 288 536.1 536.1 425 536.1 288 425 39.9 288 39.9zm117.7 346c-39.8-.2-237.9-.1-239.3-.5a9.8 9.8 0 0 1-7.5-9.3c-.1-1.4 0-117 0-175 0-6.7 4.2-11 10.9-11l236.3 1.3c6.8 0 11 4.1 11 10.9 0 58.4-.1 113.6 0 172 .1 6.6-4.3 11.6-11.4 11.6z"/><path d="M393.6 222.7l-55.3 46.4c-2.9 2.4-5 6.7-2.6 9.6 18.6 21.7 40.4 46.7 59.1 68.7 2.3 2.6 3.6-1.1 3.6-2.9V225.8c0-1.6-3.6-4.2-4.8-3.1zm-70 68.1c-2.5-2.9-8.3-2.3-11.2.1l-20.2 16.9c-4.6 3.9-7.8 2.3-12.5-1.6L262 291.8c-2.8-2.3-7.7-1-10.2 1.8-19.9 22.7-39.9 45.1-59.8 68-3.1 3.4-1.8 5.5 2.2 5.5h188.2c2.7 0 4.8-1.8 1.4-5.8zm-41.2-5.8a6.8 6.8 0 0 0 8.8.1c27.4-22.9 73-60.4 86.8-71.8a2 2 0 0 0-1.3-3.5l-177.8-.9a1.9 1.9 0 0 0-1.3 3.4c13.5 11.6 58 49.6 84.8 72.7zm-45.3-15.8l-56.3-48.8c-1.3-1.1-3.2 3.1-3.2 4.7v120.2a2 2 0 0 0 3.4 1.3c19-21.6 41.1-46.2 60-67.7 2.5-2.9-1.1-7.2-3.9-9.7z"/></svg>