<svg xmlns="http://www.w3.org/2000/svg" width="8in" height="8in" viewBox="0 0 576 576"><path d="M386.4 227.4H213a3.7 3.7 0 0 0-3.5 4.6c4.4 17.7 15.5 62.2 18.3 73.7a3.8 3.8 0 0 0 3.6 2.7h136.7a3.7 3.7 0 0 0 3.5-2.8c6.1-24.6 12.3-49.1 18.4-73.7a3.8 3.8 0 0 0-3.6-4.5z"/><path d="M288 39.9C151 39.9 39.9 151 39.9 288S151 536.1 288 536.1 536.1 425 536.1 288 425 39.9 288 39.9zm-26.7 375.6a17.1 17.1 0 0 1 0-34.2 17.1 17.1 0 1 1 0 34.2zm76.3 0a16.8 16.8 0 0 1-17-17.1 17 17 0 0 1 17.1-17.1 17.1 17.1 0 1 1-.1 34.2zm76.1-187.1l-21.6 87c-2.8 11-8.3 15.3-19.7 15.3H237.8c-1.4 0-2.4 5.1-1.8 6.4a19.5 19.5 0 0 0 1.4 2.9c3.2 5.6 7 8 13.2 8h112.5a11.1 11.1 0 0 1 0 22.2H250.6c-14.2 0-25.4-6.7-32.6-19.3-5-9-30.1-118.2-36.7-139.6-1.2-3.8-1.8-12.2-12.1-12.5h-28.9a11.1 11.1 0 1 1 0-22.2h34.3c9.6 0 17.5 4.7 21.6 12.8 1.5 3.1 2.8 6.3 4.2 9.8a9.5 9.5 0 0 0 8.9 6.1h186.4c2.6 0 10.7 0 15.7 6.4s3 14.1 2.3 16.7z"/></svg>