<svg xmlns="http://www.w3.org/2000/svg" width="8in" height="8in" viewBox="0 0 576 576"><path d="M288 536.1c137 0 248.1-111.1 248.1-248.1S425 39.9 288 39.9 39.9 151 39.9 288 151 536.1 288 536.1zm-97.3-235.4c.3-14.8.4-29.3.4-43.1a16.7 16.7 0 0 1 17.2-16.8l24.6.3h3.5c.1-3.1.2-6.2.2-9.2.2-11.8.5-24.1 2.4-36.3 4.1-26.5 20.2-46.1 45.4-55.2 21.2-7.6 42-5.7 62.1-3.8l8.7.8c2.4.2 14.3 1.9 14.1 16.7v.5c0 3.8 0 7.7-.1 11.5-.1 8.4-.2 17.1-.1 25.5 0 5.5-1.6 9.9-4.8 13.1-4.9 4.8-11.4 4.6-13.5 4.6-10.4-.3-19.5-.4-27.8-.1-5.8.1-6.5 2.3-6.8 5.4-.8 7.4-.9 14.9-1.1 22.8v4.4h6.7l28.5.3h.3c2.1 0 8.4-.1 12.6 5.2 2 2.5 3.6 6.7 2.5 13.2-2.2 12.7-3.9 26.6-5.9 41-.7 5.4-1.5 9.8-4.7 12.9s-7.1 4.5-12.1 4.4-10.1-.2-15.1-.2l-13.8-.2c-.2 32-.7 80.5-1 100.7A22.1 22.1 0 0 1 291 441h-34.6a21.9 21.9 0 0 1-21.9-22.1c.1-15.8.6-67.1 1-101.1H207q-7.5 0-12-4.5c-4.5-4.8-4.4-10.6-4.3-12.6z"/><path d="M218.3 294.2h24c2 0 7.9-.1 12.4 4.5 3 3 4.4 7 4.4 12.1-.4 27.9-.8 72.9-1.1 96.8a9.7 9.7 0 0 0 9.7 9.8H280a9.8 9.8 0 0 0 9.7-9.6c.3-25.4.8-68.7.9-95.7 0-2.1.1-8.3 4.9-13s10.9-4.4 13.3-4.3c6.3.2 12.8.3 19.1.3h4.6a4.8 4.8 0 0 0 4.6-3.9c1.1-7 2.2-13.8 2.9-20.8a4.6 4.6 0 0 0-4.5-5.1l-14-.2h-8.9c-6.6 0-12.2-.1-16.8-4.8s-4.5-10.8-4.3-17.1c0-2.1.1-4.2.1-6.3.1-8.1.3-16.5 1.2-24.9 1.7-15.9 13-26 29.6-26.4 6-.1 12.4-.2 19.3-.1a3.7 3.7 0 0 0 3.8-3.7c0-5.5.1-10.9.2-16.1V163a3.1 3.1 0 0 0-2.8-3.1c-17.8-1.7-34.7-3.1-50.6 2.7s-27.3 18.5-30.1 36.7c-1.7 10.6-1.9 21.6-2.1 33.2-.1 4.7-.2 9.6-.4 14.4v.4c-.5 12.4-5.8 17.5-18.4 17.3h-8.5l-14.1-.2a4.1 4.1 0 0 0-4.1 4c0 7.1-.1 14.3-.2 21.7a4.1 4.1 0 0 0 3.9 4.1z"/></svg>