<svg xmlns="http://www.w3.org/2000/svg" width="8in" height="8in" viewBox="0 0 576 576"><path d="M293.4 157.5a9.1 9.1 0 0 0-12.8 0L169.5 269.3a9 9 0 0 0-2.6 6.4v104.2a9 9 0 0 0 9 9.1h56.7a9.7 9.7 0 0 0 9.7-9.7v-66.8a30.5 30.5 0 0 1 30.4-30.4h30.6a30.5 30.5 0 0 1 30.4 30.4v66.8a9.7 9.7 0 0 0 9.7 9.7h56.7a9 9 0 0 0 9-9.1V275.8a8.9 8.9 0 0 0-2.7-6.4z"/><path d="M288 39.9C151 39.9 39.9 151 39.9 288S151 536.1 288 536.1 536.1 425 536.1 288 425 39.9 288 39.9zm142.5 340a30.5 30.5 0 0 1-30.4 30.4h-56.7a31 31 0 0 1-31.1-31v-66.8a9 9 0 0 0-9-9h-30.6a9 9 0 0 0-9 9v66.8a31 31 0 0 1-31.1 31h-56.7a30.5 30.5 0 0 1-30.4-30.4V275.7a30.1 30.1 0 0 1 8.9-21.4l111.1-111.8a30.4 30.4 0 0 1 43-.2l113 111.9a30.5 30.5 0 0 1 9 21.6z"/></svg>