<svg id="Layer_1" data-name="Layer 1" xmlns="http://www.w3.org/2000/svg" width="8in" height="8in" viewBox="0 0 576 576"><title>travel</title><path d="M283.9,455a8.8,8.8,0,0,1-2.2-.3,9.3,9.3,0,0,1-7.1-10.1c2.8-27.2,5.7-54.9,8.6-81.6l2.7-25.8c1.4-12.7,2.7-25.3,4-38-24.1,11.8-47,20.6-69.9,26.7-19,5.1-39.5,9.9-60.7,11.3a112.4,112.4,0,0,1-11.9.2,36.7,36.7,0,0,1-24.3-9.9c-17.7-16.3-35.9-34.8-55.5-56.6-3.4-3.7-6.6-7.4-10.1-11.3-1.5-1.7-3.1-3.4-4.6-5.2l-6.8-7.6,8.2-6,.3-.2a8.9,8.9,0,0,1,2.8-1.8l3.6-1.6c4.4-2,8.9-4.1,13.5-5.9a15.8,15.8,0,0,1,10.9-.6c27.2,8.7,53.9,17.3,79.4,25.7h.3a.1.1,0,0,0,.1-.1L322.6,181l41.6-19.9,23.7-11.3,41.5-19.9c14.4-6.9,30.4-9.7,50.3-8.7,8.5.4,19.5,1.5,29.9,6.7a45.3,45.3,0,0,1,13.9,10.5c7.5,9,8.5,20.4,2.6,32-6.7,13.5-17.7,24-32.7,31.2-25.9,12.6-52.3,25.2-77.9,37.3l-9.8,4.7c-17.1,47.7-34.5,96-51.3,142.8l-8.6,23.9c-.8,2.1-1.5,4.2-2.2,6.2-1.8,5-3.6,10.2-5.6,15.2s-4.8,8-27.9,16.2C293.4,453.9,286.9,455,283.9,455Zm25.9-185.9v14.6c0,.4.1.7.1.9a17.7,17.7,0,0,1-.1,2.2c-1.8,17.5-3.7,34.9-5.5,52.4l-2.8,25.7c-2.4,22.6-4.8,45.8-7.2,68.9,9.7-3.1,22.9-8,27.3-10.7,1.6-4.1,3-8.3,4.6-12.7l2.2-6.3,8.6-23.9c16.9-47,34.4-95.6,51.5-143.5a16.3,16.3,0,0,1,8.7-9.5l10.4-4.9c25.5-12.2,51.9-24.7,77.8-37.3,11.3-5.5,19.3-13,24.2-22.8,3.2-6.4,1.7-9.6-.3-11.9a26.7,26.7,0,0,0-7.9-5.9c-7.3-3.6-15.9-4.5-22.6-4.8-16.7-.8-29.9,1.4-41.5,7l-41.4,19.8-23.8,11.4-41.5,19.9L173.2,273.1a18.4,18.4,0,0,1-14.2.9c-25.1-8.3-51.4-16.8-78.1-25.4l-6.1,2.6c2.1,2.5,4.3,4.9,6.5,7.3,19.2,21.4,37,39.5,54.3,55.4a17.7,17.7,0,0,0,12.3,5c4,.1,7.3.1,10.2-.1,19.6-1.3,39-5.9,57.1-10.8,23.7-6.3,47.6-15.7,73.1-28.6,1.8-1,3.7-1.8,5.6-2.7l2.8-1.3Zm12.6,153.4Zm-157.2-166Zm-83.7-8.2Z"/><path d="M219.6,212.7a15.2,15.2,0,0,1-8.7-2.8l-50.4-32.5-15-9.7-.4-.3-2.2-1.4c-4.2-3.1-6.5-7.6-6.1-12.4s3.3-9,8.1-11.5c2.8-1.5,5.8-2.9,8.6-4.3,5-2.4,9.7-4.6,14.2-7.2a39,39,0,0,1,22.7-4.9,28.2,28.2,0,0,1,6.1,1.2l93.4,31.8,3,1,2,.8,1.3.5,19.5,7.8-19,9.1-3.7,1.8-7.2,3.5-17.2,8L226.5,211A15.9,15.9,0,0,1,219.6,212.7Zm-59.5-57.5c3.5,2.2,7,4.4,10.4,6.7l49.4,31.8,40.9-19.2,7.7-3.6-78-26.5a3.9,3.9,0,0,0-1.6-.3,20.4,20.4,0,0,0-12.1,2.5c-5,2.9-10.2,5.4-15.2,7.9Z"/></svg>