<svg id="Layer_1" data-name="Layer 1" xmlns="http://www.w3.org/2000/svg" width="8in" height="8in" viewBox="0 0 576 576"><title>twitter</title><path d="M468.2,180.8c-2.8-2.9-7.5-4.2-13.2-3.5l-2.4.4a58.3,58.3,0,0,1-8.1.8c.9-1.3,2-2.6,3-4a49.7,49.7,0,0,0,6.8-10.1c2.4-5.7,1.2-11.3-3.2-15.1s-9-3-14.4-1.2l-9,3.4a110.8,110.8,0,0,1-14.3,4.6c-1.3.3-1.4.2-2.2-.5-24.2-21.5-61-26.7-89.6-12.7-32,15.8-48.3,41.8-48.3,77.3v.6l-2.4-.4c-5.3-.9-10.4-1.8-15.4-2.9a185,185,0,0,1-87-46.5c-4.4-4.1-8.5-8.7-12.6-13.1l-4.6-5.2a13.6,13.6,0,0,0-11.5-4.5,12.3,12.3,0,0,0-9.3,6.5c-12.3,22-14.4,45.1-6.5,68.7,1.4,3.9,3.1,7.6,4.8,11.2a12.1,12.1,0,0,0-10,13.3c.4,19.2,6.3,36.2,17.7,50.5a105.7,105.7,0,0,0,9.5,10.4l.9.9c-3.5,3.6-4.1,8.2-1.9,14.2,8.3,22.4,23.3,38.7,44.9,48.5-3.5,1.6-7,3.1-10.5,4.4a130.1,130.1,0,0,1-59.2,7.3c-7.2-.8-11.2,1.4-14.7,8.1l-.5,1v7.6l1.2,1.2,1.2,1.4a16.4,16.4,0,0,0,4.2,4.1,209.8,209.8,0,0,0,100.1,32.9c4.9.3,9.9.5,14.9.5a225.2,225.2,0,0,0,44.7-4.5c46.8-9.6,85.9-32.6,116.2-68.2,34.7-40.7,52.4-89,52.7-143.4a2,2,0,0,1,.9-2l4.2-3.3c9.2-7.2,15.2-11.9,23-23.5a13.9,13.9,0,0,0,2.6-6.1C471.5,185.3,469.8,182.4,468.2,180.8Zm-36.1,21.7-3,1.8c-5.9,3.6-12.7,9.2-12.6,19.6.2,54.1-20.1,101.6-60.3,141-26.1,25.6-58.7,41.8-96.8,48.1a192.2,192.2,0,0,1-53.8,1.7,187.8,187.8,0,0,1-38.2-8.3A154.5,154.5,0,0,0,228.7,378c6.8-5.1,6.8-10.7,5.6-14.5s-4.5-8.5-12.9-9c-18.6-1-33.1-8.6-44.3-23.2,4.1-.6,8.3-1.3,12.4-2.1,7.2-1.4,11.3-6.1,11.1-12.7,0-4.4-2-10-10.9-12.3-21.7-5.5-35.7-18.3-42.7-39l1.5.3c4.4.7,9,1.5,13.6,2a12.4,12.4,0,0,0,13.3-8.8c1.6-5.3-.5-10.6-5.6-14.3-18-12.9-26.2-30.2-25.2-52.8a74.4,74.4,0,0,1,1.2-7.6l.4.4c4.2,4,8.2,7.7,12.4,11.4a213.7,213.7,0,0,0,128.7,51.3,11.9,11.9,0,0,0,9.1-3.5,12.7,12.7,0,0,0,3.5-9.8,47.6,47.6,0,0,0-.7-5.6,40.3,40.3,0,0,1-.6-4.7c-1.9-22.9,7.1-41,26.5-53.9,22.9-15.3,51.1-13.5,70.2,4.4l.3.2a23.9,23.9,0,0,0,19.1,4.6,49.1,49.1,0,0,0,9.2-4.2c3.5-2,7.7-4.3,10.3-4.3h.2c-1.5,2.8-6.1,7.7-13.6,14.5-4.3,3.9-5.8,5.2-5.1,8l.5,1.9,1.6.9c1.8,1.2,3.2.8,8-.4,13-3.2,18.6-3.2,21-2.5C444.9,194.5,440.8,197.6,432.1,202.5Z"/></svg>