<svg id="Layer_1" data-name="Layer 1" xmlns="http://www.w3.org/2000/svg" width="8in" height="8in" viewBox="0 0 576 576"><title>vehicle</title><path d="M486.9,246.8c-22.4-3.9-44.7-7.6-67.1-11.1-7.8-1.2-13.4-4.4-18.1-11.1-11.7-16.5-24.2-32.4-36.4-48.5-9.8-13.1-22.8-19.7-39.3-19.6H194.9c-18.7,0-32.6,8.2-42.3,23.9-6.1,9.6-13.3,18.7-17.8,29-8.6,19.9-23.2,27.4-44.2,29-24.4,1.8-41.2,21.2-42.1,45.7-.7,21.3-.6,42.6,0,63.9.4,16.8,12.7,28.2,29.6,28.7,5,.1,10,0,14.7,0V357.4c-25.3,1.3-25.3.5-25.3-26.4,0-14.9-.1-29.8,0-44.7s8.5-26.7,23.9-29.2,33.1-5.3,49.6-5.4c83.5-.5,167-1.6,250.5.5,32.6.8,65.2,8.9,97.6,14.7,11.8,2.1,19.4,13.8,19.6,26.2.3,16.7.2,33.4.1,50.1-.1,12.2-2.1,14.2-14.2,14.3H480.2v19.1c15.9,1.1,31.7,1.2,41.4-11a29.6,29.6,0,0,0,6.4-18.7V296.4a51.6,51.6,0,0,0-11.3-32.7C509.5,255,499.9,249,486.9,246.8ZM249.5,232.4H142.4c10.3-16.3,19.1-31.7,29.6-45.7,4-5.4,12-10.3,18.5-10.7,19.3-1.4,38.8-.5,59-.5Zm19.9.5V174.7h24.8c9.9,0,20.1-1.2,29.7.4s18.3,4.1,23.6,9.8c13,14.3,23.9,30.7,36.9,48Z"/><path d="M156.6,419.5a48.8,48.8,0,1,1,48.8-48.8A48.9,48.9,0,0,1,156.6,419.5Zm0-79.8a31.1,31.1,0,1,0,31,31A31,31,0,0,0,156.6,339.7Z"/><path d="M418.5,419.5a48.8,48.8,0,1,1,48.8-48.8A48.9,48.9,0,0,1,418.5,419.5Zm0-79.8a31.1,31.1,0,1,0,31,31A31,31,0,0,0,418.5,339.7Z"/><rect x="219.5" y="356.5" width="134.8" height="17.73"/></svg>