<svg id="Layer_1" data-name="Layer 1" xmlns="http://www.w3.org/2000/svg" width="8in" height="8in" viewBox="0 0 576 576"><title>wedding</title><path d="M328.2,229.4A152.4,152.4,0,0,0,85.6,192.6,152.4,152.4,0,0,0,193.3,452.7a154.6,154.6,0,0,0,31.3-3.2,128.8,128.8,0,0,0,91.2,37.7C387,487.2,445,429.2,445,358,445,291,393.6,235.7,328.2,229.4Zm-1,70.9a134,134,0,0,1-96.4,128.6A110.1,110.1,0,0,1,205,358c0-61,49.7-110.7,110.8-110.7h.5A134,134,0,0,1,327.2,300.3ZM98.7,395A133.9,133.9,0,0,1,288,205.7a139.2,139.2,0,0,1,18.7,23.4c-67,4.7-120.2,60.7-120.2,128.9a129.1,129.1,0,0,0,24.1,75.1,141,141,0,0,1-17.3,1.1A133.3,133.3,0,0,1,98.7,395Zm217.1,73.7a110.6,110.6,0,0,1-70.3-25.2A152.6,152.6,0,0,0,345.7,300.3a153.5,153.5,0,0,0-8.7-51c50.9,10,89.5,54.9,89.5,108.7A110.9,110.9,0,0,1,315.8,468.7Z"/><path d="M358.3,226.3l52.3,27.8,50.3-31.4-2-59.3-52.4-27.8L356.2,167ZM407.2,157l33.6,17.8,1.3,37.9-32.2,20.1L376.4,215l-1.3-37.9Z"/><path d="M525.7,185.6H481.3a9.3,9.3,0,0,0,0,18.5h44.4a9.3,9.3,0,1,0,0-18.5Z"/><path d="M440.9,141.1a10,10,0,0,0,4.7,1.2,9.1,9.1,0,0,0,8-4.6l20.3-35A9.3,9.3,0,0,0,470.6,90a9.4,9.4,0,0,0-12.7,3.4l-20.3,35A9.3,9.3,0,0,0,440.9,141.1Z"/><path d="M359.9,141.5a9.2,9.2,0,0,0,8,4.5,9,9,0,0,0,4.7-1.3,9.1,9.1,0,0,0,3.2-12.6L353,93.4a9.2,9.2,0,0,0-15.9,9.3Z"/><path d="M322.8,204.1H337a9.3,9.3,0,1,0,0-18.5H322.8a9.3,9.3,0,0,0,0,18.5Z"/><path d="M455.5,249a9.3,9.3,0,0,0-16.1,9.2l18.5,32.5a9.2,9.2,0,0,0,12.6,3.5,9.3,9.3,0,0,0,3.5-12.6Z"/></svg>