<svg xmlns="http://www.w3.org/2000/svg" width="8in" height="8in" viewBox="0 0 576 576"><path d="M328.2 229.4a152.4 152.4 0 0 0-242.6-36.8 152.4 152.4 0 0 0 107.7 260.1 154.6 154.6 0 0 0 31.3-3.2 128.8 128.8 0 0 0 91.2 37.7c71.2 0 129.2-58 129.2-129.2 0-67-51.4-122.3-116.8-128.6zm-1 70.9a134 134 0 0 1-96.4 128.6A110.1 110.1 0 0 1 205 358c0-61 49.7-110.7 110.8-110.7h.5a134 134 0 0 1 10.9 53zM98.7 395A133.9 133.9 0 0 1 288 205.7a139.2 139.2 0 0 1 18.7 23.4c-67 4.7-120.2 60.7-120.2 128.9a129.1 129.1 0 0 0 24.1 75.1 141 141 0 0 1-17.3 1.1A133.3 133.3 0 0 1 98.7 395zm217.1 73.7a110.6 110.6 0 0 1-70.3-25.2 152.6 152.6 0 0 0 100.2-143.2 153.5 153.5 0 0 0-8.7-51c50.9 10 89.5 54.9 89.5 108.7a110.9 110.9 0 0 1-110.7 110.7z"/><path d="M358.3 226.3l52.3 27.8 50.3-31.4-2-59.3-52.4-27.8-50.3 31.4zm48.9-69.3l33.6 17.8 1.3 37.9-32.2 20.1-33.5-17.8-1.3-37.9zm118.5 28.6h-44.4a9.3 9.3 0 0 0 0 18.5h44.4a9.3 9.3 0 1 0 0-18.5zm-84.8-44.5a10 10 0 0 0 4.7 1.2 9.1 9.1 0 0 0 8-4.6l20.3-35a9.3 9.3 0 0 0-3.3-12.7 9.4 9.4 0 0 0-12.7 3.4l-20.3 35a9.3 9.3 0 0 0 3.3 12.7zm-81 .4a9.2 9.2 0 0 0 8 4.5 9 9 0 0 0 4.7-1.3 9.1 9.1 0 0 0 3.2-12.6L353 93.4a9.2 9.2 0 0 0-15.9 9.3zm-37.1 62.6H337a9.3 9.3 0 1 0 0-18.5h-14.2a9.3 9.3 0 0 0 0 18.5zM455.5 249a9.3 9.3 0 0 0-16.1 9.2l18.5 32.5a9.2 9.2 0 0 0 12.6 3.5 9.3 9.3 0 0 0 3.5-12.6z"/></svg>