<svg id="Layer_1" data-name="Layer 1" xmlns="http://www.w3.org/2000/svg" width="11.3in" height="6.2in" viewBox="0 0 812.1 445"><title>white-car</title><path d="M742.5,152.8c-37.8-6.5-75.6-12.9-113.5-18.8-13.2-2-22.7-7.4-30.6-18.7-19.7-28-40.9-54.9-61.5-82.2C520.2,11.1,498.2-.1,470.3,0Q359.4.3,248.5,0c-31.6,0-55.1,13.9-71.6,40.4-10.2,16.3-22.5,31.7-30,49.1-14.5,33.7-39.2,46.4-74.9,49C30.9,141.6,2.3,174.4.9,215.9-.4,252-.2,288.1.8,324.1c.8,28.4,21.5,47.6,50.1,48.4,8.4.3,16.9.2,25,.1V339.9C33,342.1,33,340.8,33,295.3c0-25.2-.2-50.5,0-75.7s14.4-45.2,40.5-49.4c27.7-4.4,55.9-8.9,83.9-9,141.3-1,282.6-2.8,423.7.7,55.3,1.4,110.4,15.1,165.2,25,20,3.5,32.9,23.2,33.2,44.2.5,28.2.2,56.5.1,84.7-.1,20.8-3.5,24.1-24.1,24.3H731.3v32.3c26.8,1.9,53.5,2,70-18.6a50.3,50.3,0,0,0,10.8-31.7V236.7c0-20.1-6.5-39.8-19.2-55.3S764.6,156.6,742.5,152.8ZM340.9,128.5H159.8c17.4-27.6,32.2-53.7,50-77.5,6.8-9,20.3-17.2,31.3-18,32.6-2.4,65.6-.9,99.8-.9Zm33.7.7V30.9h41.9c16.8,0,34-2.1,50.4.6,14,2.4,30.9,6.9,39.8,16.7,22.1,24.1,40.4,51.8,62.4,81Z" fill="#fff" stroke="#fff" stroke-miterlimit="10"/><circle cx="183.7" cy="362.5" r="67.6" fill="#fff" stroke="#fff" stroke-miterlimit="10" stroke-width="30"/><circle cx="626.8" cy="362.5" r="67.6" fill="#fff" stroke="#fff" stroke-miterlimit="10" stroke-width="30"/><line x1="290.1" y1="353.4" x2="518.1" y2="353.4" fill="#fff" stroke="#fff" stroke-miterlimit="10" stroke-width="30"/></svg>