<svg id="Layer_1" data-name="Layer 1" xmlns="http://www.w3.org/2000/svg" width="10.2in" height="9in" viewBox="0 0 732.3 650"><title>white-cloud</title><path d="M640.9,170.5c54.9,26.2,80.4,73.1,75.9,133.8-4.2,55.6-34.9,94-85.6,115.6-12.1,5.1-26.4,6.8-39.6,6.8-142.1.5-284.3-1.6-426.3,1.2-56.7,1.1-128.6-42.5-146-116.2C-4,212.5,70.1,119.3,172.2,120.5c13.3.1,20.4-3.4,28-14.7,42.8-63.9,104-95.7,180.4-90.2,80,5.7,137.5,47.5,170.8,121.2l1.3,3a26,26,0,0,0,21.1,15.7C592.7,157.5,624.5,162.7,640.9,170.5Z" fill="none" stroke="#fff" stroke-miterlimit="10" stroke-width="30"/><circle cx="200.3" cy="508.7" r="25" fill="#fff" stroke="#fff" stroke-miterlimit="10"/><circle cx="369.5" cy="508.7" r="25" fill="#fff" stroke="#fff" stroke-miterlimit="10"/><circle cx="314.5" cy="625" r="25" fill="#fff" stroke="#fff" stroke-miterlimit="10"/><circle cx="145.3" cy="625" r="25" fill="#fff" stroke="#fff" stroke-miterlimit="10"/><circle cx="538.8" cy="508.7" r="25" fill="#fff" stroke="#fff" stroke-miterlimit="10"/><circle cx="483.8" cy="625" r="25" fill="#fff" stroke="#fff" stroke-miterlimit="10"/></svg>