<svg id="Layer_1" data-name="Layer 1" xmlns="http://www.w3.org/2000/svg" width="7in" height="7.6in" viewBox="0 0 502.7 549.8"><title>white-music</title><path d="M478.8,15.1a7.5,7.5,0,0,1,8.7,7.4V80.9c0,104.5-.3,208.9.2,313.3.1,47.9-26.1,73.8-64.2,88-17.8,6.6-53,8-71.3,1.6-25-8.6-37.3-31.9-29.6-57.2,8.6-28.4,29.8-44.7,56-55.5a86.4,86.4,0,0,1,51.5-5,7.6,7.6,0,0,0,9-7.4V161.4a7.4,7.4,0,0,0-8.7-7.3l-38.7,6.5c-73,12.4-129.2,25-202.2,37.3-5.7.9-7.5,2.7-7.5,8.6.2,77.7-.7,155.4.4,233,.9,54.7-33.9,81-71.3,91.8-15.2,4.4-47.4,4.9-62.6,0-27.4-8.9-40.3-34.4-30-61.3,12.1-31.5,37.5-47.8,68.7-56.2a77.6,77.6,0,0,1,38.3-.7,7.5,7.5,0,0,0,9.1-7.3V405q0-161.2-.1-322.5c0-6.4,1.4-8.9,8.3-10.1C249.3,53.5,372.3,34.3,478.7,15.1Z" fill="none" stroke="#fff" stroke-miterlimit="10" stroke-width="30"/></svg>