<svg id="Layer_1" data-name="Layer 1" xmlns="http://www.w3.org/2000/svg" width="10.6in" height="7.5in" viewBox="0 0 765.2 539.1"><title>white-card</title><path d="M473.9,30a29.2,29.2,0,0,1,27.7,20.7L539.4,177H261.6a101.7,101.7,0,0,0-39.4,7.7c-22.9,9.4-38.3,25.9-47.1,50.4a104,104,0,0,0-5.9,34.9V386.1l-45.4,13.6a29,29,0,0,1-36-19.5L31.2,191.6a28.9,28.9,0,0,1,2.3-22.1,29.2,29.2,0,0,1,17.2-14L465.5,31.2a30.5,30.5,0,0,1,8.4-1.2m0-30a59.3,59.3,0,0,0-17,2.5L42.1,126.8A59,59,0,0,0,2.5,200.2L59,388.9a59.1,59.1,0,0,0,56.5,42,58.2,58.2,0,0,0,16.9-2.5l66.8-20V270a74.2,74.2,0,0,1,4.1-24.8c5.8-16,14.5-26.3,30.3-32.8a72.7,72.7,0,0,1,28-5.4H579.7L530.3,42.1A58.9,58.9,0,0,0,473.9,0Z" fill="#fff"/><path d="M706.2,254.3a28.9,28.9,0,0,1,29,28.9V480.1a29,29,0,0,1-29,29H273.1a29,29,0,0,1-28.9-29V283.2a28.9,28.9,0,0,1,28.9-28.9H706.2m0-30H273.1a58.9,58.9,0,0,0-58.9,58.9V480.1a59,59,0,0,0,58.9,59H706.2a59,59,0,0,0,59-59V283.2a58.9,58.9,0,0,0-59-58.9Z" fill="#fff"/><line x1="229.2" y1="327" x2="751.2" y2="327" fill="none" stroke="#fff" stroke-miterlimit="10" stroke-width="60"/></svg>