<svg id="Layer_1" data-name="Layer 1" xmlns="http://www.w3.org/2000/svg" width="11.9in" height="7in" viewBox="0 0 856.2 504.9"><title>white-hat</title><path d="M33.2,165.4c-8.2-2.5-17.9-4.2-18.2-15.5s9.8-13.7,18.3-16.3Q218.4,76,403.5,18.8a80.6,80.6,0,0,1,48.6-.1L824.9,134.4a38.4,38.4,0,0,1,11.2,5.3c6.9,5.3,6.8,14.9-.2,19.9a40.8,40.8,0,0,1-12.2,5.5Q639.1,222.6,454.4,279.7a86.1,86.1,0,0,1-52.9,0C314,252.5,58.5,173.4,33.2,165.4Z" fill="none" stroke="#fff" stroke-miterlimit="10" stroke-width="30"/><path d="M213.2,279.5l54.3,16.7c42.7,13.3,85.4,26.7,128.2,39.8a108.3,108.3,0,0,0,65.2-.2l172.7-53.5L642,280c.3,2.8.8,5,.8,7.2,0,35.9.2,71.7,0,107.6-.2,30.9-19.2,55.2-49.1,60.8a894.7,894.7,0,0,1-331.5.1c-27.7-5.2-47.5-26.5-48.6-54.5C212.1,361.2,213.2,321.2,213.2,279.5Z" fill="none" stroke="#fff" stroke-miterlimit="10" stroke-width="30"/><line x1="725" y1="200.4" x2="725" y2="489.9" fill="none" stroke="#fff" stroke-linecap="round" stroke-miterlimit="10" stroke-width="30"/></svg>