<svg id="Layer_1" data-name="Layer 1" xmlns="http://www.w3.org/2000/svg" width="7.4in" height="8.8in" viewBox="0 0 532 632.2"><title>white-gift</title><path d="M221,372.2v230H59a29,29,0,0,1-29-28.9V372.2H221m30-30H0V573.3a59,59,0,0,0,59,58.9H251v-290Z" fill="#fff"/><path d="M473,174.2a29,29,0,0,1,29,29v79H311v-108H473m0-30H281v168H532v-109a59,59,0,0,0-59-59Z" fill="#fff"/><path d="M221,174.2v108H30v-79a29,29,0,0,1,29-29H221m30-30H59a59,59,0,0,0-59,59v109H251v-168Z" fill="#fff"/><path d="M502,372.2V573.3a29,29,0,0,1-29,28.9H311v-230H502m30-30H281v290H473a59,59,0,0,0,59-58.9V342.2Z" fill="#fff"/><path d="M234,102.2H149.1A67.9,67.9,0,0,1,99.9,81.6C84.7,65.8,78.4,43,129,22.2,219-14.8,234,102.2,234,102.2Z" fill="none" stroke="#fff" stroke-linecap="round" stroke-miterlimit="10" stroke-width="30"/><path d="M298,102.2h84.9a67.9,67.9,0,0,0,49.2-20.6C447.3,65.8,453.6,43,403,22.2,313-14.8,298,102.2,298,102.2Z" fill="none" stroke="#fff" stroke-linecap="round" stroke-miterlimit="10" stroke-width="30"/></svg>