<svg id="Layer_1" data-name="Layer 1" xmlns="http://www.w3.org/2000/svg" width="10.9in" height="7.7in" viewBox="0 0 786.1 556"><title>white-plane</title><path d="M413.5,264.3c-4.9,2.4-9.1,4.2-13.2,6.3-39,19.9-79.3,36.4-121.7,47.8-31.4,8.4-63,15.8-95.6,17.9-6,.4-12,.4-18,.2a43.6,43.6,0,0,1-29.7-12.1C104,295.6,74.5,265,46,233.5L22.2,206.7a16.4,16.4,0,0,1,2.3-1.6c9.1-4.1,18.2-8.3,27.4-12.1a12.1,12.1,0,0,1,7.5-.6q64.5,20.7,128.8,41.9a14.7,14.7,0,0,0,11.8-.7L523.2,78.7C558.5,61.8,593.8,44.8,629.1,28c23.7-11.3,48.9-13.9,74.7-12.7,14.7.7,29.3,2.7,42.6,9.3,6.5,3.3,13,7.8,17.7,13.3,9.1,10.9,8.6,23.4,2.4,35.7-10.1,20.2-26.4,34.2-46.3,43.9q-71.6,34.6-143.4,68.6a11.5,11.5,0,0,0-6.3,7q-48.7,136-97.7,271.9c-4.1,11.4-7.9,23-12.5,34.3a29,29,0,0,1-19.7,18c-16.2,4.5-31.2,12.2-45.2,21.5-5.3,3.6-8.1,2.6-8.9-1.6a32.8,32.8,0,0,1-.4-9.9q9.1-87.1,18.5-174.4c3-28.4,5.9-56.7,8.9-85C413.6,267.1,413.5,266.2,413.5,264.3Z" fill="none" stroke="#fff" stroke-miterlimit="10" stroke-width="30"/><path d="M400.7,79l-17.6,8.4c-32.1,15.1-64.3,30.1-96.4,45.3-4,1.9-7,1.7-10.8-.8-35.3-23-70.8-45.8-106.2-68.6l-3.6-2.4c-5.6-4-5-10.1,1.2-13.2,12.5-6.5,25.5-12.1,37.7-19.1a47.5,47.5,0,0,1,28.2-6,27,27,0,0,1,6.3,1.2L396.1,77.1Z" fill="none" stroke="#fff" stroke-miterlimit="10" stroke-width="30"/></svg>