<svg id="Layer_1" data-name="Layer 1" xmlns="http://www.w3.org/2000/svg" width="6.9in" height="7.5in" viewBox="0 0 495.6 539.1"><title>white-chair</title><path d="M319.7,218V348.8c28.9,1.8,57.7,3.6,86.5,5.7,13.3.9,21.1,10.5,15.1,19.5-3.4,5.1-12.1,8.9-18.5,9-16.2.4-32.4-1.6-51.9-2.9l50.8,98.1c21.9-11.1,42.7-21.3,63.1-32.4,10.1-5.4,20.1-11.3,27.8,1.3s-1.5,20.6-11.8,26.8c-74.2,44.9-155,65.7-241.6,65.2-79.5-.5-154.2-19.6-223.4-58.9-5.3-3-10.7-8.2-12.6-13.7-1.3-3.8,2-12.4,5.5-14,5-2.4,12.9-2.3,18.1,0,22.3,9.8,44.1,20.7,67.5,31.9l49.4-95.1-11.9,1.3c-17.9,1.6-22.9-2.6-24.9-20.2-7.7-68.9-19.1-137.1-38.7-203.8C53.7,117.6,35.9,70.1,5.5,28.3-.9,19.5-3.3,10,7.2,3s18-.9,24.4,7.8c32.2,44.3,51,94.7,66.5,146.7,4.7,15.4,8.8,31.1,13.3,47.4,35.3-3.7,69.6-7.8,104-10.8,36.5-3.2,73.1-7,109.7-7.8,42.5-.9,68.7,19.2,83.3,58.9,3.6,9.9,1.4,17.6-7.5,22s-16.1-.5-20.7-9.4C361.6,221.4,350.6,214.2,319.7,218Zm51.7,270.8c-18-34.9-35.2-68.8-53.2-102.3-2-3.6-8.9-6.6-13.5-6.5-37.7.4-75.3,1.5-112.9,2.9-4.5.2-11.2,2.4-13,5.7-18.3,33.7-35.9,67.8-54.1,102.8C208,513.6,289.1,514.8,371.4,488.8ZM202.7,224.7c5.2,43,9.9,83.2,14.6,122.6H287v-131ZM186.8,351.6c-5.4-41.6-10.6-81.7-16-123.1l-52.7,6.4c6.7,41.4,13.1,81.2,19.6,121.6Z" fill="#fff"/></svg>